<svg xmlns="http://www.w3.org/2000/svg" version="1.1" xmlns:xlink="http://www.w3.org/1999/xlink" xmlns:svgjs="http://svgjs.dev/svgjs" width="1000" height="1000" viewBox="0 0 1000 1000"><rect width="1000" height="1000" fill="#000000"></rect><g transform="matrix(0.7,0,0,0.7,149.5757576209915,412.98412361960766)"><svg viewBox="0 0 396 99" data-background-color="#ffffff" preserveAspectRatio="xMidYMid meet" height="249" width="1000" xmlns="http://www.w3.org/2000/svg" xmlns:xlink="http://www.w3.org/1999/xlink"><g id="tight-bounds" transform="matrix(1,0,0,1,0.24000002558955202,-0.07617987264026738)"><svg viewBox="0 0 395.52 99.15235824736521" height="99.15235824736521" width="395.52"><g><svg viewBox="0 0 560.0760102309152 140.40467539484905" height="99.15235824736521" width="395.52"><g transform="matrix(1,0,0,1,0,19.404698263687536)"><svg viewBox="0 0 395.52 101.59527886747398" height="101.59527886747398" width="395.52"><g><svg viewBox="0 0 395.52 101.59527886747398" height="101.59527886747398" width="395.52" id="textblock"><g><svg viewBox="0 0 395.52 101.59527886747398" height="101.59527886747398" width="395.52"><g transform="matrix(1,0,0,1,0,0)"><svg width="395.52" viewBox="0.6600000262260437 -36.18000030517578 143.12998962402344 36.77000045776367" height="101.59527886747398" data-palette-color="#0718c4"><g class="undefined-text-0" data-fill-palette-color="primary" id="text-0"><path d="M26.25-12.99L26.25-12.99Q26.25-9.64 25.09-7.14 23.93-4.64 21.91-2.98 19.9-1.32 17.2-0.49 14.5 0.34 11.4 0.34L11.4 0.34Q10.21 0.34 8.78 0.02 7.35-0.29 5.88-0.77 4.42-1.25 3.06-1.79 1.71-2.34 0.66-2.83L0.66-2.83 1.73-12.89Q3.81-11.65 6.34-11 8.86-10.35 11.3-10.35L11.3-10.35Q11.77-10.35 12.43-10.39 13.09-10.42 13.68-10.61 14.28-10.79 14.7-11.16 15.11-11.52 15.11-12.21L15.11-12.21Q15.11-12.67 14.82-13 14.53-13.33 14.06-13.54 13.6-13.75 13.01-13.85 12.43-13.96 11.87-14.01 11.3-14.06 10.82-14.06 10.33-14.06 10.03-14.06L10.03-14.06Q7.93-14.06 6.21-14.79 4.49-15.53 3.26-16.83 2.03-18.14 1.34-19.93 0.66-21.73 0.66-23.83L0.66-23.83Q0.66-26.71 1.82-28.99 2.98-31.27 4.92-32.87 6.86-34.47 9.38-35.33 11.89-36.18 14.58-36.18L14.58-36.18Q15.77-36.18 17.04-36.1 18.31-36.01 19.57-35.79 20.83-35.57 22.02-35.23 23.22-34.89 24.29-34.38L24.29-34.38 23.36-24.46Q21.7-25.02 19.89-25.4 18.07-25.78 16.33-25.78L16.33-25.78Q16.02-25.78 15.52-25.77 15.01-25.76 14.47-25.7 13.92-25.63 13.35-25.51 12.79-25.39 12.35-25.18 11.91-24.98 11.65-24.63 11.38-24.29 11.4-23.83L11.4-23.83Q11.43-23.29 11.8-22.96 12.18-22.63 12.78-22.45 13.38-22.27 14.1-22.19 14.82-22.12 15.53-22.11 16.24-22.09 16.85-22.11 17.46-22.12 17.85-22.07L17.85-22.07Q19.8-21.95 21.36-21.24 22.92-20.53 24.01-19.36 25.1-18.19 25.67-16.56 26.25-14.94 26.25-12.99ZM55.98-34.81L56.76 0 44.55 0.59 44.46-10.69 38.84-10.69 38.5 0 27.56 0 28.49-34.33 40.11-33.79 39.38-16.26 44.8-16.26 44.85-35.11 55.98-34.81ZM80.34-34.96L89.86-2.1 77.75-0.54 76.29-6.05 70.72-6.05 69.5-0.54 57.05-1.76 66.77-34.28 80.34-34.96ZM71.75-13.53L75.41-13.53 73.55-22.02 71.75-13.53ZM118.99-23.54L118.99-23.54Q118.99-21.63 118.66-20.08 118.33-18.53 117.62-17.24 116.91-15.94 115.79-14.84 114.67-13.75 113.08-12.74L113.08-12.74 118.89-2.39 107.9-0.24 104.14-10.64 101.12-10.55 100.68-0.39 90.18-0.39Q90.3-5.96 90.41-11.47 90.52-16.99 90.67-22.56L90.67-22.56Q90.72-25.37 90.76-28.13 90.81-30.88 90.96-33.69L90.96-33.69Q92.67-34.33 94.33-34.74 95.99-35.16 97.66-35.39 99.33-35.62 101.05-35.71 102.78-35.79 104.58-35.79L104.58-35.79Q107.37-35.79 109.97-35.02 112.57-34.25 114.57-32.71 116.57-31.18 117.78-28.88 118.99-26.59 118.99-23.54ZM108.05-22.75L108.05-22.75Q108.05-23.78 107.77-24.63 107.49-25.49 106.94-26.11 106.39-26.73 105.57-27.09 104.75-27.44 103.65-27.44L103.65-27.44Q103.17-27.44 102.7-27.38 102.24-27.32 101.8-27.2L101.8-27.2 101.41-18.12 101.99-18.12Q103.04-18.12 104.13-18.38 105.22-18.65 106.08-19.21 106.95-19.78 107.5-20.65 108.05-21.53 108.05-22.75ZM121.28-35.21L143.79-35.21Q143.64-32.91 143.52-30.66 143.4-28.42 143.2-26.12L143.2-26.12 132.85-25.59 132.61-22.51 139.88-22.51 139.35-14.94 132.02-14.7 131.78-11.13 137.83-11.13 142.13-11.13Q141.98-8.45 141.82-5.8 141.66-3.15 141.54-0.49L141.54-0.49 120.5 0 121.28-35.21Z" fill="#ffffff" data-fill-palette-color="primary"></path></g></svg></g></svg></g></svg></g></svg></g><g transform="matrix(1,0,0,1,419.50420705391775,0)"><svg viewBox="0 0 140.5718031769974 140.40467539484905" height="140.40467539484905" width="140.5718031769974"><g><svg xmlns="http://www.w3.org/2000/svg" xmlns:xlink="http://www.w3.org/1999/xlink" version="1.1" x="0" y="0" viewBox="5 5.053000450134277 90 89.89299774169922" enable-background="new 0 0 100 100" xml:space="preserve" height="140.40467539484905" width="140.5718031769974" class="icon-icon-0" data-fill-palette-color="accent" id="icon-0"><g fill="#0718c4" data-fill-palette-color="accent"><path d="M22.749 91.928c0 1.667-1.351 3.018-3.018 3.018H8.018C6.351 94.946 5 93.595 5 91.928V80.215c0-1.667 1.351-3.018 3.018-3.018h11.713c1.667 0 3.018 1.351 3.018 3.018V91.928z" fill="#ffffff" data-fill-palette-color="accent"></path><path d="M95 65.807c0 4.789-3.882 8.671-8.671 8.671H33.946c-4.789 0-8.671-3.882-8.671-8.671V13.724c0-4.789 3.882-8.671 8.671-8.671h52.383c4.789 0 8.671 3.882 8.671 8.671V65.807zM84.347 17.733c0-1.119-0.907-2.026-2.026-2.026H37.955c-1.119 0-2.026 0.907-2.026 2.026v44.065c0 1.119 0.907 2.026 2.026 2.026h44.366c1.119 0 2.026-0.907 2.026-2.026V17.733z" fill="#ffffff" data-fill-palette-color="accent"></path></g></svg></g></svg></g></svg></g><defs></defs></svg><rect width="395.52" height="99.15235824736521" fill="none" stroke="none" visibility="hidden"></rect></g></svg></g></svg>