<?xml version="1.0" standalone="no"?>
<!DOCTYPE svg PUBLIC "-//W3C//DTD SVG 20010904//EN"
 "http://www.w3.org/TR/2001/REC-SVG-20010904/DTD/svg10.dtd">
<svg version="1.0" xmlns="http://www.w3.org/2000/svg"
 width="200.000000pt" height="200.000000pt" viewBox="0 0 200.000000 200.000000"
 preserveAspectRatio="xMidYMid meet">

<g transform="translate(0.000000,200.000000) scale(0.100000,-0.100000)"
fill="#000000" stroke="none">
<path d="M1590 1939 c-111 -50 -167 -157 -140 -268 l12 -50 -51 -86 c-28 -48
-51 -91 -51 -96 0 -25 34 -15 108 32 l81 51 43 -17 c54 -22 160 -23 210 -1 94
41 152 125 152 221 0 136 -106 235 -254 235 -44 0 -80 -7 -110 -21z m232 -55
c63 -44 90 -96 85 -166 -4 -78 -39 -128 -112 -163 -48 -24 -64 -27 -115 -22
-33 3 -75 14 -94 25 l-35 20 -45 -29 c-25 -16 -46 -26 -46 -22 0 3 12 26 26
50 23 39 24 47 14 80 -20 58 -8 137 26 181 48 59 106 84 186 80 55 -3 75 -9
110 -34z"/>
<path d="M1132 1423 c2 -14 15 -19 56 -21 47 -3 52 -1 52 17 0 19 -6 21 -56
21 -47 0 -55 -3 -52 -17z"/>
<path d="M1280 1420 c0 -16 7 -20 30 -20 23 0 30 4 30 20 0 16 -7 20 -30 20
-23 0 -30 -4 -30 -20z"/>
<path d="M1040 1417 c-46 -22 -52 -28 -40 -42 14 -17 102 13 98 35 -4 19 -26
22 -58 7z"/>
<path d="M933 1348 c-20 -22 -43 -61 -43 -72 0 -19 39 -1 62 28 22 28 25 36
15 50 -11 16 -14 15 -34 -6z"/>
<path d="M870 1191 c0 -52 8 -70 28 -64 14 3 16 14 14 54 -3 40 -7 49 -23 49
-15 0 -19 -7 -19 -39z"/>
<path d="M365 1097 c-159 -53 -269 -173 -297 -325 -31 -167 62 -337 230 -419
75 -38 77 -38 196 -38 116 0 124 1 192 33 l71 33 139 -90 c132 -86 174 -105
174 -80 0 7 -40 82 -90 168 l-89 156 20 65 c59 186 -36 382 -228 473 -61 28
-79 32 -173 34 -67 2 -120 -2 -145 -10z m277 -57 c104 -39 187 -121 224 -222
24 -65 22 -172 -5 -235 l-23 -51 52 -89 c29 -48 61 -103 73 -122 13 -22 16
-31 6 -26 -8 5 -58 38 -113 73 l-98 64 -73 -37 c-210 -107 -477 -14 -556 194
-30 80 -24 194 15 270 50 98 156 178 266 201 65 13 166 5 232 -20z"/>
<path d="M910 1090 c-12 -7 -9 -15 16 -46 35 -44 49 -51 58 -28 4 10 -4 29
-21 49 -32 38 -32 38 -53 25z"/>
<path d="M1016 994 c-8 -20 6 -31 52 -40 34 -7 59 6 48 24 -3 5 -18 12 -33 15
-16 3 -35 8 -44 12 -10 4 -19 0 -23 -11z"/>
<path d="M1160 960 c0 -17 7 -20 50 -20 43 0 50 3 50 20 0 17 -7 20 -50 20
-43 0 -50 -3 -50 -20z"/>
<path d="M1300 960 c0 -17 7 -20 50 -20 43 0 50 3 50 20 0 17 -7 20 -50 20
-43 0 -50 -3 -50 -20z"/>
<path d="M1440 960 c0 -17 7 -20 49 -20 33 0 51 5 54 14 8 21 -2 26 -55 26
-41 0 -48 -3 -48 -20z"/>
<path d="M1587 956 c-7 -18 -5 -19 55 -34 30 -8 38 -7 43 6 8 21 -3 30 -51 38
-33 5 -42 3 -47 -10z"/>
<path d="M1727 923 c-13 -12 -7 -20 32 -46 28 -19 41 -23 50 -14 17 17 14 24
-23 46 -35 22 -48 25 -59 14z"/>
<path d="M1843 839 c-9 -9 -6 -20 15 -48 14 -20 27 -37 28 -39 3 -5 34 10 34
17 0 4 -15 24 -32 45 -26 29 -36 35 -45 25z"/>
<path d="M1922 721 c-10 -6 -11 -17 -1 -54 10 -42 25 -57 41 -42 7 7 -10 87
-20 97 -4 4 -13 4 -20 -1z"/>
<path d="M1930 553 c0 -16 -3 -38 -6 -50 -5 -18 -2 -23 14 -23 23 0 32 18 32
66 0 27 -4 34 -20 34 -15 0 -20 -7 -20 -27z"/>
<path d="M1883 408 c-17 -31 -20 -44 -12 -54 15 -18 25 -10 50 38 17 33 18 42
7 49 -20 13 -21 12 -45 -33z"/>
<path d="M1792 308 c-31 -22 -39 -47 -17 -55 15 -5 86 57 80 68 -10 15 -28 11
-63 -13z"/>
<path d="M1668 247 c-41 -11 -55 -47 -19 -47 36 0 82 22 79 38 -4 20 -15 22
-60 9z"/>
<path d="M1100 200 c0 -16 7 -20 30 -20 23 0 30 4 30 20 0 16 -7 20 -30 20
-23 0 -30 -4 -30 -20z"/>
<path d="M1200 200 c0 -17 7 -20 50 -20 43 0 50 3 50 20 0 17 -7 20 -50 20
-43 0 -50 -3 -50 -20z"/>
<path d="M1340 200 c0 -17 7 -20 50 -20 43 0 50 3 50 20 0 17 -7 20 -50 20
-43 0 -50 -3 -50 -20z"/>
<path d="M1480 199 c0 -18 5 -20 52 -17 41 2 54 7 56 21 3 14 -5 17 -52 17
-50 0 -56 -2 -56 -21z"/>
</g>
</svg>
