<?xml version="1.0" encoding="UTF-8" standalone="no"?>
<!-- Created with Inkscape (http://www.inkscape.org/) -->

<svg
   version="1.1"
   id="svg2"
   width="666.66669"
   height="666.66669"
   viewBox="0 0 666.66669 666.66669"
   sodipodi:docname="3493065.eps"
   xmlns:inkscape="http://www.inkscape.org/namespaces/inkscape"
   xmlns:sodipodi="http://sodipodi.sourceforge.net/DTD/sodipodi-0.dtd"
   xmlns="http://www.w3.org/2000/svg"
   xmlns:svg="http://www.w3.org/2000/svg">
  <defs
     id="defs6" />
  <sodipodi:namedview
     id="namedview4"
     pagecolor="#ffffff"
     bordercolor="#000000"
     borderopacity="0.25"
     inkscape:showpageshadow="2"
     inkscape:pageopacity="0.0"
     inkscape:pagecheckerboard="0"
     inkscape:deskcolor="#d1d1d1" />
  <g
     id="g8"
     inkscape:groupmode="layer"
     inkscape:label="ink_ext_XXXXXX"
     transform="matrix(1.3333333,0,0,-1.3333333,0,666.66667)">
    <g
       id="g10"
       transform="scale(0.1)">
      <path
         d="M 0,0 H 5000 V 5000 H 0 Z"
         style="fill:#ffffff;fill-opacity:1;fill-rule:nonzero;stroke:none"
         id="path12" />
      <path
         d="m 15.707,733.5 c -10.90622,42.641 -16.86716,86.539 -17.72263,130.551 -0.57421,29.148 4.38672,63.777 30.39063,76.969 18.1758,9.218 41.0195,3.82 57.5391,-8.122 16.5239,-11.929 23.2229,-49.308 66.0979,-34.488 42.875,14.809 14.461,111.88 35.125,173.79 5.304,15.9 11.035,32.48 23.183,44.03 12.149,11.56 32.832,15.99 45.598,5.12 11.785,-10.04 12.398,-28.25 21.852,-40.51 16.199,-21.02 51.168,-15.06 70.562,3.05 19.391,18.11 28.977,44.1 43.52,66.29 34.535,52.68 111.347,102.62 162.964,74.48 51.625,-28.15 50.692,-120.01 24.848,-177.45 -10.887,-24.2 -27.644,-46.25 -32.48,-72.339 -4.84,-26.09 8.937,-58.769 35.367,-61.133 15.422,-1.379 31.109,7.903 45.91,3.364 16.027,-4.911 23.41,-24.743 20.203,-41.192 -3.203,-16.461 -14.101,-30.199 -24.652,-43.23 C 582.93,781.969 422.199,728.41 434.891,690.879 c 12.687,-37.527 107.164,-10.938 126.113,-18.449 18.945,-7.508 35.785,-23.86 37.785,-44.149 2.863,-29.011 -23.664,-51.812 -48.551,-67.011 -37.558,-22.938 -77.777,-41.528 -119.593,-55.258 -16.895,-5.551 -34.684,-10.672 -47.829,-22.653 -13.14,-11.98 -19.765,-33.359 -9.425,-47.828 16.132,-22.582 53.656,-9.679 77.445,-23.98 20.832,-12.512 24.031,-43.352 12.75,-64.879 -11.277,-21.531 -32.863,-35.5 -54.266,-47.024 C 283.734,232.109 137.438,217.41 -4.53516,204.02 l 0.14453,-2.399 0.16407,-1.973 -0.22657,-0.027 -0.14453,2.41 C -69.6641,328.922 -136.074,461.262 -146.668,603.461 c -1.805,24.238 -1.699,50.5 10.391,71.578 12.082,21.09 39.7692,35.25 61.5231,24.41 24.8476,-12.359 34.1328,-50.801 61.8476,-52.25 17.76177,-0.937 32.2149,16.211 35.2501,33.731 3.0351,17.531 -2.2344,35.34 -6.6368,52.57"
         style="fill:#f1453f;fill-opacity:1;fill-rule:nonzero;stroke:none"
         id="path14" />
      <path
         d="M 368.422,938.969 C 190.973,642.09 37.9023,331.551 -89.7188,10.1016 -93.6523,0.191406 -77.6445,-4.10938 -73.75,5.69141 53.3398,325.82 206.012,634.969 382.719,930.609 c 5.48,9.172 -8.828,17.512 -14.297,8.36"
         style="fill:#fcd567;fill-opacity:1;fill-rule:nonzero;stroke:none"
         id="path16" />
      <path
         d="m 49.1875,301.582 c 83.3355,8.188 162.9965,28.078 240.2385,60.559 9.676,4.058 5.426,20.089 -4.403,15.961 C 209.242,346.25 131.047,326.18 49.1875,318.129 c -10.5078,-1.027 -10.6172,-17.598 0,-16.547"
         style="fill:#fcd567;fill-opacity:1;fill-rule:nonzero;stroke:none"
         id="path18" />
      <path
         d="m 163.922,540.66 c 84.008,6.711 161.832,33.512 231.828,80.5 8.801,5.91 0.523,20.262 -8.359,14.301 -67.594,-45.379 -142.25,-71.75 -223.469,-78.242 -10.551,-0.84 -10.641,-17.41 0,-16.559"
         style="fill:#fcd567;fill-opacity:1;fill-rule:nonzero;stroke:none"
         id="path20" />
      <path
         d="m 274.738,743.301 c 59.18,10.269 114.633,31.09 166.02,62.129 9.113,5.5 0.797,19.832 -8.356,14.3 -50.355,-30.421 -104.152,-50.41 -162.066,-60.468 -10.481,-1.813 -6.039,-17.782 4.402,-15.961"
         style="fill:#fcd567;fill-opacity:1;fill-rule:nonzero;stroke:none"
         id="path22" />
      <path
         d="m 52.7422,313.398 c -42.90236,64.762 -74.9961,134.043 -96.5039,208.731 -2.9414,10.223 -18.9258,5.883 -15.9688,-4.399 21.8594,-75.898 54.543,-146.832 98.1758,-212.691 5.8594,-8.84 20.207,-0.559 14.2969,8.359"
         style="fill:#fcd567;fill-opacity:1;fill-rule:nonzero;stroke:none"
         id="path24" />
      <path
         d="m 172.105,557.082 c -37.636,62.227 -63.007,128.75 -76.5191,200.18 -1.9804,10.457 -17.9414,6.027 -15.9687,-4.403 13.7617,-72.73 39.8988,-140.82 78.1918,-204.14 5.504,-9.11 19.832,-0.789 14.296,8.363"
         style="fill:#fcd567;fill-opacity:1;fill-rule:nonzero;stroke:none"
         id="path26" />
      <path
         d="m 279.262,756.711 c -26.723,53.148 -38.043,109.691 -34.41,169.027 0.648,10.641 -15.911,10.602 -16.563,0 -3.805,-62.226 8.691,-121.726 36.672,-177.379 4.789,-9.527 19.078,-1.148 14.301,8.352"
         style="fill:#fcd567;fill-opacity:1;fill-rule:nonzero;stroke:none"
         id="path28" />
      <path
         d="m 462.16,153.07 c 11,42.621 26.938,83.961 47.391,122.922 13.551,25.817 34.59,53.77 63.73,52.797 20.367,-0.68 37.782,-16.43 46.504,-34.848 8.723,-18.421 -3.422,-54.402 41.285,-62.082 44.707,-7.679 66.598,91.071 114.539,135.352 12.317,11.371 25.325,23.141 41.536,27.398 16.214,4.27 36.476,-1.808 42.421,-17.488 5.489,-14.469 -2.753,-30.73 -0.382,-46.031 4.07,-26.219 37.578,-37.848 63.3,-31.328 25.719,6.519 46.641,24.668 70.082,37.097 55.644,29.52 147.014,36.25 178.684,-13.277 31.66,-49.543 -13.43,-129.582 -63.76,-167.453 -21.2,-15.957 -46.51,-27.207 -63.32,-47.731 -16.82,-20.5269 -20.5,-55.8082 1.52,-70.6089 12.85,-8.6407 31.07,-8.0782 41.85,-19.1797 11.68,-12.02737 8.59,-32.961 -2.15,-45.8399 -10.74,-12.8711 -26.92,-19.6601 -42.44,-25.9883 -60.434,-24.6328 -227.083,5.8985 -234.048,-33.0898 -6.968,-39.0004 88.625,-61.2304 101.61,-76.9494 12.976,-15.711 19.851,-38.152 11.828,-56.89 -11.477,-26.801 -45.711,-34 -74.84,-35.321 -43.965,-2 -88.16,1.11 -131.418,9.219 -17.48,3.281 -35.531,7.379 -52.82,3.211 -17.289,-4.16 -33.403,-19.699 -31.317,-37.359 3.254,-27.563 42.348,-34.352 56.301,-58.34 12.219,-21 0.156,-49.571 -20.101,-62.992 -20.258,-13.43 -45.907,-15.27 -70.207,-15.04 -142.59,1.352 -277.86,58.969 -408.708,115.68 l -0.332,-0.48 -0.113,-0.11 -0.211,0.09 0.336,0.469 c 4.149,142.551 9.399,289.6601 68.656,419.363 10.098,22.11 22.676,44.637 43.426,57.289 20.754,12.649 51.746,11.5 65.59,-8.48 15.805,-22.809 5.379,-61.071 28.957,-75.7112 15.109,-9.371 36.02,-1.3593 47.121,12.5312 11.106,13.891 15.059,31.981 19.5,49.199"
         style="fill:#5aba88;fill-opacity:1;fill-rule:nonzero;stroke:none"
         id="path30" />
      <path
         d="M 870.309,163.141 C 571.754,-11.4414 287.938,-209.738 21.207,-429.879 c -8.2265,-6.789 3.5469,-18.441 11.7071,-11.711 265.6519,219.25 548.4179,416.5705 845.7499,590.43 9.195,5.379 0.871,19.691 -8.355,14.301"
         style="fill:#fcd567;fill-opacity:1;fill-rule:nonzero;stroke:none"
         id="path32" />
      <path
         d="M 693.563,36.8789 C 750.637,17.3711 808.77,8.89063 869.039,11.2188 c 10.621,0.4101 10.676,16.9726 0,16.5625 -58.691,-2.2618 -115.508,6.0781 -171.074,25.0703 -10.11,3.4492 -14.445,-12.543 -4.402,-15.9727"
         style="fill:#fcd567;fill-opacity:1;fill-rule:nonzero;stroke:none"
         id="path34" />
      <path
         d="M 292.137,-233.078 C 285.871,-155.66 291.066,-79.5781 308.109,-3.75 310.441,6.62891 294.48,11.0586 292.141,0.648438 274.781,-76.5898 269.188,-154.109 275.578,-233.078 c 0.856,-10.551 17.418,-10.641 16.559,0"
         style="fill:#fcd567;fill-opacity:1;fill-rule:nonzero;stroke:none"
         id="path36" />
      <path
         d="m 514.168,-77.1016 c -2.855,72.6016 6.91,143.1211 29.363,212.2106 3.301,10.153 -12.683,14.512 -15.968,4.403 -22.965,-70.6722 -32.872,-142.37138 -29.954,-216.6136 0.418,-10.6172 16.977,-10.6797 16.559,0"
         style="fill:#fcd567;fill-opacity:1;fill-rule:nonzero;stroke:none"
         id="path38" />
      <path
         d="m 704.273,46.1719 c 2.137,59.5471 19.29,114.3671 51.207,164.6991 5.727,9.027 -8.597,17.348 -14.296,8.359 -33.336,-52.558 -51.239,-110.871 -53.469,-173.0581 -0.383,-10.6602 16.176,-10.6524 16.558,0"
         style="fill:#fcd567;fill-opacity:1;fill-rule:nonzero;stroke:none"
         id="path40" />
      <path
         d="m 4620.06,4639.99 c 33.3,-28.77 63.27,-61.4 89.11,-97.03 17.12,-23.6 32.83,-54.85 19.03,-80.53 -9.66,-17.96 -31.5,-26.57 -51.87,-26.21 -20.38,0.36 -47.23,27.21 -73.96,-9.44 -26.73,-36.65 52.04,-100.1 70.44,-162.71 4.73,-16.09 9.5,-32.97 6.13,-49.39 -3.38,-16.42 -17.82,-31.88 -34.51,-30.25 -15.4,1.51 -26.31,16.11 -41.08,20.78 -25.3,7.99 -50.59,-16.87 -56.17,-42.82 -5.57,-25.94 1.41,-52.75 2.14,-79.26 1.75,-62.97 -32.77,-147.84 -91.21,-154.23 -58.45,-6.38 -110.16,69.55 -121.76,131.46 -4.88,26.08 -3.73,53.76 -14.66,77.93 -10.93,24.18 -40.91,43.14 -63.95,29.98 -13.44,-7.68 -21.02,-24.26 -35.76,-28.99 -15.96,-5.12 -33.35,6.93 -40.12,22.27 -6.77,15.34 -5.67,32.85 -4.45,49.57 4.75,65.09 106.08,200.86 74.23,224.42 -31.85,23.55 -94.21,-52.24 -114.05,-56.9 -19.84,-4.66 -43,-0.85 -56.23,14.65 -18.93,22.18 -10.18,56.05 1.57,82.75 17.72,40.28 40.12,78.5 66.6,113.66 10.69,14.21 22.37,28.57 26.32,45.91 3.94,17.34 -2.83,38.68 -19.59,44.64 -26.14,9.33 -49.57,-22.7 -77.26,-24.55 -24.25,-1.63 -44.49,21.86 -47.53,45.98 -3.04,24.11 6.7,47.91 17.69,69.58 64.5,127.17 176.18,222.81 285.07,314.89 l -1.49,1.89 -1.27,1.53 0.18,0.15 1.49,-1.89 c 125.89,-66.99 255.99,-137.68 345.91,-248.35 15.33,-18.86 30.24,-40.48 32.36,-64.69 2.13,-24.21 -12.51,-51.65 -36.55,-55.18 -27.46,-4.04 -57.04,22.2 -80.62,7.57 -15.11,-9.38 -17.18,-31.72 -9.66,-47.83 7.52,-16.12 22.02,-27.73 35.48,-39.36"
         style="fill:#f1453f;fill-opacity:1;fill-rule:nonzero;stroke:none"
         id="path42" />
      <path
         d="m 4447.94,4269.22 c -23.95,345.05 -75.54,687.43 -154.39,1024.21 -2.43,10.37 -18.4,5.98 -15.97,-4.4 78.52,-335.35 129.95,-676.22 153.8,-1019.81 0.73,-10.58 17.29,-10.66 16.56,0"
         style="fill:#fcd567;fill-opacity:1;fill-rule:nonzero;stroke:none"
         id="path44" />
      <path
         d="m 4344.73,4974.45 c -63.66,-53.89 -117.87,-116.52 -162.26,-187.11 -5.68,-9.04 8.64,-17.36 14.3,-8.36 43.69,69.47 97.06,130.77 159.67,183.77 8.14,6.89 -3.62,18.55 -11.71,11.7"
         style="fill:#fcd567;fill-opacity:1;fill-rule:nonzero;stroke:none"
         id="path46" />
      <path
         d="m 4387.12,4712.67 c -65.14,-53.13 -113.42,-120.45 -143.65,-198.83 -3.83,-9.95 12.17,-14.26 15.97,-4.4 29.18,75.65 76.61,140.32 139.39,191.52 8.26,6.74 -3.51,18.4 -11.71,11.71"
         style="fill:#fcd567;fill-opacity:1;fill-rule:nonzero;stroke:none"
         id="path48" />
      <path
         d="m 4413.55,4484.55 c -42.72,-42.13 -76.56,-90.84 -100.93,-145.69 -4.29,-9.65 9.98,-18.09 14.3,-8.36 23.79,53.56 56.6,101.18 98.34,142.34 7.6,7.5 -4.11,19.2 -11.71,11.71"
         style="fill:#fcd567;fill-opacity:1;fill-rule:nonzero;stroke:none"
         id="path50" />
      <path
         d="m 4350.97,4963.19 c 71.48,-28.31 136.97,-66.7 196.6,-115.23 8.2,-6.66 19.98,4.99 11.71,11.72 -61.86,50.34 -129.76,90.11 -203.91,119.48 -9.91,3.92 -14.21,-12.09 -4.4,-15.97"
         style="fill:#fcd567;fill-opacity:1;fill-rule:nonzero;stroke:none"
         id="path52" />
      <path
         d="m 4390.21,4695.83 c 66.3,-29.42 125.57,-69.57 177.29,-120.45 7.61,-7.49 19.33,4.22 11.71,11.71 -52.69,51.83 -113.05,93.05 -180.64,123.04 -9.65,4.28 -18.09,-9.99 -8.36,-14.3"
         style="fill:#fcd567;fill-opacity:1;fill-rule:nonzero;stroke:none"
         id="path54" />
      <path
         d="m 4416.29,4470.76 c 52.22,-27.91 94.65,-68.12 125.14,-118.89 5.48,-9.13 19.8,-0.82 14.29,8.35 -31.86,53.07 -76.48,95.66 -131.07,124.84 -9.4,5.02 -17.77,-9.27 -8.36,-14.3"
         style="fill:#fcd567;fill-opacity:1;fill-rule:nonzero;stroke:none"
         id="path56" />
      <path
         d="m 3922.06,4861.39 c 15.31,-41.26 25.84,-84.29 31.31,-127.96 3.63,-28.93 2.33,-63.89 -22.15,-79.74 -17.11,-11.08 -40.39,-8.1 -58.07,2.04 -17.69,10.14 -28.27,46.61 -69.35,27.37 -41.09,-19.23 -2.65,-112.78 -16.71,-176.51 -3.61,-16.38 -7.56,-33.46 -18.43,-46.23 -10.88,-12.76 -30.98,-19.34 -44.82,-9.87 -12.77,8.74 -15.29,26.8 -25.97,38 -18.32,19.2 -52.47,9.6 -69.86,-10.44 -17.38,-20.04 -24.19,-46.89 -36.33,-70.49 -28.81,-56.01 -99.97,-113.73 -154.25,-91.16 -54.29,22.58 -63,114.03 -43.32,173.87 8.29,25.2 22.64,48.89 24.71,75.35 2.08,26.45 -15.05,57.51 -41.58,57.08 -15.48,-0.25 -30.11,-11.12 -45.3,-8.16 -16.46,3.21 -25.88,22.15 -24.42,38.85 1.46,16.7 10.86,31.51 19.99,45.57 35.53,54.74 189.76,124.87 173.2,160.86 -16.55,35.99 -107.72,-0.37 -127.35,5.11 -19.63,5.49 -38.09,19.99 -42.21,39.95 -5.89,28.55 18.1,54.01 41.26,71.74 34.94,26.75 72.99,49.45 113.13,67.49 16.22,7.3 33.38,14.25 45.19,27.54 11.81,13.29 16.16,35.25 4.36,48.56 -18.41,20.76 -54.37,4 -79.53,15.72 -22.03,10.27 -28.44,40.6 -19.48,63.19 8.95,22.59 30.63,38.76 50.7,52.45 117.81,80.34 263.22,110.31 403.22,138.5 v 0.59 l -0.1,0.14 0.1,0.06 v -0.59 c 70,-119.37 156.19,-243.11 181.64,-383.42 4.34,-23.91 6.11,-49.59 -3.7,-71.83 -9.8,-22.23 -36.29,-39 -59.06,-30.5 -26,9.69 -39.49,47.05 -67.2,45.59 -17.76,-0.93 -30.45,-19.45 -31.63,-37.19 -1.18,-17.74 5.82,-34.85 12.01,-51.53"
         style="fill:#5aba88;fill-opacity:1;fill-rule:nonzero;stroke:none"
         id="path58" />
      <path
         d="m 3592.44,4619.3 c 145.32,313.84 265.2,638.65 358.4,971.72 2.88,10.28 -13.09,14.66 -15.97,4.4 -92.81,-331.69 -212,-655.21 -356.73,-967.77 -4.45,-9.6 9.82,-18.02 14.3,-8.35"
         style="fill:#fcd567;fill-opacity:1;fill-rule:nonzero;stroke:none"
         id="path60" />
      <path
         d="m 3753.1,5037.38 c -82.8,-15.39 -157.2,-50.89 -221.72,-104.94 -8.18,-6.85 3.59,-18.51 11.71,-11.71 62.44,52.32 134.37,85.81 214.41,100.68 10.46,1.94 6.03,17.9 -4.4,15.97"
         style="fill:#fcd567;fill-opacity:1;fill-rule:nonzero;stroke:none"
         id="path62" />
      <path
         d="m 3666.31,4824.76 c -57.78,-16.37 -110.83,-42.68 -158.69,-79 -8.39,-6.36 -0.14,-20.74 8.35,-14.3 46.74,35.47 98.26,61.33 154.74,77.33 10.23,2.9 5.88,18.89 -4.4,15.97"
         style="fill:#fcd567;fill-opacity:1;fill-rule:nonzero;stroke:none"
         id="path64" />
      <path
         d="m 3747.54,5021.16 c 43.92,-57.81 76.42,-121.35 97.29,-190.95 3.06,-10.18 19.04,-5.84 15.97,4.41 -21.24,70.84 -54.2,135.98 -98.96,194.9 -6.37,8.38 -20.75,0.14 -14.3,-8.36"
         style="fill:#fcd567;fill-opacity:1;fill-rule:nonzero;stroke:none"
         id="path66" />
      <path
         d="m 3661.91,4811.39 c 32.23,-50.04 49.83,-104.82 52.38,-164.34 0.45,-10.61 17.02,-10.67 16.56,0 -2.66,62.18 -20.94,120.37 -54.64,172.7 -5.75,8.93 -20.09,0.64 -14.3,-8.36"
         style="fill:#fcd567;fill-opacity:1;fill-rule:nonzero;stroke:none"
         id="path68" />
      <path
         d="M 1970.66,946.879 1747.42,420 h -26.29 l 168.21,602.5 81.32,-75.621"
         style="fill:#e68d3f;fill-opacity:1;fill-rule:nonzero;stroke:none"
         id="path70" />
      <path
         d="M 2288.76,946.879 2512,420 h 26.29 l -168.21,602.5 -81.32,-75.621"
         style="fill:#e68d3f;fill-opacity:1;fill-rule:nonzero;stroke:none"
         id="path72" />
      <path
         d="m 2572.5,1132.5 c 237.5,-80 -64.21,-351.012 -354.21,-372.449 -290,-21.449 -531.16,171.32 -696.55,505.979 -165.38,334.65 -177.97,797.99 304.29,605.28 482.26,-192.71 471.11,-794.03 471.11,-794.03 l 275.36,55.22"
         style="fill:#192e3b;fill-opacity:1;fill-rule:nonzero;stroke:none"
         id="path74" />
      <path
         d="m 1430.43,409.891 147.39,-1.711 36.4,290.492 -213.44,2.476 29.65,-291.257"
         style="fill:#fab652;fill-opacity:1;fill-rule:nonzero;stroke:none"
         id="path76" />
      <path
         d="m 1420.93,480.719 -14.54,149.691 200.58,-2.32 -18.01,-149.32 -168.03,1.949"
         style="fill:#e68d3f;fill-opacity:1;fill-rule:nonzero;stroke:none"
         id="path78" />
      <path
         d="m 1404.44,678.359 205.6,-2.379 c 5.52,-0.07 10.05,4.36 10.11,9.879 l 0.42,36.332 c 0.07,5.52 -4.36,10.051 -9.88,10.11 l -205.6,2.39 c -5.52,0.059 -10.05,-4.359 -10.11,-9.89 l -0.42,-36.321 c -0.07,-5.531 4.36,-10.05 9.88,-10.121"
         style="fill:#fce486;fill-opacity:1;fill-rule:nonzero;stroke:none"
         id="path80" />
      <path
         d="m 1472.71,554.59 c 0,18.769 15.21,33.969 33.97,33.969 18.76,0 33.97,-15.2 33.97,-33.969 0,-18.758 -15.21,-33.969 -33.97,-33.969 -18.76,0 -33.97,15.211 -33.97,33.969"
         style="fill:#ffffff;fill-opacity:1;fill-rule:nonzero;stroke:none"
         id="path82" />
      <path
         d="m 2644.26,2710.02 c 161.4,0 281.6,-150.81 241.14,-319.2 -24.02,-100 -110.26,-172.44 -212.26,-185.54 -87.85,-11.28 -154.87,19.03 -208.3,73.28 l -64.45,-91.83 v 287.4 c 0,131.73 109.78,235.89 243.87,235.89"
         style="fill:#8ab3e3;fill-opacity:1;fill-rule:nonzero;stroke:none"
         id="path84" />
      <path
         d="m 2591.78,2357.5 h 143.02 c 17.28,0 31.29,14.01 31.29,31.29 v 92.36 c 0,17.28 -14.01,31.29 -31.29,31.29 h -26.82 l 4.93,8.42 c 9.06,15.49 13.84,33.12 13.84,51.08 v 5.04 c 0,13.16 -10.67,23.83 -23.83,23.83 -12.98,0 -23.58,-10.4 -23.82,-23.38 -0.11,-11.88 -4.37,-23.35 -12.05,-32.41 -12.3,-14.52 -30.37,-22.89 -49.4,-22.89 h -25.87 V 2357.5"
         style="fill:#ffffff;fill-opacity:1;fill-rule:nonzero;stroke:none"
         id="path86" />
      <path
         d="m 2577,2351.26 h -32.9 c -14.1,0 -25.53,11.44 -25.53,25.54 v 130.85 c 0,14.1 11.43,25.53 25.53,25.53 h 32.9 c 14.1,0 25.53,-11.43 25.53,-25.53 V 2376.8 c 0,-14.11 -11.43,-25.54 -25.53,-25.54"
         style="fill:#192e3b;fill-opacity:1;fill-rule:nonzero;stroke:none"
         id="path88" />
      <path
         d="m 3683.34,3761.05 c 126.31,0 226.33,-102.39 226.33,-228.7 0,-126.3 -103.58,-228.7 -229.88,-228.7 -63.76,0 -117.24,26.12 -158.7,68.22 L 3460,3289.03 v 259.24 c 0,118.82 102.4,212.78 223.34,212.78"
         style="fill:#f1453f;fill-opacity:1;fill-rule:nonzero;stroke:none"
         id="path90" />
      <path
         d="m 3687.52,3430.71 -101.43,101.43 c -19.85,19.85 -19.85,52.03 0,71.89 19.85,19.85 52.04,19.85 71.89,0 l 29.54,-29.54 29.54,29.54 c 19.85,19.85 52.04,19.85 71.89,0 19.85,-19.86 19.85,-52.04 0,-71.89 l -101.43,-101.43"
         style="fill:#f1453f;fill-opacity:1;fill-rule:nonzero;stroke:none"
         id="path92" />
      <path
         d="m 3683.34,3761.05 c 126.31,0 226.33,-102.39 226.33,-228.7 0,-126.3 -103.58,-228.7 -229.88,-228.7 -63.76,0 -117.24,26.12 -158.7,68.22 L 3460,3289.03 v 259.24 c 0,118.82 102.4,212.78 223.34,212.78"
         style="fill:#f1453f;fill-opacity:1;fill-rule:nonzero;stroke:none"
         id="path94" />
      <path
         d="m 3687.52,3430.71 -101.43,101.43 c -19.85,19.85 -19.85,52.03 0,71.89 19.85,19.85 52.04,19.85 71.89,0 l 29.54,-29.54 29.54,29.54 c 19.85,19.85 52.04,19.85 71.89,0 19.85,-19.86 19.85,-52.04 0,-71.89 l -101.43,-101.43"
         style="fill:#ffffff;fill-opacity:1;fill-rule:nonzero;stroke:none"
         id="path96" />
      <path
         d="m 1872.93,4727.11 c -136.73,0 -238.55,-127.75 -204.28,-270.4 20.35,-84.71 93.4,-146.07 179.81,-157.17 74.42,-9.56 131.19,16.12 176.45,62.08 l 54.6,-77.79 v 243.46 c 0,111.59 -93,199.82 -206.58,199.82"
         style="fill:#5aba88;fill-opacity:1;fill-rule:nonzero;stroke:none"
         id="path98" />
      <path
         d="m 1939.84,4434.4 v -16.07 h -111.3 v 16.07 c 0,3.89 1.87,6.23 5.63,7.03 1.86,0.34 13.58,1.34 35.13,3 v 116.93 c 0,4.55 0.14,9.32 0.42,14.34 l -28.94,-24.22 c -1.21,-1.02 -2.44,-1.71 -3.69,-2.08 -1.25,-0.38 -2.48,-0.56 -3.69,-0.56 -1.86,0 -3.55,0.39 -5.07,1.18 -1.53,0.79 -2.67,1.69 -3.41,2.71 l -10.86,14.89 61.36,52.18 h 28.25 v -175.72 c 18.64,-1.46 28.82,-2.34 30.55,-2.65 3.75,-0.8 5.63,-3.15 5.62,-7.03"
         style="fill:#ffffff;fill-opacity:1;fill-rule:nonzero;stroke:none"
         id="path100" />
      <path
         d="m 1377.37,4045.45 c 120.28,0 209.85,-112.38 179.7,-237.87 -17.9,-74.52 -82.16,-128.5 -158.17,-138.26 -65.47,-8.41 -115.41,14.18 -155.23,54.61 l -48.03,-68.43 v 214.17 c 0,98.16 81.81,175.78 181.73,175.78"
         style="fill:#fbc948;fill-opacity:1;fill-rule:nonzero;stroke:none"
         id="path102" />
      <path
         d="m 1385.24,3940.83 22.29,-45.18 49.86,-7.24 c 5.43,-0.79 7.6,-7.47 3.67,-11.3 l -36.08,-35.16 8.52,-49.66 c 0.92,-5.4 -4.75,-9.53 -9.61,-6.97 l -44.59,23.44 -44.59,-23.44 c -4.86,-2.56 -10.53,1.57 -9.61,6.97 l 8.52,49.66 -36.08,35.16 c -3.93,3.83 -1.76,10.51 3.67,11.3 l 49.86,7.24 22.29,45.18 c 2.43,4.92 9.45,4.92 11.88,0"
         style="fill:#ffffff;fill-opacity:1;fill-rule:nonzero;stroke:none"
         id="path104" />
      <path
         d="m 930.598,4437.51 c -112.844,57.53 -297.684,10.98 -282.868,-129.91 12.243,-116.38 282.196,-146.78 282.196,-146.78 0,0 -4.391,-134.34 -24.465,-183.55 -4.731,-11.59 7.887,-22.45 18.769,-16.28 32.981,18.73 81.25,56.17 116.15,126.28 58.11,116.71 45.22,271.21 -109.782,350.24"
         style="fill:#192e3b;fill-opacity:1;fill-rule:nonzero;stroke:none"
         id="path106" />
      <path
         d="m 991.23,2777.07 c 0,0 -68.257,314.7 -98.375,464.91 l -372.89,32.74 c 0,0 -32.063,-73.55 -37.465,-189.72 -5,-107.5 40.961,-221.03 59.281,-360.76 0.551,-6.21 1.098,-12.55 1.637,-19.01 2.816,-31.25 5.594,-65.11 7.816,-100.86 2.504,-35.77 5.032,-73.49 6.645,-112.39 1.738,-38.92 23.789,-236.98 -5.121,-286.23 -10.043,-17.11 -91.004,-116.77 -118.57,-287.56 -3.625,-36.16 -10.333,-105.26 -10.211,-123.64 0.539,-36.75 1.898,-57.95 1.898,-57.95 1.078,-16.24 11.781,-31.05 28.18,-36.48 21.605,-7.14 44.906,4.58 52.05,26.18 0,0 6.618,19.93 16.723,55.09 4.91,17.58 8.918,39.55 17.328,63.44 48.176,136.84 158.176,281.84 181.832,378.15 l 2.825,9.85 0.695,2.48 0.347,1.23 c -0.175,-1.09 0.04,0.1 0.254,1.29 0.164,0.93 0.332,1.86 0.309,1.69 l 0.121,0.47 0.981,3.78 c 1.289,5.27 2.628,9.58 3.882,15.62 l 7.2,34.48 c 4.179,20.77 8.343,41.46 12.476,61.98 7.66,40.77 16.438,80.62 24.18,119.21 4.316,21.77 8.789,43.05 13.254,63.85 4.886,-19.7 9.742,-39.84 14.402,-60.42 8.723,-37.96 18.231,-77.11 26.164,-116.88 3.981,-19.72 7.996,-39.59 12.024,-59.54 l 5.398,-26.67 c 0.922,-4.16 1.547,-10.05 2.34,-14.99 l 0.562,-3.87 0.075,-0.48 c 0.011,-0.32 0.011,0.49 0.007,1.3 -0.004,1.02 -0.007,2.05 0.008,0.76 l 0.063,-0.66 0.121,-1.33 0.543,-5.34 c 1.258,-15.53 -0.129,-35.46 -2.461,-54.93 -2.563,-19.68 -4.93,-39.99 -9.582,-60.07 -36.508,-157.46 18.722,-347.25 22.156,-365.3 7.148,-36.06 12.309,-56.67 12.309,-56.67 3.988,-15.77 17.179,-28.41 34.289,-30.8 22.539,-3.13 24.933,14.44 28.07,36.98 l 51.668,316.67 c 0,0 3.477,36.16 7.855,76.3 2.028,20.14 4.965,40.68 7.987,61.92 3.13,21.45 7.11,42.69 10.33,68.58 l 1,10.2 0.23,2.56 0.12,1.28 c 0.03,-1.1 0.03,0.1 0.02,1.31 0,0.95 -0.01,1.9 0,1.72 l 0.03,0.49 0.29,3.9 c 0.32,5.41 0.86,9.89 1,16.06 l 0.87,35.21 c 0.37,21.18 0.74,42.28 1.1,63.21 0.2,41.49 2.31,82.26 2.31,121.61 0.01,165.62 -28.9,266.74 -28.58,276.05"
         style="fill:#f1453f;fill-opacity:1;fill-rule:nonzero;stroke:none"
         id="path108" />
      <path
         d="m 863.574,3771.2 c 0,0 0.801,-3.6 2.301,-10.35 1.598,-7.45 3.813,-17.64 6.281,-30.72 4.852,-26.14 10.907,-63 17.434,-106.28 6.379,-43.28 13.109,-93.21 22.004,-144.72 4.621,-25.68 9.457,-51.83 15.832,-76.99 6.312,-25.05 14.023,-49.51 23.164,-69.09 4.531,-9.77 9.555,-17.93 13.961,-23.54 4.508,-5.72 7.676,-8.06 9.617,-9.35 l 0.047,-0.04 c 1.113,-0.37 -1.492,0.47 -1.082,0.33 l 0.625,-0.25 1.25,-0.5 2.496,-1 4.984,-2 6.961,-2.71 c 5.164,-1.83 10.871,-3.65 16.521,-5.25 11.35,-3.53 23.27,-6.25 35.34,-8.84 24.14,-5.39 49.08,-8.74 73.13,-11.34 24.09,-2.44 47.44,-4.51 69.16,-5.27 21.74,-1.15 41.84,-1.19 59.84,-1.76 17.98,-0.84 33.54,5.68 46.78,6.78 13.19,1.39 23.89,-0.48 31.03,-3.14 7.23,-2.62 10.94,-5.59 10.94,-5.59 14.85,-11.87 17.26,-33.53 5.39,-48.38 -1.77,-2.21 -3.76,-4.14 -5.9,-5.8 l -1.96,-1.47 c 0,0 -3.56,-2.71 -9.97,-4.91 -6.49,-2.45 -15.8,-3.99 -28.08,-3.19 -12.21,0.58 -27.56,5.91 -45,3.23 -17.43,-2.39 -37.27,-4.89 -59.11,-8.43 -21.88,-3.13 -45.77,-7.5 -71.7,-10.75 -25.94,-3.33 -53.84,-6.15 -84.06,-6.65 -30.15,-0.19 -62.659,2.22 -97.581,11.98 -25.235,8.09 -46.055,23.36 -61.156,38.89 -15.293,15.69 -26.481,32 -35.688,47.85 -18.355,31.8 -29.809,62.69 -39.543,92.57 -9.562,29.88 -17.281,58.75 -23.602,86.52 -12.832,55.46 -21.812,106.22 -29.66,149.07 -7.48,42.9 -13.82,77.74 -18.765,101.58 -2.391,11.72 -4.27,20.93 -5.551,27.2 -1.434,6.57 -2.199,10.08 -2.199,10.08 l -0.039,0.18 c -8.782,40.21 16.699,79.93 56.91,88.71 40.211,8.78 79.871,-16.45 88.648,-56.66"
         style="fill:#e68d3f;fill-opacity:1;fill-rule:nonzero;stroke:none"
         id="path110" />
      <path
         d="m 991.23,3342.4 c 3.938,0.19 6.747,-0.15 9.02,-0.59 -3.008,0.2 -5.992,0.4 -9.02,0.59"
         style="fill:#f9ab97;fill-opacity:1;fill-rule:nonzero;stroke:none"
         id="path112" />
      <path
         d="m 883.371,3378.93 c -11.848,83.43 -15.871,167.93 -8.211,251.83 2.067,22.6 0.574,44.61 -5.527,57.91 0,0 -11.981,20.3 -24.867,49.48 10.472,5.05 20.683,10.36 30.461,16.14 -7.946,36.21 -14.133,66.89 -18.461,89.18 -5.102,25.72 -8.016,40.41 -8.016,40.41 l -0.352,1.78 c -8.468,42.69 -47.984,71.3 -90.418,67.05 -16.562,1.23 -36.054,-0.22 -59.003,-4.93 l -97.243,1.79 c -71.589,-16.69 -99.023,-22.8 -145.863,-60.15 -50.066,-39.92 -48.914,-103.16 -16.445,-227.54 32.472,-124.37 45.465,-511.76 40.574,-551.88 7.5,-50 107.5,-85 217.5,-87.5 110,-2.5 195,30 227.5,70 -6.465,38.35 -41,282.01 -41.629,286.43"
         style="fill:#fbc948;fill-opacity:1;fill-rule:nonzero;stroke:none"
         id="path114" />
      <path
         d="m 1006.38,4175.18 c 24.93,92.91 -13.067,161.24 -114.036,201.35 -60.18,23.9 -128.672,13.08 -181.114,-24.91 l -7.57,-5.49 c -43.359,-31.4 -77.597,-95.75 -82.68,-149.04 l 24.93,-133.93 -65.539,-123.19 c 0,0 95.106,-89.31 152.34,-33.77 l 27.797,80.7 c 0,0 47.597,-45.91 98.644,-40.43 26.703,2.87 96.332,39.11 147.228,228.71"
         style="fill:#e68d3f;fill-opacity:1;fill-rule:nonzero;stroke:none"
         id="path116" />
      <path
         d="m 1441.59,3226.32 -440.85,31.86 4.32,59.84 401.42,-29.01 42.81,25.23 -7.7,-87.92"
         style="fill:#bbd1d7;fill-opacity:1;fill-rule:nonzero;stroke:none"
         id="path118" />
      <path
         d="m 1441.59,3226.32 -35.11,62.69 145.3,290.85 c 10.35,20.72 35.65,28.96 56.21,18.31 l 15.89,-8.22 -182.29,-363.63"
         style="fill:#192e3b;fill-opacity:1;fill-rule:nonzero;stroke:none"
         id="path120" />
      <path
         d="m 757.211,3281.56 0.723,0.04 c 1.89,0.02 3.675,-0.12 5.226,-0.33 l -3.551,0.07 -3.144,0.08 -1.574,0.04 -0.395,0.02 c -2.652,-0.06 3.102,0.08 2.715,0.08 z m -282.359,331.19 c 10.691,-29.6 91.086,-256.77 104.867,-287.84 14.777,-32.91 31.047,-66.12 54.929,-100.78 12.454,-17.32 25.825,-35.42 50.125,-54.14 12.368,-9.06 28.727,-19.07 51.942,-23.46 5.691,-1.05 11.746,-1.68 17.887,-1.73 l 2.296,-0.02 c -0.125,0 5.887,0.14 3.497,0.1 l 0.39,0.04 1.563,0.18 3.125,0.36 6.718,0.8 10.457,1.56 c 7.536,1.1 12.372,2.51 17.938,3.86 5.605,1.28 10.441,3.02 15.59,4.57 10.031,3.2 19.285,7.07 28.043,10.97 17.535,7.81 33.199,16.2 47.781,24.89 29.109,17.23 54.691,34.15 78.848,49.11 24.086,15.03 46.572,28.22 67.902,37.93 21.22,10.11 41.13,16.55 58.72,20.54 8.86,1.81 17.31,1.11 24.82,-0.26 3.69,-0.74 7.23,-1.45 10.61,-2.13 3.3,-0.84 6.4,-1.54 9.36,-1.88 11.64,-2.15 20.83,-1.98 27.78,-0.95 6.81,0.72 11.24,2.66 11.24,2.66 l 7.04,3.07 c 18.19,7.94 26.49,29.12 18.55,47.31 -1.44,3.29 -3.42,6.38 -5.63,8.98 0,0 -3.69,4.32 -12.11,9.5 -8.35,5.18 -22.02,10.2 -39.88,10.89 -17.99,1.04 -38.83,-5.69 -61.78,-8.04 -23.27,-1.82 -48.73,-6.82 -75.37,-13.73 -26.623,-7.07 -54.655,-15.89 -83.08,-25.94 -28.454,-9.94 -57.45,-21.14 -86,-30.51 -14.278,-4.53 -28.258,-8.97 -41.477,-12.21 -6.609,-1.65 -13.023,-2.8 -18.949,-3.85 -2.887,-0.36 -5.985,-1.06 -8.578,-1.13 -1.551,-0.11 -3.297,-0.29 -4.661,-0.36 -2.964,3.5 -9.269,11.8 -14.593,21.33 -12.86,22.32 -24.774,51.06 -35.446,79.69 -10.679,28.89 -19.964,58.68 -28.613,87.82 -1.117,3.79 -70.598,204.33 -71.687,208.1 -43.286,-31.6 -92.407,-55.41 -144.164,-65.3"
         style="fill:#e68d3f;fill-opacity:1;fill-rule:nonzero;stroke:none"
         id="path122" />
      <path
         d="m 760.508,3986.9 -39.938,37.25 c 0,0 17.36,-46.86 31.243,-60.75 l 8.695,23.5"
         style="fill:#e97a22;fill-opacity:1;fill-rule:nonzero;stroke:none"
         id="path124" />
      <path
         d="m 803.332,2485 -14.82,53.91 v 0 0 c -1.844,14.42 26.488,227.76 34.82,414.42 13.336,-16.66 -2.5,-412.08 -20,-468.33"
         style="fill:#e53f3c;fill-opacity:1;fill-rule:nonzero;stroke:none"
         id="path126" />
      <path
         d="m 635.531,1606.24 c -1.254,8.58 -7.527,15.58 -15.926,17.76 l -15.25,3.62 c -45.558,10.82 -85.972,48.86 -95.14,94.01 6.789,25.18 53.305,193.8 104.117,280.04 l -130,83.33 c 0,0 -82.957,-134.25 -58.977,-327.12 l -22.753,-77.5 c -6.09,-28.04 11.711,-55.71 39.75,-61.8 l 168.261,-36.53 c 14.715,-3.2 28.094,9.29 25.918,24.19"
         style="fill:#192e3b;fill-opacity:1;fill-rule:nonzero;stroke:none"
         id="path128" />
      <path
         d="m 1102.35,1623.38 c -2.78,8.22 -10.21,13.97 -18.86,14.6 l -15.66,0.81 c -49.3,2.57 -98.369,35.96 -112.978,82.44 3.894,67.08 15.375,238.39 35.148,322.1 l -163.332,23.34 c 0,0 -28.336,-158.34 40.039,-337.93 l -7.812,-74.59 c -0.938,-28.68 21.554,-52.69 50.234,-53.62 l 172.091,-5.62 c 15.05,-0.49 25.96,14.21 21.13,28.47"
         style="fill:#192e3b;fill-opacity:1;fill-rule:nonzero;stroke:none"
         id="path130" />
      <path
         d="m 803.332,4488.33 c 126.195,10.92 279.998,-101.66 213.338,-226.66 -55.072,-103.26 -316.67,-30 -316.67,-30 0,0 -46.41,-126.15 -46.289,-179.29 0.027,-12.52 -15.746,-17.85 -23.512,-8.04 -23.531,29.75 -54.191,82.57 -60.199,160.66 -10,130 60,268.33 233.332,283.33"
         style="fill:#192e3b;fill-opacity:1;fill-rule:nonzero;stroke:none"
         id="path132" />
      <path
         d="m 724.168,4200 c 0,-21.63 -17.535,-39.17 -39.168,-39.17 -21.633,0 -39.168,17.54 -39.168,39.17 0,21.63 17.535,39.17 39.168,39.17 21.633,0 39.168,-17.54 39.168,-39.17"
         style="fill:#e68d3f;fill-opacity:1;fill-rule:nonzero;stroke:none"
         id="path134" />
      <path
         d="m 906.07,4016.98 c 4.762,-1.88 5.809,-8.49 1.551,-11.34 -12.449,-8.32 -28.594,-10.64 -43.582,-4.72 -14.723,5.81 -24.828,18.19 -28.414,32.44 -1.332,5.31 3.652,9.99 8.738,7.98 l 61.707,-24.36"
         style="fill:#ffffff;fill-opacity:1;fill-rule:nonzero;stroke:none"
         id="path136" />
      <path
         d="m 3997.15,2406.24 -159.01,99.8 -86.62,-272.3 c 0,0 -38.7,31.08 -58.98,51.78 -20.38,20.69 -39.71,41.61 -57.76,61.84 -18.07,20.23 -34.39,40.13 -49.21,58.72 -7.3,9.4 -14.29,18.4 -20.94,26.97 -6.7,8.54 -12.83,16.82 -17.28,25.44 -8.76,17.36 -14.43,33.69 -22.15,45.17 -7.28,11.75 -14.97,19.75 -21.02,24.69 -5.94,5.04 -10.14,6.93 -10.14,6.93 l -1.8,0.83 c -4.42,1.97 -9.3,3.1 -14.45,3.18 -20.36,0.3 -37.11,-15.95 -37.41,-36.3 0,0 -0.08,-4.97 1.85,-12.73 1.81,-7.84 5.73,-18.57 13.41,-30.51 7.24,-12.22 19.89,-24.58 32.47,-39.92 6.22,-7.72 11.51,-16.79 16.95,-26.47 5.6,-9.59 11.48,-19.68 17.61,-30.2 12.41,-21.11 25.85,-43.99 40.06,-68.18 14.34,-24.29 29.93,-49.78 47.17,-75.91 17.4,-26.06 35.93,-53.05 58.41,-79.71 11.42,-13.22 23.46,-26.72 38.15,-39.79 7.41,-6.55 27.8,-33.38 65.16,-36.65 37.35,-3.27 65.31,16.14 105.35,61.64 40.04,45.5 120.18,281.68 120.18,281.68"
         style="fill:#e68d3f;fill-opacity:1;fill-rule:nonzero;stroke:none"
         id="path138" />
      <path
         d="m 3550.19,2422.02 -73.18,30.26 c -6.18,2.55 -10.62,8.09 -11.77,14.67 l -33.48,191.56 c -2.64,15.16 12.47,27.28 26.69,21.4 l 73.18,-30.26 c 6.17,-2.55 10.62,-8.09 11.77,-14.68 l 33.47,-191.56 c 2.65,-15.15 -12.46,-27.27 -26.68,-21.39"
         style="fill:#192e3b;fill-opacity:1;fill-rule:nonzero;stroke:none"
         id="path140" />
      <path
         d="m 3499.13,2611.97 c 1.58,-8.56 -0.82,-15.4 -6.62,-16.47 -5.79,-1.06 -10.65,7.37 -12.23,15.93 -1.57,8.56 0.73,14 6.52,15.07 5.8,1.07 10.76,-5.97 12.33,-14.53"
         style="fill:#ffffff;fill-opacity:1;fill-rule:nonzero;stroke:none"
         id="path142" />
      <path
         d="m 3440.38,2502.99 c -7.06,33.78 21.29,59.51 36.29,54.51 15,-5 25.83,-38.33 33.33,-57.5 7.5,-19.17 -35,-18.33 -24.17,-58.33 0,0 -34.24,7.64 -45.45,61.32"
         style="fill:#e68d3f;fill-opacity:1;fill-rule:nonzero;stroke:none"
         id="path144" />
      <path
         d="m 3853.8,406.219 c 2.74,8.101 10.06,13.761 18.58,14.383 l 42.9,0.808 c 46.16,2.391 85.42,32.512 100.5,74.84 -1.88,12.699 -3.51,25.398 -5.23,38.102 h 109.7 c -0.53,-13.93 -0.71,-28.012 -1.01,-42.032 l 1.82,-55.789 c 0.92,-28.25 -21.23,-51.89 -49.47,-52.812 l -196.98,-5.528 c -14.82,-0.48 -25.56,13.989 -20.81,28.028"
         style="fill:#192e3b;fill-opacity:1;fill-rule:nonzero;stroke:none"
         id="path146" />
      <path
         d="m 3853.8,406.219 c 2.74,8.101 10.06,13.761 18.58,14.383 l 42.9,0.808 c 46.16,2.391 85.42,32.512 100.5,74.84 -1.88,12.699 -3.51,25.398 -5.23,38.102 h 109.7 c -0.53,-13.93 -0.71,-28.012 -1.01,-42.032 l 1.82,-55.789 c 0.92,-28.25 -21.23,-51.89 -49.47,-52.812 l -196.98,-5.528 c -14.82,-0.48 -25.56,13.989 -20.81,28.028"
         style="fill:#192e3b;fill-opacity:1;fill-rule:nonzero;stroke:none"
         id="path148" />
      <path
         d="m 4160.92,421.43 42.91,0.59 c 52.97,2.039 97.39,40.652 106.8,92.812 l 0.47,-0.023 c -1.25,6.511 -2.31,13.031 -3.52,19.543 h 104.5 c -0.8,-17.11 -1.35,-34.243 -1.35,-51.383 v -0.09 l -0.94,-0.027 0.46,-48.473 c 0.55,-28.258 -22.15,-51.598 -50.41,-52.137 l -197.15,-3.254 c -14.83,-0.277 -25.43,14.332 -20.49,28.313 2.85,8.058 10.19,13.621 18.72,14.129"
         style="fill:#192e3b;fill-opacity:1;fill-rule:nonzero;stroke:none"
         id="path150" />
      <path
         d="m 4212.03,1743.21 c -4.92,-31.67 -10.7,-63.79 -15.69,-95.77 -31.82,-203.78 -57.85,-365.01 -44.17,-500.75 13.68,-135.74 -15.1,-689.87 -15.1,-689.87 -62.14,-12.351 -165.14,5.071 -165.14,5.071 0,0 -42.22,570.739 -48.69,753.059 -6.48,182.31 -10.66,403.4 -14.27,507.11 -0.32,9.32 -0.39,22.24 -0.3,37.13 101.03,-16.56 202.08,-22.75 303.36,-15.98"
         style="fill:#73ca9c;fill-opacity:1;fill-rule:nonzero;stroke:none"
         id="path152" />
      <path
         d="m 4158.71,1385 c 8.87,79.18 22.57,166 37.63,262.44 4.99,31.98 10.77,64.1 15.69,95.77 -37.87,-2.53 -75.71,-3.24 -113.52,-2.29 21.29,-118.43 40.95,-237.14 60.2,-355.92"
         style="fill:#5aba88;fill-opacity:1;fill-rule:nonzero;stroke:none"
         id="path154" />
      <path
         d="m 4460.89,1787.16 c 2.54,-59.19 -4.56,-107.09 -8.63,-143.56 -23.03,-206.08 -42.11,-369.15 -22.39,-505.07 19.72,-135.92 4.62,-692.811 4.62,-692.811 -61.92,-14.821 -166.23,-1.278 -166.23,-1.278 0,0 -57,570.829 -71.52,753.849 -14.52,183.02 -28.45,405.1 -36.63,509.21 -0.93,11.8 -2,22.75 -3.14,33.29 101.05,2.16 202.28,16.8 303.92,46.37"
         style="fill:#73ca9c;fill-opacity:1;fill-rule:nonzero;stroke:none"
         id="path156" />
      <path
         d="m 4378.66,2702.49 c -115.13,24.14 -112.76,152.73 -112.76,152.73 l -71.76,-38.49 -78.63,-2.43 c 0,0 10.59,-99.95 -106.99,-103.51 -38.21,-1.15 -114.88,-125.26 -114.88,-125.26 h 539.16 c 0,0 -34,112.74 -54.14,116.96"
         style="fill:#e68d3f;fill-opacity:1;fill-rule:nonzero;stroke:none"
         id="path158" />
      <path
         d="m 4476.25,2362.5 143.75,71.25 c -31.97,142.72 -94.01,188.59 -148.93,229.98 -55.58,41.89 -124.76,51.27 -124.76,51.27 0,0 -41.48,-80 -164.64,-80 -123.17,0 -138.16,80.38 -138.16,80.38 0,0 -119.66,4.93 -169.29,-43.87 -49.64,-48.79 -78.37,-121.93 -108.68,-231.78 l 141.54,-55.96 -24.91,-665.78 c 0,0 105.72,-43.84 282.19,-43.84 225.34,0 315.89,36.21 315.89,36.21 l -4,652.14"
         style="fill:#fbc948;fill-opacity:1;fill-rule:nonzero;stroke:none"
         id="path160" />
      <path
         d="m 3952.08,3044.55 c 6.89,98.21 66.46,151.63 177.53,156.73 66.2,3.04 128.85,-30.3 166.91,-84.56 l 5.49,-7.83 c 31.47,-44.86 43.11,-118.54 30.24,-171.79 l -70.76,-112.62 21.57,-148.5 c 0,0 -119.18,-55.85 -156,16.99 l 0.04,87.35 c 0,0 -61.38,-28.52 -108.93,-6.18 -24.88,11.68 -80.14,69.99 -66.09,270.41"
         style="fill:#e68d3f;fill-opacity:1;fill-rule:nonzero;stroke:none"
         id="path162" />
      <path
         d="m 4463.75,2366.25 c 0,0 -1.64,-92.73 -1.94,-108.22 -1.06,-40.79 -1.77,-88.41 -1.93,-139.46 -0.04,-12.76 -0.08,-25.74 -0.13,-38.87 0.05,-12.66 0.1,-25.46 0.15,-38.37 0.24,-6.91 -0.5,-15.95 -2.12,-23.86 l -1.39,-6.11 -0.82,-3.03 -0.45,-1.54 -0.82,-2.41 -6.5,-19.37 c -8.55,-25.89 -16.75,-51.92 -24.36,-77.73 -7.29,-25.94 -14.46,-51.47 -21.41,-76.18 -13.76,-49.47 -26.36,-95.73 -38.82,-134.71 -3.12,-9.74 -6.11,-19.08 -8.95,-27.96 -2.13,-7.13 -4.67,-13.67 -7.66,-19.76 9.05,-26.95 31.18,-50.83 56.79,-70.21 3.74,10.31 5.71,23.29 9.3,37.49 2.1,8.09 5.74,16.13 10.11,24.39 4.21,8.31 8.64,17.06 13.26,26.19 18.48,36.51 41.97,78.31 66.89,123.2 12.4,22.48 25.21,45.7 38.22,69.29 12.7,23.73 25.13,48.02 37.21,72.46 l 8.96,18.36 2.55,5.5 2.79,6.47 c 1.78,4.36 3.49,8.74 5.03,13.19 6.28,18.01 10.52,35.64 12.91,55.41 1.51,13.82 3.01,27.53 4.49,41.08 1.34,13.07 2.67,25.97 3.97,38.67 5.22,50.78 2.17,191.09 -16.58,317.34 l -138.75,-61.25"
         style="fill:#e68d3f;fill-opacity:1;fill-rule:nonzero;stroke:none"
         id="path164" />
      <path
         d="m 4278.75,2928.75 c -8.83,0 -16.81,3.28 -23.09,8.52 -3.71,22.32 -5.78,62.09 25.34,63.75 1.34,0.07 2.54,0.31 4,0.23 l 0.04,0.1 -0.03,-0.73 c 17.02,-2.98 29.99,-17.75 29.99,-35.62 0,-20.02 -16.23,-36.25 -36.25,-36.25 z m 132.39,-43.09 c -4.79,11.02 -13.22,19.96 -19.96,29.9 -6.75,9.94 -11.99,22.1 -9.11,33.76 2.69,10.85 11.69,18.75 19.32,26.92 7.64,8.17 14.67,18.94 12.02,29.81 -2.62,10.73 -13.92,17.74 -16.35,28.53 -3.1,13.84 9.37,26.02 12.84,39.77 4.81,19.11 -9.27,38.9 -27.08,47.35 -3.31,1.56 -6.73,2.75 -10.2,3.79 -0.01,7.99 -1.54,15.87 -5.17,23.06 -8.6,17.02 -27.01,27.74 -34.57,45.26 -5.82,13.48 -4.3,28.8 -4.29,43.49 0.02,14.68 -2.32,30.85 -13.35,40.55 -11.84,10.42 -29.68,9.86 -45.1,6.48 -15.41,-3.37 -30.94,-8.99 -46.54,-6.61 -27.34,4.16 -49.22,32.06 -76.63,28.34 -18.56,-2.51 -34.17,-19.53 -52.77,-17.28 -20.35,2.47 -34.04,27.25 -54.49,25.95 -16.19,-1.03 -26.12,-17.71 -32.93,-32.43 -6.8,-14.72 -15.97,-31.57 -32.05,-33.65 -14.44,-1.85 -31.42,8.94 -42.33,-0.7 -4.76,-4.21 -6.19,-10.94 -9.13,-16.58 -5.57,-10.7 -12.24,-4.88 -19.37,-9.25 -6.72,-4.12 -10.28,-12.27 -12.3,-19.7 -4.25,-15.68 -0.75,-33.68 8.9,-46.72 15.19,-20.54 42.03,-29.89 67.58,-29.76 10.08,0.05 23,-0.33 26.46,-9.8 2.22,-6.08 -1.09,-12.72 -1.1,-19.2 -0.04,-13.84 15.7,-23.46 29.47,-22.03 13.77,1.43 25.42,10.48 35.83,19.6 11.52,10.1 25.84,21.57 40.42,16.86 12.98,-4.2 18.61,-18.94 23.84,-31.53 5.24,-12.58 14.8,-26.53 28.4,-25.5 13.09,0.98 20.11,14.87 24.08,27.8 16.45,11.92 55.21,-18.11 49.52,-65.89 -6.25,-52.5 -20,-81.25 2.5,-83.75 5.44,-0.6 10.05,-1.51 13.95,-2.52 -5.75,-19.28 -20.55,-50.05 -58.12,-63.31 -56.66,-20 -124.16,47.5 -169.16,49.16 -45,1.67 -43.34,-12.5 -62.5,11.67 -4.17,-52.5 -12.84,-162.74 86.66,-187.5 85.42,-21.25 186.67,42.5 225,69.17 19.38,13.47 27.66,29.53 30.92,51.98 12.18,-0.11 26.03,-0.03 35.46,0.67 13.69,1.02 26.29,-6.57 38.99,-11.79 12.69,-5.22 28.93,-7.56 38.79,1.98 8.63,8.35 8.44,22.63 3.65,33.65"
         style="fill:#192e3b;fill-opacity:1;fill-rule:nonzero;stroke:none"
         id="path166" />
      <path
         d="m 4059.39,2855.02 c 5.75,-1.06 8.38,-8.24 4.23,-12.36 -12.13,-12.08 -29.73,-18.23 -47.84,-14.89 -17.79,3.28 -31.85,14.94 -39.01,30.13 -2.66,5.66 1.9,12.01 8.05,10.87 l 74.57,-13.75"
         style="fill:#ffffff;fill-opacity:1;fill-rule:nonzero;stroke:none"
         id="path168" />
      <path
         d="M 2785,4188.33 C 2796.67,4335 2756.67,4460 2710,4510 h -323.33 c -46.67,-50 -86.67,-175 -75,-321.67 11.66,-146.66 -105,-109.16 -8.34,-197.5 89.64,-81.91 225.68,-66.46 245,-63.84 19.32,-2.62 155.36,-18.28 245,63.63 96.67,88.34 -20,51.05 -8.33,197.71"
         style="fill:#f1453f;fill-opacity:1;fill-rule:nonzero;stroke:none"
         id="path170" />
      <path
         d="m 2339.29,3441.09 211.44,-0.74 211.44,0.74 114.73,-221.68 c 0,0 -151.01,-144.99 -326.17,-144.99 -175.16,0 -326.17,144.99 -326.17,144.99 l 114.73,221.68"
         style="fill:#36559b;fill-opacity:1;fill-rule:nonzero;stroke:none"
         id="path172" />
      <path
         d="m 2249.96,3111.16 -62.3,39.49 c -23.63,14.98 -54.93,7.97 -69.91,-15.66 l -89.87,-141.77 c -7.86,-12.4 -0.91,-28.83 13.45,-31.84 8.28,-1.73 16.79,1.67 21.6,8.63 l 8.43,12.74 c 28.95,43.76 84.43,61.51 133.4,42.66 l 45.2,85.75"
         style="fill:#e68d3f;fill-opacity:1;fill-rule:nonzero;stroke:none"
         id="path174" />
      <path
         d="m 2041.33,2961.38 c 8.28,-1.73 16.79,1.67 21.6,8.63 l 8.43,12.74 c 23.11,34.93 63.12,53.22 103.24,49.61 -14.72,20.7 -19.46,48.69 -3.15,76.38 9.65,16.38 22.44,25.6 36.12,29.29 l -19.91,12.62 c -23.63,14.98 -54.93,7.97 -69.91,-15.66 l -89.87,-141.77 c -7.86,-12.4 -0.91,-28.83 13.45,-31.84"
         style="fill:#bbd1d7;fill-opacity:1;fill-rule:nonzero;stroke:none"
         id="path176" />
      <path
         d="m 2737.89,4019.88 c -116.39,3.52 -105.91,102.46 -105.91,102.46 l -77.84,2.41 -77.85,-2.41 c 0,0 10.49,-98.94 -105.9,-102.46 -37.82,-1.14 -113.72,-123.99 -113.72,-123.99 h 533.71 c 0,0 -35.08,123.47 -52.49,123.99"
         style="fill:#e68d3f;fill-opacity:1;fill-rule:nonzero;stroke:none"
         id="path178" />
      <path
         d="m 2472.58,4091.52 c -2.25,-9.22 -5.83,-19.48 -11.59,-29.32 36.45,-79.06 137.46,-89.1 182.84,5.42 -3.47,5.84 -5.99,14.86 -7.8,23.9 h -163.45"
         style="fill:#e97a22;fill-opacity:1;fill-rule:nonzero;stroke:none"
         id="path180" />
      <path
         d="m 2379.5,4356.5 c 10.37,110.52 91.22,173.95 170.77,172.66 79.55,-1.27 158.83,-67.27 166.51,-178.07 4.5,-64.9 -9.63,-134.85 -19.81,-175.06 -6.06,-23.92 -17.38,-45.67 -33.09,-62.83 -36,-39.36 -82.76,-70.74 -119.52,-70.15 -36.76,0.59 -82.73,33.46 -117.77,73.95 -15.28,17.67 -26.07,39.77 -31.54,63.88 -9.2,40.52 -21.63,110.89 -15.55,175.62"
         style="fill:#e68d3f;fill-opacity:1;fill-rule:nonzero;stroke:none"
         id="path182" />
      <path
         d="m 2080.91,3728.77 -1.47,1.25 1.79,-0.96 c 3.22,-2.06 1.61,-1.85 -0.32,-0.29 z m 268.54,188.76 c -29.69,28.51 -76.87,27.54 -105.37,-2.15 l -0.53,-0.56 c 0,0 -8.6,-8.95 -23.63,-24.61 -7.65,-7.89 -16.93,-17.48 -27.57,-28.47 -10.7,-10.84 -22.77,-23.07 -35.94,-36.42 -13.24,-13.11 -27.41,-27.4 -42.64,-41.53 -15.07,-14.06 -31.24,-28.87 -46.57,-40.48 l -0.21,-0.15 c -1.19,1.44 -2.4,2.88 -3.59,4.38 -6.56,8.16 -13.13,17.52 -19.5,27.31 -13.04,19.48 -25.41,40.68 -37.55,61.84 -11.99,21.26 -23.19,42.84 -33.52,64.06 -20.77,42.4 -37.83,83.46 -49.24,119.35 -5.78,17.9 -11.47,34.3 -11.43,49.63 -0.24,15.23 0.03,28.15 -1.65,38.28 -1.39,10.18 -3.85,17.78 -6.02,22.95 -2.14,5.17 -4.14,7.96 -4.14,7.96 l -2.64,3.68 c -2.39,3.31 -5.47,6.2 -9.17,8.47 -15.03,9.2 -34.68,4.48 -43.88,-10.55 0,0 -2.26,-3.69 -4.19,-10.65 -1.99,-6.96 -3.64,-17.18 -2.62,-29.53 0.71,-12.4 4.92,-26.73 10.43,-42.53 5.88,-15.69 7.76,-34.1 11.54,-53.85 3.81,-19.72 8.02,-41.02 13.08,-63.43 4.96,-22.44 10.39,-46.1 16.91,-70.42 6.46,-24.35 13.89,-49.37 22.37,-74.8 8.39,-25.5 18.4,-51.07 30.54,-76.86 6.23,-12.84 12.97,-25.72 20.95,-38.86 3.93,-6.58 8.35,-13.18 13.34,-19.93 4.95,-6.72 10.51,-13.63 17.64,-20.92 7.28,-7.22 15.61,-15.11 30.09,-22.94 3.74,-1.94 8.03,-3.85 12.66,-5.5 5.19,-1.67 10.04,-3.14 16.59,-3.98 4.59,-0.94 16.23,-1.27 25.53,0.48 l 2.62,0.42 0.58,0.09 c 2.57,0.66 -5.35,-1.4 5.84,1.49 l 0.53,0.16 2.14,0.65 8.52,2.79 c 2.64,0.95 4.74,1.85 7.12,2.82 4.88,1.94 8.62,3.8 12.62,5.71 7.76,3.79 14.5,7.62 20.85,11.45 25.12,15.3 45.35,30.26 64.21,44.97 18.62,14.78 35.56,28.84 50.72,42.23 15.13,13.4 28.85,25.67 40.54,36.99 11.66,11.33 21.83,21.21 30.21,29.34 8.36,8.15 14.71,14.81 19.07,19.39 4.44,4.68 6.81,7.18 6.81,7.18 28.18,29.71 27.13,76.66 -2.45,105.05"
         style="fill:#e68d3f;fill-opacity:1;fill-rule:nonzero;stroke:none"
         id="path184" />
      <path
         d="m 2906.47,3553.31 c 2.43,4.96 4.01,5.47 3.76,4.81 -0.22,-0.81 -1.76,-2.66 -3.76,-4.81 z m 122.1,2.55 c -0.51,4.46 -3.55,14 -5.63,18.7 l -8.05,17.99 c -4.44,10.23 -8.86,20.42 -13.24,30.53 -8.83,20.7 -17.51,41.07 -25.92,60.78 -17.1,39.6 -33.06,76.57 -46.74,108.25 -27.65,63.37 -47.26,105.01 -47.26,105.01 -17.27,36.59 -60.76,52.87 -97.87,36.26 -37.56,-16.81 -54.39,-60.9 -37.58,-98.47 l 0.04,-0.08 c 0,0 18.94,-42.33 49.8,-104.6 15.37,-31.19 33.79,-67.34 53.9,-106.05 10.35,-19.33 21.05,-39.3 31.91,-59.59 3.85,-7.17 8.03,-14.51 12.18,-21.84 -2.43,-1.81 -4.94,-3.63 -7.58,-5.44 -7.67,-5.52 -16.23,-10.77 -24.9,-16 -8.63,-5.36 -17.59,-10.48 -26.58,-15.4 -18.01,-9.81 -36.21,-18.79 -53.75,-26.95 -17.51,-8.3 -34.56,-15.23 -50.43,-21.35 -15.99,-5.63 -30.58,-11.43 -43.98,-14.62 -13.61,-2.29 -26.29,-0.14 -35.87,-2.13 -9.69,-1.5 -16.86,-4.79 -21.59,-8.08 -4.76,-3.12 -7.1,-6.07 -7.1,-6.07 l -1.13,-1.41 c -1.07,-1.37 -2.06,-2.83 -2.95,-4.39 -9.87,-17.26 -3.88,-39.26 13.39,-49.13 0,0 13.49,-7.71 33.76,-2.54 10.24,1.98 21.57,9.25 35.39,13.23 6.94,1.93 14.65,2.57 22.62,3.94 8,1.31 16.42,2.69 25.2,4.13 17.69,2.92 36.86,6.08 57.13,9.42 20.38,3.59 41.92,7.87 64.41,13.39 22.58,5.49 45.93,12.14 70.53,22.67 12.3,5.38 24.9,11.75 38.59,20.82 6.91,4.63 13.99,10.15 21.61,17.76 7.49,7.79 16.14,17.75 22.97,34.4 3.33,8.49 5.81,18.81 6.08,30.01 0.04,5.65 -0.3,11.33 -1.36,16.85"
         style="fill:#e68d3f;fill-opacity:1;fill-rule:nonzero;stroke:none"
         id="path186" />
      <path
         d="m 2504.64,4164.97 c -6.66,0 -11.08,-7.49 -7.29,-12.96 11.08,-16.01 29.5,-26.52 50.45,-26.52 20.58,0 38.71,10.14 49.85,25.67 4.14,5.77 0.35,13.81 -6.76,13.81 h -86.25"
         style="fill:#ffffff;fill-opacity:1;fill-rule:nonzero;stroke:none"
         id="path188" />
      <path
         d="m 2268.07,3981 c 49.13,48.3 133.58,44.08 133.58,44.08 0,0 32.31,-95.82 149.08,-97.33 116.77,1.51 149.08,97.33 149.08,97.33 0,0 84.45,4.22 133.58,-44.08 49.13,-48.3 79.41,-121.86 79.41,-121.86 l -122.42,-138.62 -16.63,36.71 c 0,0 -21.53,-237.84 -10.53,-315.4 0,0 -85.99,-42.58 -212.49,-42.58 -126.5,0 -212.49,42.58 -212.49,42.58 11,77.56 -10.89,326.04 -10.89,326.04 l -40.98,-19.37 -119.24,135.02 c 0,0 51.81,49.18 100.94,97.48"
         style="fill:#192e3b;fill-opacity:1;fill-rule:nonzero;stroke:none"
         id="path190" />
      <path
         d="m 2216.7,3013.24 732.77,95.76 c 78.14,12.21 129.9,87.67 113.15,164.97 l -0.01,0.07 c -16.75,77.3 -95.11,124.57 -171.3,103.33 l -703.12,-223.79 28.51,-140.34"
         style="fill:#486abc;fill-opacity:1;fill-rule:nonzero;stroke:none"
         id="path192" />
      <path
         d="m 2197.96,3105.51 -9.77,48.08 192.32,61.21 c 46.92,-42.61 106.25,-74.64 161.62,-98.03 40.36,-17.06 87.69,-34.25 135.86,-43.24 l -289.66,-37.86 c -65.73,8.77 -129.63,36.72 -190.37,69.84"
         style="fill:#36559b;fill-opacity:1;fill-rule:nonzero;stroke:none"
         id="path194" />
      <path
         d="m 2785.52,3108.03 c -105.33,54.74 -217.15,93.3 -329.37,130.84 l 130.02,41.38 c 51.35,-16.37 102.12,-33.79 152.83,-53.56 61.52,-23.99 137.62,-44.29 175.18,-78.82 20.03,-18.41 41.31,-28.3 62.33,-31.75 -8.59,-3.21 -17.61,-5.65 -27.04,-7.12 l -138.77,-18.13 c -7.64,6.54 -16,12.39 -25.18,17.16"
         style="fill:#36559b;fill-opacity:1;fill-rule:nonzero;stroke:none"
         id="path196" />
      <path
         d="m 2851.02,3111.16 62.31,39.49 c 23.63,14.98 54.93,7.97 69.9,-15.66 l 89.88,-141.77 c 7.86,-12.4 0.91,-28.83 -13.46,-31.84 -8.27,-1.73 -16.78,1.67 -21.59,8.63 l -8.43,12.74 c -28.95,43.76 -84.44,61.51 -133.4,42.66 l -45.21,85.75"
         style="fill:#e68d3f;fill-opacity:1;fill-rule:nonzero;stroke:none"
         id="path198" />
      <path
         d="m 3059.65,2961.38 c -8.27,-1.73 -16.78,1.67 -21.59,8.63 l -8.43,12.74 c -23.11,34.93 -63.13,53.22 -103.24,49.61 14.72,20.7 19.46,48.69 3.15,76.38 -9.65,16.38 -22.44,25.6 -36.12,29.29 l 19.91,12.62 c 23.63,14.98 54.93,7.97 69.9,-15.66 l 89.88,-141.77 c 7.86,-12.4 0.91,-28.83 -13.46,-31.84"
         style="fill:#bbd1d7;fill-opacity:1;fill-rule:nonzero;stroke:none"
         id="path200" />
      <path
         d="M 2884.29,3013.24 2151.52,3109 c -78.14,12.21 -129.9,87.67 -113.15,164.97 l 0.01,0.07 c 16.75,77.3 95.11,124.57 171.3,103.33 l 703.12,-223.79 -28.51,-140.34"
         style="fill:#486abc;fill-opacity:1;fill-rule:nonzero;stroke:none"
         id="path202" />
      <path
         d="m 2817.86,3330.27 h -494.64 c -15.34,0 -27.79,12.44 -27.79,27.79 v 290.87 c 0,15.34 12.45,27.78 27.79,27.78 h 494.64 c 15.34,0 27.78,-12.44 27.78,-27.78 v -290.87 c 0,-15.35 -12.44,-27.79 -27.78,-27.79"
         style="fill:#bbd1d7;fill-opacity:1;fill-rule:nonzero;stroke:none"
         id="path204" />
      <path
         d="m 2576.17,3575.88 21.15,-42.86 47.3,-6.87 c 5.15,-0.75 7.21,-7.09 3.48,-10.72 l -34.22,-33.36 8.08,-47.11 c 0.88,-5.13 -4.51,-9.04 -9.12,-6.62 l -42.3,22.24 -42.31,-22.24 c -4.6,-2.42 -9.99,1.49 -9.11,6.62 l 8.08,47.11 -34.22,33.36 c -3.73,3.63 -1.67,9.97 3.48,10.72 l 47.3,6.87 21.15,42.86 c 2.3,4.66 8.96,4.66 11.26,0"
         style="fill:#ffffff;fill-opacity:1;fill-rule:nonzero;stroke:none"
         id="path206" />
      <path
         d="m 2607.5,4347.5 c 31.27,2.95 91.48,19.1 113.75,41.25 35.21,35.02 17.89,89.04 -15,126.25 -32.89,37.21 -97.57,56.66 -147.19,58.8 -53.79,2.31 -109.95,-9.61 -152.08,-43.12 -40.47,-32.2 -90.4,-129.42 -28.23,-161.93 65.62,-34.32 156.63,-28.04 228.75,-21.25"
         style="fill:#f1453f;fill-opacity:1;fill-rule:nonzero;stroke:none"
         id="path208" />
      <path
         d="m 2927.93,503.359 -1.24,59.411 103.62,10.48 c 4.76,-21.469 15.15,-40.449 29.33,-55.699 -31.78,-37.34 -94.14,-49.91 -131.71,-14.192"
         style="fill:#e68d3f;fill-opacity:1;fill-rule:nonzero;stroke:none"
         id="path210" />
      <path
         d="m 2927.76,511.051 c 16.12,-18.18 40.91,-28.832 70.6,-20.942 28.55,7.59 42.54,27.082 45.44,48.852 21.09,-36.27 60.21,-59.871 103.95,-59.801 l 16.42,0.02 c 9.09,-0.168 17.18,-5.77 20.55,-14.211 5.85,-14.649 -4.74,-30.629 -20.51,-30.957 l -180.32,-3.762 c -30.05,-0.629 -54.92,23.219 -55.55,53.281 l -0.58,27.52"
         style="fill:#192e3b;fill-opacity:1;fill-rule:nonzero;stroke:none"
         id="path212" />
      <path
         d="m 2761.95,1117.48 c 11.2,-55.01 24.01,-109.71 38.22,-164.148 14.25,-54.441 112.34,-411.422 112.36,-411.453 0,0 94.57,0.152 136.99,28.992 1.92,75.34 -85.66,527.399 -95.17,582.719 -4.71,27.67 -10.25,55.19 -15.83,82.7 -6.06,27.41 -12.01,54.85 -19.82,81.94 -14.37,49.86 -32.75,100.83 -228.7,83.02 -206.25,-18.75 -488.75,-152.65 -488.75,-152.65 -110.22,-16.21 -205.02,-82.8 -188.81,-193.02 16.21,-110.221 118.69,-186.432 228.91,-170.221 18.25,2.68 36.46,8.18 52.57,15.231 l 449.19,312.33 c 2.95,-16.5 15.47,-79.02 18.84,-95.44"
         style="fill:#486abc;fill-opacity:1;fill-rule:nonzero;stroke:none"
         id="path214" />
      <path
         d="m 2912.53,541.879 c -0.02,0.031 -98.11,357.012 -112.36,411.453 -14.21,54.438 -27.02,109.138 -38.22,164.148 -3.37,16.42 -15.89,78.94 -18.84,95.44 l -449.19,-312.33 346.37,240.84 c -23.14,-5.62 -45.71,-8.16 -67.77,-8.16 -117.52,0 -221.2,72.02 -328.58,134.51 -26.33,-11.46 -42.15,-18.92 -42.68,-19.17 2.27,1.07 283.32,133.97 488.74,152.64 27.32,2.48 51.16,3.63 72.05,3.63 128.93,0 144.28,-43.74 156.65,-86.65 7.81,-27.09 13.76,-54.53 19.82,-81.94 5.58,-27.51 11.12,-55.03 15.83,-82.7 9.4,-54.73 95.21,-497.711 95.2,-580.16 0,-0.899 -0.01,-1.75 -0.03,-2.559 -4.8,-3.262 -10.26,-6.16 -16.18,-8.723 -33.74,-14.636 -82.23,-18.707 -106.23,-19.839 -9.02,-0.418 -14.58,-0.43 -14.58,-0.43"
         style="fill:#4162b7;fill-opacity:1;fill-rule:nonzero;stroke:none"
         id="path216" />
      <path
         d="m 2211.75,883.18 c -87.24,0 -164.85,56.679 -191.62,139.4 26.77,-82.721 104.38,-139.389 191.62,-139.389 9.77,0 19.65,0.7 29.6,2.168 16.26,2.391 32.47,7.012 47.21,12.981 -14.74,-5.969 -30.95,-10.59 -47.21,-12.981 -9.95,-1.468 -19.83,-2.179 -29.6,-2.179"
         style="fill:#4162b7;fill-opacity:1;fill-rule:nonzero;stroke:none"
         id="path218" />
      <path
         d="m 2011.38,1064.21 c -0.5,5.26 -0.75,10.43 -0.76,15.49 v 0 c 0.01,-5.06 0.26,-10.23 0.76,-15.49 m 189.87,184.39 v 0 0 m 0.01,0.01 v 0 0"
         style="fill:#4162b7;fill-opacity:1;fill-rule:nonzero;stroke:none"
         id="path220" />
      <path
         d="m 2020.13,1022.58 c -0.29,0.91 -0.58,1.83 -0.87,2.75 0.29,-0.92 0.58,-1.84 0.87,-2.75 m -1.17,3.74 c -2.85,9.44 -5.05,19.21 -6.52,29.26 -0.43,2.9 -0.78,5.78 -1.06,8.63 0.28,-2.85 0.63,-5.73 1.06,-8.63 1.47,-10.05 3.67,-19.82 6.52,-29.26 m -8.34,53.38 c -0.05,95.52 88.14,153.54 189.66,168.76 -101.52,-15.22 -189.71,-73.24 -189.66,-168.76"
         style="fill:#243e61;fill-opacity:1;fill-rule:nonzero;stroke:none"
         id="path222" />
      <path
         d="m 2201.26,1248.61 v 0 0"
         style="fill:#243e61;fill-opacity:1;fill-rule:nonzero;stroke:none"
         id="path224" />
      <path
         d="m 2211.75,883.191 c -87.24,0 -164.85,56.668 -191.62,139.389 -0.29,0.91 -0.58,1.83 -0.87,2.75 -0.1,0.33 -0.2,0.67 -0.3,0.99 -2.85,9.44 -5.05,19.21 -6.52,29.26 -0.43,2.9 -0.78,5.78 -1.06,8.63 -0.5,5.26 -0.75,10.43 -0.76,15.49 -0.05,95.52 88.14,153.54 189.66,168.76 0.32,0.05 0.65,0.1 0.97,0.14 v 0 0 0 c 0,0 0,0 0.01,0.01 v 0 0 c 0.53,0.25 16.35,7.71 42.68,19.17 107.38,-62.49 211.06,-134.51 328.58,-134.51 22.06,0 44.63,2.54 67.77,8.16 L 2293.92,900.59 c -1.76,-0.77 -3.55,-1.52 -5.36,-2.25 -14.74,-5.969 -30.95,-10.59 -47.21,-12.981 -9.95,-1.468 -19.83,-2.168 -29.6,-2.168"
         style="fill:#3d5dac;fill-opacity:1;fill-rule:nonzero;stroke:none"
         id="path226" />
      <path
         d="m 3348.3,442.832 -54.4,23.918 34.17,98.379 c 21.47,-4.719 43.07,-3.309 62.87,3.133 20.47,-44.563 5.59,-106.41 -42.64,-125.43"
         style="fill:#e68d3f;fill-opacity:1;fill-rule:nonzero;stroke:none"
         id="path228" />
      <path
         d="m 3341.26,445.93 c 23.27,6.949 43.38,24.941 48.74,55.191 5.15,29.09 -6.63,49.988 -25.14,61.801 41.77,3.84 79.66,29.367 98.04,69.058 l 6.9,14.899 c 3.98,8.172 12.47,13.152 21.55,12.652 15.75,-0.883 25.77,-17.211 19.42,-31.652 L 3438.19,462.77 c -12.1,-27.52 -44.21,-40.02 -71.73,-27.918 l -25.2,11.078"
         style="fill:#192e3b;fill-opacity:1;fill-rule:nonzero;stroke:none"
         id="path230" />
      <path
         d="m 2764.23,954.398 c -106.68,60.222 -402.4,222.412 -521.73,285.602 -57.29,-49.07 -210.11,-220.14 -222.5,-222.5 67.5,-202.5 345,-155 533.73,-220.102 153.71,-53.027 240.36,-80.136 368.97,-163.957 128.6,-83.82 370.47,-183.281 370.47,-183.281 33.01,21.871 68,134.11 68,134.11 0,0 -432.86,277.511 -596.94,370.128"
         style="fill:#486abc;fill-opacity:1;fill-rule:nonzero;stroke:none"
         id="path232" />
      <path
         d="m 2145.57,1712.93 c 19.43,-20.13 40.32,-41.23 62.59,-62.65 18.11,-17.19 36.81,-34.7 56.13,-51.18 19.25,-16.48 39.27,-32.04 58.34,-44.87 9.51,-6.36 18.89,-11.89 26.88,-15.72 7.8,-4 14.94,-5.81 14.67,-6.19 l -0.5,-0.26 -1.26,-0.4 -0.86,-0.33 -0.2,-0.11 c -4.27,-1.09 -1,-0.27 -1.88,-0.5 l 0.32,0.06 1.27,0.22 c 1.38,0.21 4.4,0.83 3.26,0.47 -1.04,-0.62 0.37,-0.48 1.46,-0.33 1.11,0.15 2.37,0.48 3.72,0.85 5.37,1.88 12.84,5.3 20.19,10.82 15.24,10.61 30.93,26.6 44.48,43.35 13.58,16.89 26.12,34.5 36.27,51.72 10.39,17.14 18.62,33.81 25.7,48.73 8.16,14.61 6.47,30.36 8.54,41.97 1.99,11.68 6.31,19.97 10.71,25.22 2.21,2.62 4.16,4.56 5.74,5.76 1.52,1.27 2.46,1.65 2.46,1.65 l 14.35,5.84 1.3,0.5 c 18.37,6.56 38.59,-3 45.16,-21.37 0,0 0.4,-1.14 1.19,-3.34 0.73,-2.08 1.39,-5.01 1.87,-8.73 0.94,-7.41 0.02,-17.66 -5.21,-29.41 -5.14,-11.82 -16.02,-24.39 -19.35,-41.94 -4.41,-17.23 -9.98,-36.56 -16.33,-57.97 -6.59,-21.31 -13.78,-44.83 -24.26,-69.65 -10.65,-24.79 -23.38,-51.41 -44.87,-78.49 -10.99,-13.24 -24.23,-27.07 -42.22,-38.82 -4.55,-2.93 -9.29,-5.77 -14.37,-8.41 -5.12,-2.61 -10.05,-5.02 -17.6,-7.71 l -6.59,-2.41 -1.21,-0.45 -0.3,-0.11 c -1.08,-0.28 1.98,0.47 -2.5,-0.66 l -1.47,-0.33 -5.92,-1.24 c -4.08,-0.84 -7.8,-1.28 -11.49,-1.61 -3.81,-0.4 -7.46,-0.6 -10.81,-0.58 -13.96,-0.16 -26.06,1.57 -36.67,3.92 -10.74,2.35 -20.45,5.3 -29.33,8.56 -17.96,6.49 -33.46,14.01 -48.1,21.85 -29.21,15.65 -54.62,33.11 -78.76,50.66 -24.04,17.62 -46.57,35.47 -67.53,53.38 -11.66,9.84 -22.8,19.59 -33.62,29.25 28.04,49.14 54.17,99 76.61,150.99"
         style="fill:#d87c2e;fill-opacity:1;fill-rule:nonzero;stroke:none"
         id="path234" />
      <path
         d="m 1632.66,1726.29 c 31.83,50.74 52.88,67.88 113.19,109.91 l 90.98,33.87 c 41.96,27.61 74.76,29.93 100.83,29.93 h 0.03 c 30.62,0 82.55,-51.59 82.55,-51.59 0,0 8.89,-9.7 24.45,-27.11 15.88,-17.64 38.72,-42.84 66.66,-72.51 14.18,-15.18 29.73,-31.47 46.31,-48.42 -12.47,-23.25 -24.38,-46.73 -35.91,-70.41 27.7,-85.97 59.26,-111.56 106.7,-189.8 l 125,-66.17 c 0,0 0,-126.27 -331.18,-348.8 -61.24,118.21 -104.01,175.99 -181.02,268.43 -118.47,142.22 -266.67,340.1 -208.59,432.67"
         style="fill:#ffffff;fill-opacity:1;fill-rule:nonzero;stroke:none"
         id="path236" />
      <path
         d="m 2057.17,2218.5 c -11.65,98.79 -74.32,149.86 -186.67,149.7 -66.96,-0.1 -128.59,-36.74 -164.41,-93.32 l -5.17,-8.18 c -29.61,-46.77 -37.83,-121.69 -22.3,-174.82 l 75.26,-119.09 -13.13,-142.09 c 0,0 123.64,-48.73 157.33,26.54 l -4.91,86.22 c 0,0 63.3,-25.86 110.23,-1.04 24.55,12.99 77.54,74.48 53.77,276.08"
         style="fill:#e68d3f;fill-opacity:1;fill-rule:nonzero;stroke:none"
         id="path238" />
      <path
         d="m 2437.83,1578.81 68.29,40.1 c 5.76,3.38 9.4,9.48 9.62,16.16 l 6.64,194.36 c 0.53,15.37 -16.12,25.28 -29.38,17.49 l -68.29,-40.1 c -5.77,-3.38 -9.4,-9.48 -9.63,-16.16 l -6.63,-194.35 c -0.53,-15.38 16.12,-25.28 29.38,-17.5"
         style="fill:#bbd1d7;fill-opacity:1;fill-rule:nonzero;stroke:none"
         id="path240" />
      <path
         d="m 1994.95,1510.58 c 16.04,-16.9 32.84,-34.02 50.56,-50.8 19.94,-18.98 41.38,-37.15 62.01,-51.99 10.25,-7.33 20.46,-13.53 28.59,-17.43 4.01,-1.95 7.33,-3.15 9.06,-3.81 1.76,-0.71 1.52,-0.68 -1.17,-1.63 1.68,-0.92 13.07,2.75 23.7,8.26 10.97,5.58 23.06,12.44 34.89,20.19 23.89,15.41 48.06,32.81 70.82,50.75 22.85,17.93 44.7,36.2 65.18,53.96 20.5,17.76 39.23,35.41 56.3,51.96 8.44,8.39 16.52,16.43 24.21,24.08 7.73,7.62 14.87,15.05 20.39,23.03 10.9,16.1 18.6,31.57 27.73,41.97 8.72,10.73 17.36,17.68 23.99,21.81 6.54,4.23 10.95,5.58 10.95,5.58 l 1.89,0.59 c 4.63,1.39 9.62,1.89 14.74,1.31 20.23,-2.3 34.77,-20.55 32.47,-40.78 0,0 -0.56,-4.93 -3.46,-12.38 -2.8,-7.56 -8.05,-17.69 -17.19,-28.56 -8.75,-11.2 -22.86,-21.84 -37.31,-35.44 -7.15,-6.87 -13.56,-15.19 -20.19,-24.1 -6.77,-8.79 -13.89,-18.05 -21.32,-27.7 -14.99,-19.36 -31.24,-40.33 -48.43,-62.52 -17.32,-22.26 -36.03,-45.55 -56.47,-69.26 -20.58,-23.63 -42.41,-48.03 -68.1,-71.6 -13.02,-11.66 -26.68,-23.51 -42.92,-34.6 -8.19,-5.55 -16.91,-11.03 -26.94,-16.28 -5.12,-2.65 -10.22,-5.08 -16.56,-7.67 l -5.69,-2.1 -4.97,-1.72 -2.84,-0.97 -1.43,-0.48 c 1.79,0.44 -2.76,-0.72 -2.67,-0.69 l -0.84,-0.2 -1.7,-0.38 c -18.4,-4.2 -34.91,-3.73 -48.92,-1.92 -14.06,1.88 -26.17,5.16 -37.09,8.84 -21.71,7.48 -39.55,16.54 -56.04,25.88 -32.8,18.74 -60.01,39.43 -85.47,59.7 -13.84,11.08 -26.86,22.24 -39.31,33.31 30.93,43.81 59.78,89.12 89.55,133.79"
         style="fill:#e68d3f;fill-opacity:1;fill-rule:nonzero;stroke:none"
         id="path242" />
      <path
         d="m 1893.17,1943.46 -74.78,24.79 77.95,-72.92 z"
         style="fill:#cb7932;fill-opacity:1;fill-rule:nonzero;stroke:none"
         id="path244" />
      <path
         d="m 2016.16,2037.19 c 6.04,0.47 10.58,-6.03 7.52,-11.26 -8.95,-15.31 -24.94,-26.15 -43.97,-27.61 -18.69,-1.44 -35.86,6.5 -47.06,19.83 -4.17,4.95 -1.28,12.52 5.17,13.02 l 78.34,6.02"
         style="fill:#ffffff;fill-opacity:1;fill-rule:nonzero;stroke:none"
         id="path246" />
      <path
         d="m 1732.5,2003.33 c 0,0 -124.21,99.02 -96.25,246.67 29.99,158.35 320.17,278.71 414.22,42.87 7.41,-18.59 1.67,-39.9 -14.06,-52.28 -49.76,-39.19 -167.27,-120.85 -287.66,-125.59 l -16.25,-111.67"
         style="fill:#bbd1d7;fill-opacity:1;fill-rule:nonzero;stroke:none"
         id="path248" />
      <path
         d="m 1790,2121.87 c 0,-21.05 -17.07,-38.12 -38.12,-38.12 -21.06,0 -38.13,17.07 -38.13,38.12 0,21.06 17.07,38.13 38.13,38.13 21.05,0 38.12,-17.07 38.12,-38.13"
         style="fill:#e68d3f;fill-opacity:1;fill-rule:nonzero;stroke:none"
         id="path250" />
    </g>
  </g>
</svg>
