<svg xmlns="http://www.w3.org/2000/svg" width="1440" height="442" viewBox="0 0 1440 442">
    <defs>
        <linearGradient id="a" x1="32.844%" x2="32.844%" y1="29.367%" y2="70.589%">
            <stop offset="0%" stop-color="#F1FAFF"/>
            <stop offset="100%" stop-color="#DFF4FD"/>
        </linearGradient>
        <linearGradient id="b" x1="46.663%" x2="60.793%" y1="68.59%" y2="-12.512%">
            <stop offset="0%" stop-color="#69E3FF"/>
            <stop offset="100%" stop-color="#69BBED"/>
        </linearGradient>
        <linearGradient id="c" x1="76.232%" x2="54.631%" y1="-13.22%" y2="17.259%">
            <stop offset="0%" stop-color="#69E3FF"/>
            <stop offset="100%" stop-color="#69BBED"/>
        </linearGradient>
        <linearGradient id="d" x1="56.342%" x2="47.286%" y1=".753%" y2="32.605%">
            <stop offset="0%" stop-color="#69E3FF"/>
            <stop offset="100%" stop-color="#69BBED"/>
        </linearGradient>
        <linearGradient id="e" x1="72.281%" x2=".999%" y1="16.439%" y2="-54.556%">
            <stop offset="0%" stop-color="#69E3FF"/>
            <stop offset="100%" stop-color="#69BBED"/>
        </linearGradient>
        <linearGradient id="f" x1="64.237%" x2="15.623%" y1="60.429%" y2="8.665%">
            <stop offset="0%" stop-color="#69E3FF"/>
            <stop offset="100%" stop-color="#69BBED"/>
        </linearGradient>
        <linearGradient id="g" x1="41.583%" x2="43.424%" y1="12.021%" y2="39.347%">
            <stop offset="0%" stop-color="#69E3FF"/>
            <stop offset="100%" stop-color="#69BBED"/>
        </linearGradient>
        <linearGradient id="h" x1="39.135%" x2="49.452%" y1="8.898%" y2="28.632%">
            <stop offset="0%" stop-color="#69E3FF"/>
            <stop offset="100%" stop-color="#69BBED"/>
        </linearGradient>
        <linearGradient id="i" x1="36.873%" x2="-62.554%" y1="47.958%" y2="34.66%">
            <stop offset="0%" stop-color="#69E3FF"/>
            <stop offset="100%" stop-color="#69BBED"/>
        </linearGradient>
        <linearGradient id="j" x1=".039%" x2="100.013%" y1="49.932%" y2="49.932%">
            <stop offset="0%" stop-color="#EEC6D9"/>
            <stop offset="42%" stop-color="#F1D6D3"/>
            <stop offset="100%" stop-color="#F4ECCB"/>
        </linearGradient>
        <linearGradient id="k" x1="261.323%" x2="264.663%" y1="50%" y2="50%">
            <stop offset="0%" stop-color="#EEC6D9"/>
            <stop offset="42%" stop-color="#F1D6D3"/>
            <stop offset="100%" stop-color="#F4ECCB"/>
        </linearGradient>
        <linearGradient id="l" x1="86.584%" x2="4.068%" y1="101.155%" y2="-8.653%">
            <stop offset="0%" stop-color="#EEC6D9"/>
            <stop offset="42%" stop-color="#F1D6D3"/>
            <stop offset="100%" stop-color="#F4ECCB"/>
        </linearGradient>
        <linearGradient id="m" x1="0%" y1="50%" y2="50%">
            <stop offset="0%" stop-color="#69E3FF"/>
            <stop offset="100%" stop-color="#69BBED"/>
        </linearGradient>
        <linearGradient id="n" x1="0%" y1="49.998%" y2="49.998%">
            <stop offset="0%" stop-color="#183866"/>
            <stop offset="100%" stop-color="#1A7FC3"/>
        </linearGradient>
        <linearGradient id="o" x1="56.373%" x2="42.326%" y1="-.759%" y2="111.081%">
            <stop offset="0%" stop-color="#183866"/>
            <stop offset="100%" stop-color="#1A7FC3"/>
        </linearGradient>
        <linearGradient id="p" x1="65.954%" x2="51.811%" y1="146.64%" y2="60.955%">
            <stop offset="0%" stop-color="#183866"/>
            <stop offset="100%" stop-color="#1A7FC3"/>
        </linearGradient>
        <linearGradient id="q" x1="0%" y1="50.003%" y2="50.003%">
            <stop offset="0%" stop-color="#69E3FF"/>
            <stop offset="100%" stop-color="#69BBED"/>
        </linearGradient>
        <linearGradient id="r" x1="0%" y1="50%" y2="50%">
            <stop offset="0%" stop-color="#183866"/>
            <stop offset="100%" stop-color="#1A7FC3"/>
        </linearGradient>
        <linearGradient id="s" x1="56.819%" x2="41.348%" y1="110.195%" y2="2.56%">
            <stop offset="0%" stop-color="#183866"/>
            <stop offset="100%" stop-color="#1A7FC3"/>
        </linearGradient>
        <linearGradient id="t" x1="0%" x2="99.988%" y1="49.998%" y2="49.998%">
            <stop offset="0%" stop-color="#69E3FF"/>
            <stop offset="100%" stop-color="#69BBED"/>
        </linearGradient>
        <linearGradient id="u" x1="130.189%" x2="-155.828%" y1="37.551%" y2="75.157%">
            <stop offset="0%" stop-color="#69E3FF"/>
            <stop offset="100%" stop-color="#69BBED"/>
        </linearGradient>
        <linearGradient id="v" x1="117.07%" x2="-119.557%" y1="32.376%" y2="93.668%">
            <stop offset="0%" stop-color="#69E3FF"/>
            <stop offset="100%" stop-color="#69BBED"/>
        </linearGradient>
        <linearGradient id="w" x1="48.607%" x2="89.35%" y1="6.992%" y2="258.894%">
            <stop offset="0%" stop-color="#183866"/>
            <stop offset="100%" stop-color="#1A7FC3"/>
        </linearGradient>
        <linearGradient id="x" x1="100.134%" x2="0%" y1="50.002%" y2="50.002%">
            <stop offset="0%" stop-color="#183866"/>
            <stop offset="100%" stop-color="#1A7FC3"/>
        </linearGradient>
        <linearGradient id="y" x1="57.217%" x2="52.67%" y1="107.547%" y2="82.113%">
            <stop offset="0%" stop-color="#69E3FF"/>
            <stop offset="100%" stop-color="#69BBED"/>
        </linearGradient>
        <linearGradient id="z" x1="304.89%" x2="183.884%" y1="109.855%" y2="74.503%">
            <stop offset="0%" stop-color="#69E3FF"/>
            <stop offset="100%" stop-color="#69BBED"/>
        </linearGradient>
        <linearGradient id="A" x1="52.033%" x2="45.611%" y1="79.924%" y2="-17.53%">
            <stop offset="0%" stop-color="#69E3FF"/>
            <stop offset="100%" stop-color="#69BBED"/>
        </linearGradient>
        <linearGradient id="B" x1="63.3%" x2="47.942%" y1="-13.298%" y2="18.615%">
            <stop offset="0%" stop-color="#69E3FF"/>
            <stop offset="100%" stop-color="#69BBED"/>
        </linearGradient>
        <linearGradient id="C" x1="66.836%" x2="62.857%" y1="3.988%" y2="43.408%">
            <stop offset="0%" stop-color="#69E3FF"/>
            <stop offset="100%" stop-color="#69BBED"/>
        </linearGradient>
        <linearGradient id="D" x1="32.727%" x2="-66.807%" y1="49.413%" y2="36.115%">
            <stop offset="0%" stop-color="#69E3FF"/>
            <stop offset="100%" stop-color="#69BBED"/>
        </linearGradient>
        <linearGradient id="E" x1="37.869%" x2="75.369%" y1="58.131%" y2="-7.584%">
            <stop offset="0%" stop-color="#69E3FF"/>
            <stop offset="100%" stop-color="#69BBED"/>
        </linearGradient>
        <linearGradient id="F" x1="88.424%" x2="63.137%" y1="49.337%" y2="58.889%">
            <stop offset="0%" stop-color="#69E3FF"/>
            <stop offset="100%" stop-color="#69BBED"/>
        </linearGradient>
        <linearGradient id="G" x1="105.795%" x2="90.713%" y1="9.672%" y2="28.923%">
            <stop offset="0%" stop-color="#69E3FF"/>
            <stop offset="100%" stop-color="#69BBED"/>
        </linearGradient>
        <linearGradient id="H" x1="59.676%" x2="73%" y1="-35.138%" y2="-134.787%">
            <stop offset="0%" stop-color="#69E3FF"/>
            <stop offset="100%" stop-color="#69BBED"/>
        </linearGradient>
        <linearGradient id="I" x1="37.146%" x2="73.248%" y1="70.615%" y2="3.181%">
            <stop offset="0%" stop-color="#69E3FF"/>
            <stop offset="100%" stop-color="#69BBED"/>
        </linearGradient>
        <linearGradient id="J" x1="93.499%" x2="68.433%" y1="36.15%" y2="46.761%">
            <stop offset="0%" stop-color="#69E3FF"/>
            <stop offset="100%" stop-color="#69BBED"/>
        </linearGradient>
        <linearGradient id="K" x1="79.639%" x2="64.953%" y1="17.801%" y2="38.246%">
            <stop offset="0%" stop-color="#69E3FF"/>
            <stop offset="100%" stop-color="#69BBED"/>
        </linearGradient>
        <linearGradient id="L" x1="55.957%" x2="69.269%" y1="36.148%" y2="-63.494%">
            <stop offset="0%" stop-color="#69E3FF"/>
            <stop offset="100%" stop-color="#69BBED"/>
        </linearGradient>
        <linearGradient id="M" x1="43.794%" x2="70.613%" y1="71.902%" y2="-23.569%">
            <stop offset="0%" stop-color="#69E3FF"/>
            <stop offset="100%" stop-color="#69BBED"/>
        </linearGradient>
        <linearGradient id="N" x1="82.644%" x2="58.977%" y1="-2.436%" y2="29.224%">
            <stop offset="0%" stop-color="#69E3FF"/>
            <stop offset="100%" stop-color="#69BBED"/>
        </linearGradient>
        <linearGradient id="O" x1="76.149%" x2="64.057%" y1="-6.685%" y2="31.45%">
            <stop offset="0%" stop-color="#69E3FF"/>
            <stop offset="100%" stop-color="#69BBED"/>
        </linearGradient>
        <linearGradient id="P" x1="65.233%" x2="-6.075%" y1="-35.502%" y2="-106.451%">
            <stop offset="0%" stop-color="#69E3FF"/>
            <stop offset="100%" stop-color="#69BBED"/>
        </linearGradient>
        <linearGradient id="Q" x1="36.033%" x2="96.744%" y1="57.161%" y2="27.451%">
            <stop offset="0%" stop-color="#69E3FF"/>
            <stop offset="100%" stop-color="#69BBED"/>
        </linearGradient>
        <linearGradient id="R" x1="88.751%" x2="60.302%" y1="58.678%" y2="52.67%">
            <stop offset="0%" stop-color="#69E3FF"/>
            <stop offset="100%" stop-color="#69BBED"/>
        </linearGradient>
        <linearGradient id="S" x1="28.815%" x2="105.679%" y1="57.566%" y2="61.155%">
            <stop offset="0%" stop-color="#69E3FF"/>
            <stop offset="100%" stop-color="#69BBED"/>
        </linearGradient>
        <linearGradient id="T" x1="82.164%" x2="51.619%" y1="95.023%" y2="77.106%">
            <stop offset="0%" stop-color="#69E3FF"/>
            <stop offset="100%" stop-color="#69BBED"/>
        </linearGradient>
        <linearGradient id="U" x1="77.004%" x2="47.242%" y1="50.514%" y2="44.329%">
            <stop offset="0%" stop-color="#69E3FF"/>
            <stop offset="100%" stop-color="#69BBED"/>
        </linearGradient>
        <linearGradient id="V" x1="-108.978%" x2="-44.006%" y1="28.808%" y2="-47.317%">
            <stop offset="0%" stop-color="#69E3FF"/>
            <stop offset="100%" stop-color="#69BBED"/>
        </linearGradient>
        <linearGradient id="W" x1="45.592%" x2="104.2%" y1="28.488%" y2="73.622%">
            <stop offset="0%" stop-color="#EEC6D9"/>
            <stop offset="42%" stop-color="#F1D6D3"/>
            <stop offset="100%" stop-color="#F4ECCB"/>
        </linearGradient>
        <linearGradient id="X" x1="-2.964%" x2="90.514%" y1="41.777%" y2="58.484%">
            <stop offset="0%" stop-color="#D09BC0"/>
            <stop offset="21%" stop-color="#CC93BA"/>
            <stop offset="54%" stop-color="#C17EA9"/>
            <stop offset="95%" stop-color="#B05B8D"/>
            <stop offset="96%" stop-color="#AF5A8C"/>
        </linearGradient>
        <linearGradient id="Y" x1="0%" y1="50.009%" y2="50.009%">
            <stop offset="0%" stop-color="#EEC6D9"/>
            <stop offset="42%" stop-color="#F1D6D3"/>
            <stop offset="100%" stop-color="#F4ECCB"/>
        </linearGradient>
        <linearGradient id="Z" x1="7.268%" x2="95.616%" y1="36.519%" y2="61.721%">
            <stop offset="0%" stop-color="#EEC6D9"/>
            <stop offset="42%" stop-color="#F1D6D3"/>
            <stop offset="100%" stop-color="#F4ECCB"/>
        </linearGradient>
        <linearGradient id="aa" x1="2.471%" x2="87.779%" y1="37.64%" y2="60.966%">
            <stop offset="0%" stop-color="#EEC6D9"/>
            <stop offset="42%" stop-color="#F1D6D3"/>
            <stop offset="100%" stop-color="#F4ECCB"/>
        </linearGradient>
        <linearGradient id="ab" x1="106.846%" x2="-91.823%" y1="51.899%" y2="46.986%">
            <stop offset="0%" stop-color="#EEC6D9"/>
            <stop offset="42%" stop-color="#F1D6D3"/>
            <stop offset="100%" stop-color="#F4ECCB"/>
        </linearGradient>
        <linearGradient id="ac" x1="1.172%" x2="93.112%" y1="38.704%" y2="59.853%">
            <stop offset="0%" stop-color="#EEC6D9"/>
            <stop offset="42%" stop-color="#F1D6D3"/>
            <stop offset="100%" stop-color="#F4ECCB"/>
        </linearGradient>
        <linearGradient id="ad" x1="-.456%" x2="99.493%" y1="44.965%" y2="60.885%">
            <stop offset="0%" stop-color="#D09BC0"/>
            <stop offset="21%" stop-color="#CC93BA"/>
            <stop offset="54%" stop-color="#C17EA9"/>
            <stop offset="95%" stop-color="#B05B8D"/>
            <stop offset="96%" stop-color="#AF5A8C"/>
        </linearGradient>
        <linearGradient id="ae" x1="-264.35%" x2="-297.96%" y1="-6990.044%" y2="-7155.479%">
            <stop offset="0%" stop-color="#D09BC0"/>
            <stop offset="21%" stop-color="#CC93BA"/>
            <stop offset="54%" stop-color="#C17EA9"/>
            <stop offset="95%" stop-color="#B05B8D"/>
            <stop offset="96%" stop-color="#AF5A8C"/>
        </linearGradient>
        <linearGradient id="af" x1="66.71%" x2="42.773%" y1="111.503%" y2="3.359%">
            <stop offset="0%" stop-color="#EEC6D9"/>
            <stop offset="42%" stop-color="#785757"/>
            <stop offset="100%" stop-color="#F4ECCB"/>
        </linearGradient>
        <linearGradient id="ag" x1="107.882%" x2="-96.667%" y1="13.073%" y2="146.574%">
            <stop offset="0%" stop-color="#EEC6D9"/>
            <stop offset="42%" stop-color="#F1D6D3"/>
            <stop offset="100%" stop-color="#F4ECCB"/>
        </linearGradient>
        <linearGradient id="ah" x1="30.412%" x2="65.412%" y1="49.867%" y2="49.867%">
            <stop offset="0%" stop-color="#69E3FF"/>
            <stop offset="100%" stop-color="#69BBED"/>
        </linearGradient>
        <linearGradient id="ai" x1=".007%" x2="100.017%" y1="50%" y2="50%">
            <stop offset="0%" stop-color="#69E3FF"/>
            <stop offset="100%" stop-color="#69BBED"/>
        </linearGradient>
        <linearGradient id="aj" x1="99.958%" x2="-.026%" y1="50.007%" y2="50.007%">
            <stop offset="0%" stop-color="#EEC6D9"/>
            <stop offset="42%" stop-color="#F1D6D3"/>
            <stop offset="100%" stop-color="#F4ECCB"/>
        </linearGradient>
        <linearGradient id="ak" x1="38.048%" x2="-406.912%" y1="48.041%" y2="75.115%">
            <stop offset="0%" stop-color="#EEC6D9"/>
            <stop offset="42%" stop-color="#F1D6D3"/>
        </linearGradient>
        <linearGradient id="al" x1="-20.406%" x2="12.702%" y1="42.795%" y2="46.514%">
            <stop offset="0%" stop-color="#69E3FF"/>
            <stop offset="100%" stop-color="#69BBED"/>
        </linearGradient>
        <linearGradient id="am" x1="87.261%" x2="-199.952%" y1="58.239%" y2="3.735%">
            <stop offset="0%" stop-color="#EEC6D9"/>
            <stop offset="42%" stop-color="#F1D6D3"/>
        </linearGradient>
        <linearGradient id="an" x1="51.748%" x2="-131.359%" y1="41.833%" y2="268.949%">
            <stop offset="0%" stop-color="#EEC6D9"/>
            <stop offset="42%" stop-color="#F1D6D3"/>
            <stop offset="100%" stop-color="#F4ECCB"/>
        </linearGradient>
        <linearGradient id="ao" x1="54.461%" x2="48.597%" y1="147.439%" y2="32.98%">
            <stop offset="0%" stop-color="#183866"/>
            <stop offset="37%" stop-color="#195288"/>
            <stop offset="100%" stop-color="#1A7FC3"/>
        </linearGradient>
        <linearGradient id="ap" x1="-64.854%" x2="362.275%" y1=".058%" y2="210.312%">
            <stop offset="0%" stop-color="#183866"/>
            <stop offset="37%" stop-color="#195288"/>
            <stop offset="100%" stop-color="#1A7FC3"/>
        </linearGradient>
        <linearGradient id="aq" x1="83.059%" x2="61.866%" y1="169.652%" y2="67.363%">
            <stop offset="0%" stop-color="#69E3FF"/>
            <stop offset="100%" stop-color="#69BBED"/>
        </linearGradient>
        <linearGradient id="ar" x1="-52.451%" x2="90.691%" y1="78.498%" y2="38.681%">
            <stop offset="0%" stop-color="#69E3FF"/>
            <stop offset="100%" stop-color="#69BBED"/>
        </linearGradient>
        <linearGradient id="as" x1="45.161%" x2="85.93%" y1="10.855%" y2="262.757%">
            <stop offset="0%" stop-color="#183866"/>
            <stop offset="100%" stop-color="#1A7FC3"/>
        </linearGradient>
        <linearGradient id="at" x1="-.182%" y1="50.002%" y2="50.002%">
            <stop offset="0%" stop-color="#183866"/>
            <stop offset="100%" stop-color="#1A7FC3"/>
        </linearGradient>
        <linearGradient id="au" x1="42.611%" x2="47.158%" y1="107.547%" y2="82.113%">
            <stop offset="0%" stop-color="#69E3FF"/>
            <stop offset="100%" stop-color="#69BBED"/>
        </linearGradient>
        <linearGradient id="av" x1="-205.031%" x2="-83.942%" y1="109.855%" y2="74.503%">
            <stop offset="0%" stop-color="#69E3FF"/>
            <stop offset="100%" stop-color="#69BBED"/>
        </linearGradient>
        <linearGradient id="aw" x1="70.998%" x2="42.899%" y1="136.06%" y2="20.824%">
            <stop offset="0%" stop-color="#183866"/>
            <stop offset="100%" stop-color="#1A7FC3"/>
        </linearGradient>
        <linearGradient id="ax" x1="33.865%" x2="64.016%" y1="-1.963%" y2="100.388%">
            <stop offset="0%" stop-color="#183866"/>
            <stop offset="100%" stop-color="#1A7FC3"/>
        </linearGradient>
        <linearGradient id="ay" x1="60.544%" x2="39.456%" y1="106.757%" y2="-7.432%">
            <stop offset="0%" stop-color="#183866"/>
            <stop offset="100%" stop-color="#1A7FC3"/>
        </linearGradient>
        <linearGradient id="az" x1="56%" x2="44%" y1="84.5%" y2="14.5%">
            <stop offset="0%" stop-color="#183866"/>
            <stop offset="100%" stop-color="#1A7FC3"/>
        </linearGradient>
        <linearGradient id="aA" x1="52.5%" x2="46.5%" y1="65.5%" y2="34.5%">
            <stop offset="0%" stop-color="#183866"/>
            <stop offset="100%" stop-color="#1A7FC3"/>
        </linearGradient>
        <linearGradient id="aB" x1="13.605%" x2="54.422%" y1="-72.297%" y2="64.189%">
            <stop offset="0%" stop-color="#183866"/>
            <stop offset="100%" stop-color="#1A7FC3"/>
        </linearGradient>
        <linearGradient id="aC" x1="28%" x2="53%" y1="-25.5%" y2="58.5%">
            <stop offset="0%" stop-color="#183866"/>
            <stop offset="100%" stop-color="#1A7FC3"/>
        </linearGradient>
        <linearGradient id="aD" x1="39.5%" x2="50.5%" y1="16.5%" y2="53.5%">
            <stop offset="0%" stop-color="#183866"/>
            <stop offset="100%" stop-color="#1A7FC3"/>
        </linearGradient>
        <linearGradient id="aE" x1="40.893%" x2="59.309%" y1="3.227%" y2="94.397%">
            <stop offset="0%" stop-color="#183866"/>
            <stop offset="100%" stop-color="#1A7FC3"/>
        </linearGradient>
        <linearGradient id="aF" x1="90.402%" x2="11.457%" y1="123.103%" y2="-22.808%">
            <stop offset="0%" stop-color="#183866"/>
            <stop offset="100%" stop-color="#1A7FC3"/>
        </linearGradient>
        <linearGradient id="aG" x1="-.008%" x2="99.992%" y1="49.998%" y2="49.998%">
            <stop offset="0%" stop-color="#69E3FF"/>
            <stop offset="100%" stop-color="#69BBED"/>
        </linearGradient>
        <linearGradient id="aH" x1="-.005%" y1="50%" y2="50%">
            <stop offset="0%" stop-color="#183866"/>
            <stop offset="100%" stop-color="#1A7FC3"/>
        </linearGradient>
        <linearGradient id="aI" x1="61.557%" x2="150.935%" y1="129.248%" y2="669.823%">
            <stop offset="0%" stop-color="#183866"/>
            <stop offset="37%" stop-color="#195288"/>
            <stop offset="100%" stop-color="#1A7FC3"/>
        </linearGradient>
        <linearGradient id="aJ" x1="67.984%" x2="161.364%" y1="73.117%" y2="193.179%">
            <stop offset="0%" stop-color="#183866"/>
            <stop offset="37%" stop-color="#195288"/>
            <stop offset="100%" stop-color="#1A7FC3"/>
        </linearGradient>
        <linearGradient id="aK" x1="48.456%" x2="25.372%" y1="68.086%" y2="-8.486%">
            <stop offset="0%" stop-color="#69E3FF"/>
            <stop offset="100%" stop-color="#69BBED"/>
        </linearGradient>
        <linearGradient id="aL" x1="93.207%" x2="84.622%" y1="27.323%" y2="57.505%">
            <stop offset="0%" stop-color="#69E3FF"/>
            <stop offset="100%" stop-color="#69BBED"/>
        </linearGradient>
        <linearGradient id="aM" x1="73.305%" x2="73.982%" y1="-1.381%" y2="28.443%">
            <stop offset="0%" stop-color="#69E3FF"/>
            <stop offset="100%" stop-color="#69BBED"/>
        </linearGradient>
        <linearGradient id="aN" x1="-92.216%" x2="-192.074%" y1="39.126%" y2="25.832%">
            <stop offset="0%" stop-color="#69E3FF"/>
            <stop offset="100%" stop-color="#69BBED"/>
        </linearGradient>
        <linearGradient id="aO" x1="98.462%" x2="75.143%" y1="48.51%" y2="51.297%">
            <stop offset="0%" stop-color="#69E3FF"/>
            <stop offset="100%" stop-color="#69BBED"/>
        </linearGradient>
        <linearGradient id="aP" x1="141.866%" x2="212.715%" y1="66.081%" y2="-5.128%">
            <stop offset="0%" stop-color="#69E3FF"/>
            <stop offset="100%" stop-color="#69BBED"/>
        </linearGradient>
        <linearGradient id="aQ" x1="30.37%" x2="61.345%" y1="-31.008%" y2="85.311%">
            <stop offset="42%" stop-color="#F1D6D3"/>
            <stop offset="65%" stop-color="#EEC6D9"/>
            <stop offset="100%" stop-color="#F4ECCB"/>
        </linearGradient>
        <linearGradient id="aR" x1="12.23%" x2="409.227%" y1="-19.137%" y2="528.5%">
            <stop offset="0%" stop-color="#EEC6D9"/>
            <stop offset="42%" stop-color="#785757"/>
            <stop offset="100%" stop-color="#F4ECCB"/>
        </linearGradient>
        <linearGradient id="aS" x1="92.191%" x2="-49.346%" y1="107.692%" y2="50.062%">
            <stop offset="0%" stop-color="#EEC6D9"/>
            <stop offset="42%" stop-color="#F1D6D3"/>
            <stop offset="100%" stop-color="#F4ECCB"/>
        </linearGradient>
        <linearGradient id="aT" x1="45.498%" x2="54.806%" y1="52.116%" y2="48.202%">
            <stop offset="0%" stop-color="#183866"/>
            <stop offset="100%" stop-color="#1A7FC3"/>
        </linearGradient>
        <linearGradient id="aU" x1="87.108%" x2="33.053%" y1="15.488%" y2="83.006%">
            <stop offset="0%" stop-color="#C3CAF4"/>
            <stop offset="100%" stop-color="#1A7FC3"/>
        </linearGradient>
        <linearGradient id="aV" x1="118.406%" x2="26.971%" y1="149.402%" y2="-.477%">
            <stop offset="0%" stop-color="#C3CAF4"/>
            <stop offset="100%" stop-color="#1A7FC3"/>
        </linearGradient>
        <linearGradient id="aW" x1="7.415%" x2="97.995%" y1="118.902%" y2="2.546%">
            <stop offset="0%" stop-color="#C3CAF4"/>
            <stop offset="100%" stop-color="#1A7FC3"/>
        </linearGradient>
        <linearGradient id="aX" x1="15.688%" x2="83.554%" y1="80.563%" y2="23.557%">
            <stop offset="0%" stop-color="#EEC6D9"/>
            <stop offset="42%" stop-color="#F1D6D3"/>
            <stop offset="100%" stop-color="#F4ECCB"/>
        </linearGradient>
        <linearGradient id="aY" x1="101.193%" x2="-6.204%" y1="40.63%" y2="62.114%">
            <stop offset="0%" stop-color="#EEC6D9"/>
            <stop offset="42%" stop-color="#F1D6D3"/>
            <stop offset="100%" stop-color="#F4ECCB"/>
        </linearGradient>
        <linearGradient id="aZ" x1="52.15%" x2="37.233%" y1="82.36%" y2="-72.273%">
            <stop offset="0%" stop-color="#183866"/>
            <stop offset="100%" stop-color="#1A7FC3"/>
        </linearGradient>
        <linearGradient id="ba" x1=".038%" y1="49.887%" y2="49.887%">
            <stop offset="0%" stop-color="#183866"/>
            <stop offset="100%" stop-color="#1A7FC3"/>
        </linearGradient>
        <linearGradient id="bb" x1="-.146%" y1="50.065%" y2="50.065%">
            <stop offset="0%" stop-color="#183866"/>
            <stop offset="100%" stop-color="#1A7FC3"/>
        </linearGradient>
        <linearGradient id="bc" x1="15.007%" x2="83.773%" y1="18.527%" y2="81.377%">
            <stop offset="0%" stop-color="#183866"/>
            <stop offset="100%" stop-color="#1A7FC3"/>
        </linearGradient>
    </defs>
    <g fill="none" fill-rule="evenodd">
        <path fill="#C6E7F9" fill-rule="nonzero" d="M1439.79 0H-110C-82.004 154.182 4.651 242.767 149.965 265.754c217.97 34.48 270.963 157.601 546.926 146.704 275.962-10.897 684.907-99.584 815.89 98.336C1600.1 642.74 1575.77 472.476 1439.79 0z" opacity=".838"/>
        <path fill="url(#a)" fill-rule="nonzero" d="M1816.909 64C1546.019-21.334 984.383-21.334 132 64c27.998 154.313 114.66 242.973 259.986 265.98 217.988 34.51 270.985 157.736 546.97 146.83 275.985-10.906 684.963-99.67 815.956 98.42 130.993 198.088 468.33-383.233 61.996-511.23z" transform="translate(-110 -93)"/>
        <g transform="translate(1261 131)">
            <path fill="url(#b)" d="M51.741 44.616l-45.66 19.87c-3.891 1.688-6.579-.92-6.003-5.822l3.286-28.223c.575-4.914 3.965-8.36 7.856-10.049L56.92.517c3.89-1.694 6.572.914 6.003 5.822l-3.097 26.343c-.575 4.89-4.19 10.24-8.086 11.934z"/>
            <path fill="url(#c)" d="M53.774 44.614L8.084 64.485c-3.893 1.689-6.582-.914-6.006-5.822l3.288-28.226c.576-4.908 3.968-8.36 7.86-10.049L58.916.517c3.893-1.694 6.582.914 6.006 5.822l-3.069 26.328c-.576 4.908-4.192 10.253-8.08 11.947z"/>
            <path fill="#1B76BC" d="M61.956 5.876l-3.078 26.009c-.5 4.241-4.112 9.061-8.095 10.764L9.326 60.403c-3.96 1.703-6.768-.362-6.268-4.61l3.101-26.166c.365-3.077 2.985-6.564 5.875-7.798L57.298 2.442c2.937-1.264 5.034.275 4.658 3.434z"/>
            <path fill="url(#d)" d="M59.972 24.981l-.824 7.03c-.493 4.223-4.058 9.022-7.99 10.717L10.244 60.406c-3.908 1.695-6.68-.361-6.186-4.59l.278-2.37c.09-.539.346-1.036.73-1.422l19.887-20.572c2.07-2.15 4.494-3.39 6.465-3.32l7.978.274c.898.029.829 1.398-.11 2.365l-8.778 9.01c-.387.39-.642.89-.73 1.433a.87.87 0 0 0 .22.78c.359.327 1.043.129 1.617-.477l15.904-16.652c2.145-2.237 4.696-3.303 6.464-2.697l5.572 1.916c.341.154.52.535.418.897z"/>
            <ellipse cx="54.362" cy="13.92" fill="url(#e)" rx="4.163" ry="2.4" transform="rotate(-52.96 54.362 13.92)"/>
        </g>
        <g transform="translate(1233 222)">
            <path fill="url(#f)" d="M64.147 30.306L31.593 65.788c-2.77 3.021-7.64 2.939-10.888-.194L2.083 47.61c-3.247-3.126-2.374-6.894.401-9.915L35.033 2.212c2.77-3.02 7.646-2.938 10.888.189l17.394 16.774c3.218 3.126 3.602 8.11.832 11.131z"/>
            <path fill="url(#g)" d="M65.145 30.306L32.593 65.788c-2.77 3.021-7.648 2.939-10.89-.194L3.08 47.615c-3.242-3.127-2.369-6.9.401-9.921L36.032 2.212C38.81-.81 43.68-.727 46.928 2.406l17.39 16.768c3.219 3.127 3.597 8.111.827 11.132z"/>
            <path fill="#1B76BC" d="M44.736 3.376l17.153 16.43c2.797 2.676 2.82 7.292.035 10.303L32.878 61.562c-2.773 3.005-7.298 3.269-10.1.586L5.517 45.613a5.342 5.342 0 0 1 0-7.462L37.234 3.809a5.244 5.244 0 0 1 7.502-.433z"/>
            <path fill="url(#h)" d="M57.247 15.332l4.651 4.464c2.785 2.678 2.808 7.294.035 10.306l-28.925 31.46c-2.762 3.005-7.268 3.269-10.059.586l-1.564-1.506a1.295 1.295 0 0 1-.355-1.2l4.692-22.158a7.553 7.553 0 0 1 4.158-5.273l8.552-3.995a1.22 1.22 0 0 1 1.325.138c.377.304.54.803.42 1.274l-2.117 9.737c-.1.436.033.893.349 1.207.229.215.53.334.843.333a1.37 1.37 0 0 0 1.32-1.118l3.593-17.84a6.365 6.365 0 0 1 4.651-4.91l7.32-1.804c.397-.095.814.017 1.11.3z"/>
            <ellipse cx="42.533" cy="12.225" fill="url(#i)" rx="3.253" ry="3.069" transform="rotate(-54.37 42.533 12.225)"/>
        </g>
        <g transform="translate(1319 382)">
            <path fill="url(#f)" d="M33.046 15.599l-16.77 18.263c-1.428 1.554-3.937 1.512-5.61-.1l-9.593-9.257C-.6 22.895-.15 20.956 1.28 19.4L18.047 1.14c1.427-1.555 3.94-1.513 5.61.097l8.96 8.633c1.658 1.61 1.856 4.175.429 5.73z"/>
            <path fill="url(#g)" d="M34.044 15.599L17.275 33.862c-1.427 1.554-3.94 1.512-5.61-.1l-9.594-9.254C.4 22.898.85 20.956 2.278 19.4L19.047 1.138c1.43-1.554 3.94-1.512 5.613.1l8.958 8.631c1.659 1.61 1.853 4.175.426 5.73z"/>
            <path fill="#1B76BC" d="M23.047 1.71l8.862 8.48c1.445 1.382 1.457 3.764.019 5.318L16.92 31.742c-1.433 1.55-3.77 1.687-5.218.302L2.785 23.51a2.755 2.755 0 0 1 0-3.852L19.17 1.934a2.713 2.713 0 0 1 3.876-.224z"/>
            <path fill="url(#h)" d="M29.545 8.17l2.38 2.277c1.424 1.366 1.436 3.721.017 5.258L17.143 31.756c-1.413 1.533-3.718 1.668-5.146.299l-.8-.768a.66.66 0 0 1-.181-.613l2.4-11.305a3.856 3.856 0 0 1 2.127-2.69l4.376-2.038a.625.625 0 0 1 .678.07c.192.155.276.41.214.65l-1.083 4.968a.66.66 0 0 0 .179.616c.117.11.271.17.431.17a.7.7 0 0 0 .675-.57l1.839-9.103a3.251 3.251 0 0 1 2.38-2.504l3.745-.921a.617.617 0 0 1 .568.152z"/>
            <ellipse cx="22.219" cy="6.292" fill="url(#i)" rx="1.683" ry="1.595" transform="rotate(-54.37 22.219 6.292)"/>
        </g>
        <g transform="matrix(-1 0 0 1 1165 166)">
            <path fill="url(#f)" d="M38.877 17.827L19.147 38.7c-1.678 1.777-4.63 1.729-6.598-.114L1.262 28.005c-1.968-1.839-1.439-4.055.244-5.832L21.232 1.301c1.679-1.777 4.634-1.728 6.599.111l10.542 9.867c1.95 1.84 2.183 4.771.504 6.548z"/>
            <path fill="url(#g)" d="M38.876 17.827L19.147 38.7c-1.679 1.777-4.635 1.729-6.6-.114L1.26 28.009c-1.965-1.84-1.436-4.059.243-5.836L21.232 1.3c1.682-1.777 4.635-1.729 6.603.114l10.54 9.864c1.95 1.84 2.18 4.771.5 6.548z"/>
            <path fill="#1B76BC" d="M27.442 1.799l10.292 9.54c1.678 1.554 1.692 4.234.02 5.982L20.328 35.585c-1.664 1.744-4.38 1.897-6.06.34L3.91 26.324a3.03 3.03 0 0 1 0-4.333L22.94 2.05a3.189 3.189 0 0 1 2.196-1.046 3.21 3.21 0 0 1 2.306.794z"/>
            <path fill="url(#h)" d="M34.917 8.197l2.812 2.642c1.684 1.584 1.698 4.316.021 6.099l-17.49 18.62c-1.67 1.778-4.394 1.934-6.081.346l-.946-.891a.756.756 0 0 1-.215-.711l2.837-13.113a4.488 4.488 0 0 1 2.514-3.121l5.171-2.365a.75.75 0 0 1 .802.082c.227.18.326.475.253.754l-1.28 5.763c-.06.258.02.528.211.714.139.127.32.198.51.197a.823.823 0 0 0 .798-.662l2.173-10.558a3.803 3.803 0 0 1 2.812-2.905l4.426-1.068c.24-.057.492.01.672.177z"/>
            <ellipse cx="25.393" cy="7.191" fill="url(#i)" rx="1.923" ry="1.823" transform="rotate(-54.37 25.393 7.191)"/>
        </g>
        <path fill="url(#b)" d="M116.909 101.37L13.989 146C5.222 149.792-.836 143.934.46 132.924l7.407-63.395c1.297-11.037 8.938-18.778 17.707-22.57l103.01-44.644c8.768-3.805 14.813 2.053 13.53 13.077l-6.98 59.171c-1.297 10.984-9.443 23.002-18.225 26.807z" transform="rotate(32 458.351 2526.386)"/>
        <path fill="url(#c)" d="M121.433 100.941L18.45 145.575c-8.774 3.793-14.836-2.053-13.538-13.077l7.412-63.4c1.298-11.025 8.943-18.78 17.717-22.572L133.024 1.892c8.774-3.806 14.836 2.053 13.538 13.077l-6.918 59.137c-1.298 11.025-9.45 23.03-18.211 26.835z" transform="rotate(32 458.351 2526.386)"/>
        <path fill="#1B76BC" d="M1520.007 227.364l-36.954 46.044c-6.021 7.511-18.686 12.41-28.334 10.907l-100.463-15.582c-9.603-1.475-12.504-8.777-6.476-16.3l37.188-46.318c4.372-5.447 13.545-8.983 20.545-7.89l109.69 17.01c7.125 1.092 9.296 6.539 4.804 12.129z"/>
        <path fill="url(#d)" d="M136.127 56.915l-1.852 15.863c-1.11 9.528-9.132 20.358-17.977 24.182l-92.06 39.888c-8.792 3.825-15.028-.815-13.92-10.356l.627-5.35a5.943 5.943 0 0 1 1.644-3.206l44.745-46.42c4.657-4.85 10.11-7.649 14.545-7.49l17.95.617c2.023.066 1.866 3.154-.247 5.336L69.832 90.31a5.956 5.956 0 0 0-1.644 3.233 1.968 1.968 0 0 0 .495 1.761c.81.736 2.348.29 3.64-1.077l35.783-37.575c4.827-5.047 10.567-7.452 14.545-6.085l12.537 4.324a1.712 1.712 0 0 1 .94 2.024z" transform="rotate(32 458.351 2526.386)"/>
        <path fill="#FCC000" d="M1410.123 157s-1.096 5.896-5.123 5.961c0 0 4.45.048 5.123 6.039 0 0 0-5.961 4.877-5.961 0-.048-5.167-.549-4.877-6.039zM1373.123 174s-1.096 5.896-5.123 5.961c0 0 4.45.048 5.123 6.039 0 0 0-5.961 4.877-5.961 0-.048-5.167-.549-4.877-6.039zM1130.123 135s-1.096 5.896-5.123 5.961c0 0 4.45.048 5.123 6.039 0 0 0-5.961 4.877-5.961 0-.048-5.167-.549-4.877-6.039zM1342.123 96s-1.096 5.896-5.123 5.961c0 0 4.45.048 5.123 6.039 0 0 0-5.961 4.877-5.961 0-.048-5.167-.549-4.877-6.039z"/>
        <g transform="translate(-18 125)">
            <path fill="#071B3D" d="M337.776 258.409s-5.941-1.946-7.218-1.264c-1.276.683-.322 3.475 2.434 5.257 2.756 1.782 4.247 2.888 5.71 3.33 1.463.443 3.761.5 4.106-1.118.344-1.618.192-3.564-.187-4.284-.378-.72-4.845-1.921-4.845-1.921zM329.96 264.392s-6.837-1.942-8.315-1.238c-1.478.703-.365 3.467 2.81 5.246 3.176 1.778 4.856 2.87 6.594 3.326 1.738.456 4.329.501 4.728-1.126.4-1.626.22-3.563-.214-4.277-.435-.715-5.603-1.931-5.603-1.931z"/>
            <path fill="url(#j)" d="M355.791 145.331c-.222.498-.478.979-.767 1.44a3.715 3.715 0 0 0-.503 1.249c-.04.713-2.997 19.626-3.447 20.173-.246.31-1.487 3.521-2.564 6.364-.884 2.344-1.657 4.443-1.657 4.443L341 176.65l5.947-14.238s4.267-16.522 2.927-17.77c-1.34-1.25.585-1.565.585-1.565s-.187-2.022 1.674-2.075c1.861-.054 2.529 1.278 3.371 1.665.843.386.375 2.183.287 2.664z"/>
            <path fill="url(#k)" d="M355 147c-.249.37-.424.782-.517 1.214-.042.693-3.078 19.07-3.541 19.602-.253.3-1.527 3.422-2.633 6.184L346 171.492l.517-.659a25.593 25.593 0 0 0 4.653-9.293L355 147z"/>
            <path fill="url(#l)" d="M326 183.098L322.38 189s-9.803-9.547-10.588-11.342c-.784-1.796-5.45-18.48-5.45-18.48a29.436 29.436 0 0 0-2.284-3.176c-.843-.883-1.046-2.568-1.058-3.06a3.836 3.836 0 0 1 1.058-1.754c.122 0 2.952-1.515 3.736-1.123.785.392 1.104 1.661 1.104 1.661a.664.664 0 0 1 .913.304c.342.585-.378 2.855-.378 2.855l8.792 21.094 3.341 3.047 4.434 4.072z"/>
            <path fill="url(#m)" d="M78 83.4L181.17 62 202 85.6 98.83 107z"/>
            <path fill="url(#n)" d="M98.94 106.321L202 85l-32.94 99.679L66 206z"/>
            <path fill="url(#o)" d="M176 91l-5.728 16.615-78.27 92.825L66 206l32.858-99.095z"/>
            <path fill="url(#p)" d="M200.607 84L98.24 105.52 65 205.374 66.433 207l32.99-100.136L202 85.578z"/>
            <path fill="url(#m)" d="M176 279l82-47.554V154l-82 47.554z"/>
            <path fill="url(#q)" d="M175.259 201L93 153.351 174.741 106 257 153.649z"/>
            <path fill="url(#r)" d="M97 152.407L174.884 107 254 152.407 175.138 198z"/>
            <path fill="url(#s)" d="M174.246 107l.622 48.5L213 175.84 174.502 198l-18.962-11.012L96 152.407z"/>
            <path fill="url(#t)" d="M145 47.925L176.617 197 195 45z" opacity=".24"/>
            <path fill="url(#u)" d="M219.97 51.896L179 197l13.698-7.87L252 49z" opacity=".24"/>
            <path fill="url(#v)" d="M346 22S231.258 36.754 192.344 151.96L177 197s42.06-67.942 114.14-110.532C303.144 79.373 346 22 346 22z" opacity=".24"/>
            <path fill="url(#w)" d="M207.138 179.957h.05c1.97.245 2.612 2.773 2.612 2.773V258l17.607-10.969s1.334-73.262 0-74.96c-.45-.584-.9-1.115-1.295-1.577a4.24 4.24 0 0 0-3.208-1.494s-15.434 8.89-15.76 9.533c-.19.454-.192.968-.006 1.424z"/>
            <path fill="url(#x)" d="M207 178.02l.059 1.44c2.296.247 3.043 2.791 3.043 2.791V258l2.624-2.55s.617-69.415 0-73.687c-.617-4.27-5.726-3.742-5.726-3.742z"/>
            <path fill="url(#y)" d="M227 173.26l-8.503 4.74s-7.086-.23-8.497-.23l14.113-7.77s2.524.749 2.887 3.26z" opacity=".28"/>
            <path fill="url(#z)" d="M227 173v74l-9-69.402z" opacity=".28"/>
            <g transform="translate(285 22)">
                <path fill="url(#b)" d="M51.741 44.616l-45.66 19.87c-3.891 1.688-6.579-.92-6.003-5.822l3.286-28.223c.575-4.914 3.965-8.36 7.856-10.049L56.92.517c3.89-1.694 6.572.914 6.003 5.822l-3.097 26.343c-.575 4.89-4.19 10.24-8.086 11.934z"/>
                <path fill="url(#c)" d="M53.774 44.614L8.084 64.485c-3.893 1.689-6.582-.914-6.006-5.822l3.288-28.226c.576-4.908 3.968-8.36 7.86-10.049L58.916.517c3.893-1.694 6.582.914 6.006 5.822l-3.069 26.328c-.576 4.908-4.192 10.253-8.08 11.947z"/>
                <path fill="#1B76BC" d="M61.956 5.876l-3.078 26.009c-.5 4.241-4.112 9.061-8.095 10.764L9.326 60.403c-3.96 1.703-6.768-.362-6.268-4.61l3.101-26.166c.365-3.077 2.985-6.564 5.875-7.798L57.298 2.442c2.937-1.264 5.034.275 4.658 3.434z"/>
                <path fill="url(#d)" d="M59.972 24.981l-.824 7.03c-.493 4.223-4.058 9.022-7.99 10.717L10.244 60.406c-3.908 1.695-6.68-.361-6.186-4.59l.278-2.37c.09-.539.346-1.036.73-1.422l19.887-20.572c2.07-2.15 4.494-3.39 6.465-3.32l7.978.274c.898.029.829 1.398-.11 2.365l-8.778 9.01c-.387.39-.642.89-.73 1.433a.87.87 0 0 0 .22.78c.359.327 1.043.129 1.617-.477l15.904-16.652c2.145-2.237 4.696-3.303 6.464-2.697l5.572 1.916c.341.154.52.535.418.897z"/>
                <ellipse cx="54.362" cy="13.92" fill="url(#e)" rx="4.163" ry="2.4" transform="rotate(-52.96 54.362 13.92)"/>
            </g>
            <path fill="url(#A)" d="M246.187 147.188l-37.149 6.723c-3.158.595-6.176-1.856-6.739-5.432l-3.21-20.55c-.58-3.57 1.742-5.546 4.922-6.123l37.149-6.717c3.163-.595 6.182 1.856 6.745 5.432l3.012 19.152c.534 3.588-1.567 6.944-4.73 7.515z"/>
            <path fill="url(#B)" d="M248.206 147.186l-37.146 6.725c-3.163.595-6.18-1.857-6.738-5.434l-3.233-20.545c-.58-3.57 1.741-5.546 4.922-6.124l37.146-6.719c3.157-.595 6.175 1.857 6.738 5.428l3.012 19.164c.57 3.606-1.538 6.933-4.701 7.505z"/>
            <path fill="#1B76BC" d="M247.96 121.37l2.991 18.31c.406 3.097-1.767 5.948-4.896 6.422l-33.363 5.785a5.68 5.68 0 0 1-4.249-.821 5.54 5.54 0 0 1-2.395-3.558l-3.014-18.427c-.285-2.226 1.272-4.274 3.518-4.628l36.424-6.364a4.24 4.24 0 0 1 3.191.606 4.134 4.134 0 0 1 1.793 2.674z"/>
            <path fill="url(#C)" d="M250.14 133.507l.811 5.028c.404 3.134-1.758 6.018-4.87 6.497l-33.187 5.854a5.573 5.573 0 0 1-4.226-.831 5.609 5.609 0 0 1-2.383-3.6l-.274-1.698c-.051-.345.08-.692.344-.919l13.481-11.706a5.93 5.93 0 0 1 5.122-1.317l7.297 1.592a.98.98 0 0 1 .426 1.72l-5.979 5.134a1.02 1.02 0 0 0-.35.925c.04.246.173.467.373.615.414.302.982.275 1.365-.065l10.734-9.488a5.003 5.003 0 0 1 5.25-.855l5.477 2.377c.31.127.534.406.59.737z"/>
            <ellipse cx="242.408" cy="125.061" fill="url(#D)" rx="2.56" ry="2.428" transform="rotate(-17.2 242.408 125.06)"/>
            <path fill="url(#E)" d="M191.164 173.668l-17.623-9.528a3.185 3.185 0 0 1-1.455-1.988 3.169 3.169 0 0 1 .403-2.425l5.304-9.361c.92-1.626 2.525-1.655 4.045-.845l17.623 9.528a3.185 3.185 0 0 1 1.454 1.991c.196.831.05 1.706-.408 2.428l-4.94 8.723a3.32 3.32 0 0 1-4.403 1.477z"/>
            <path fill="url(#F)" d="M192.15 174.668l-17.613-9.517a3.181 3.181 0 0 1-1.455-2.004 3.164 3.164 0 0 1 .427-2.434l5.295-9.345c.924-1.624 2.524-1.659 4.042-.85l17.614 9.524a3.17 3.17 0 0 1 1.455 1.985c.197.83.049 1.703-.41 2.423l-4.937 8.72a3.324 3.324 0 0 1-4.418 1.498z"/>
            <path fill="#1B76BC" d="M200.752 163.73l-4.94 8.775a3.132 3.132 0 0 1-4.222 1.082l-15.929-8.629a2.999 2.999 0 0 1-1.52-1.773 2.985 2.985 0 0 1 .217-2.322l4.974-8.775a2.26 2.26 0 0 1 3.054-.79l17.397 9.425a2.23 2.23 0 0 1 .97 3.007z"/>
            <path fill="url(#G)" d="M197.94 170.007l-1.328 2.456c-.872 1.482-2.728 1.976-4.184 1.113l-15.782-8.876a3.055 3.055 0 0 1-1.507-1.824 3.175 3.175 0 0 1 .215-2.388l.454-.818a.533.533 0 0 1 .448-.283l9.486-.385a3.146 3.146 0 0 1 2.572 1.203l2.514 3.195a.55.55 0 0 1 .078.572.517.517 0 0 1-.468.313l-4.178.144a.533.533 0 0 0-.454.277.558.558 0 0 0-.047.391c.073.268.313.45.582.44l7.618-.385c1.024-.052 1.987.507 2.479 1.438l1.495 2.906a.545.545 0 0 1 .006.511z"/>
            <ellipse cx="197.021" cy="163.916" fill="url(#H)" rx="1.295" ry="1.368" transform="rotate(-68.65 197.021 163.916)"/>
            <g transform="translate(142 19)">
                <path fill="url(#I)" d="M36.926 46.4L3.012 29.1C.126 27.626-.859 23.892.818 20.754l9.627-18.049C12.117-.43 15.138-.566 18.07.906l33.92 17.308c2.886 1.472 3.865 5.206 2.193 8.344L45.21 43.39c-1.696 3.138-5.391 4.488-8.283 3.01z"/>
                <path fill="url(#J)" d="M37.932 48.404L4.016 31.101c-2.893-1.472-3.872-5.212-2.2-8.35l9.627-18.044c1.672-3.138 4.723-3.273 7.627-1.8l33.916 17.302c2.886 1.479 3.872 5.213 2.2 8.35l-9.041 16.83c-1.66 3.138-5.356 4.488-8.213 3.015z"/>
                <path fill="#1B76BC" d="M53.562 25.726l-8.718 16.379c-1.555 2.712-5.002 3.688-7.759 2.198L7.201 29.07a5.546 5.546 0 0 1-2.892-3.195 5.514 5.514 0 0 1 .277-4.292L13.379 5.1a4.195 4.195 0 0 1 5.626-1.597l32.627 16.634a4.149 4.149 0 0 1 2.142 2.391 4.126 4.126 0 0 1-.212 3.198z"/>
                <path fill="url(#K)" d="M45.91 37.547l-2.36 4.515c-1.545 2.752-4.969 3.743-7.707 2.23L6.161 28.834a5.587 5.587 0 0 1-2.86-3.248 5.707 5.707 0 0 1 .285-4.35l.797-1.526a.974.974 0 0 1 .82-.523l17.583-1.174a5.835 5.835 0 0 1 4.826 2.061l4.808 5.707c.25.285.314.69.165 1.04a.964.964 0 0 1-.858.592l-7.74.458c-.347.02-.66.22-.826.529a.954.954 0 0 0-.07.716c.129.5.585.838 1.092.81l14.114-1.057a4.932 4.932 0 0 1 4.664 2.513l2.886 5.226a.99.99 0 0 1 .064.94z"/>
                <ellipse cx="46.163" cy="25.684" fill="url(#L)" rx="2.427" ry="2.56" transform="rotate(-70.06 46.163 25.684)"/>
            </g>
            <path fill="url(#M)" d="M251.118 49.947l-29.93 5.972c-2.544.508-3.821-1.414-2.877-4.295l5.577-16.552c.956-2.65 3.247-4.57 5.991-5.02l29.93-5.97c2.55-.509 3.827 1.413 2.877 4.294l-5.18 15.436c-.995 2.88-3.844 5.627-6.388 6.135z"/>
            <path fill="url(#N)" d="M252.122 49.946l-29.933 5.972c-2.544.509-3.822-1.414-2.878-4.289l5.578-16.561c.956-2.647 3.245-4.564 5.986-5.014l29.934-5.972c2.544-.509 3.828 1.408 2.878 4.289l-5.18 15.445c-.99 2.875-3.84 5.622-6.385 6.13z"/>
            <path fill="#1B76BC" d="M262.817 28.745l-5.211 15.336a9.135 9.135 0 0 1-6.216 5.462l-27 5.362c-2.583.513-3.99-1.103-3.144-3.604l5.217-15.419a6.615 6.615 0 0 1 4.498-3.952l29.49-5.85c1.945-.408 2.997.795 2.366 2.665z"/>
            <path fill="url(#O)" d="M259.939 38.823l-1.465 4.203a9.299 9.299 0 0 1-6.363 5.49l-27.641 5.388c-2.644.516-4.085-1.108-3.218-3.622l.485-1.41c.126-.318.35-.587.64-.771l15.022-9.93c1.567-1.037 3.23-1.476 4.437-1.185l4.898 1.185c.55.137.33.967-.382 1.429l-6.62 4.345c-.291.184-.517.454-.646.77a.553.553 0 0 0 .035.51c.18.25.634.214 1.065-.076l12.068-8.05c1.62-1.086 3.343-1.4 4.354-.795l3.193 1.903a.472.472 0 0 1 .138.616z"/>
            <ellipse cx="257.01" cy="31.986" fill="url(#P)" rx="2.552" ry="1.475" transform="rotate(-40.81 257.01 31.986)"/>
            <path fill="url(#Q)" d="M152.593 136.309l-23.44-19.842c-1.997-1.692-1.335-3.913 1.48-4.973l16.165-6.069a7.597 7.597 0 0 1 7.613 1.552l23.44 19.842c1.991 1.687 1.33 3.913-1.48 4.967l-15.077 5.665c-2.808 1.054-6.699.545-8.701-1.142z"/>
            <path fill="url(#R)" d="M152.59 136.3l-23.437-19.847c-1.997-1.688-1.335-3.914 1.48-4.97l16.163-6.058a7.584 7.584 0 0 1 7.613 1.559l23.438 19.84c1.997 1.694 1.335 3.92-1.48 4.975l-15.076 5.666c-2.808 1.037-6.703.522-8.7-1.166z"/>
            <path fill="#1B76BC" d="M175.478 130.042l-14.666 5.558a8.688 8.688 0 0 1-7.908-1.41l-20.622-17.624c-1.975-1.685-1.628-3.791.763-4.68l14.752-5.594a6.282 6.282 0 0 1 5.727 1.018l22.517 19.244c1.475 1.24 1.219 2.809-.563 3.488z"/>
            <path fill="#FCC000" d="M226.123 74s-1.096 5.899-5.123 5.964c0 0 4.45.042 5.123 6.036 0 0 0-5.994 4.877-5.994 0-.018-5.167-.513-4.877-6.006zM287.12 116s-1.095 5.896-5.12 5.961c0 0 4.452.048 5.12 6.039 0 0 0-5.991 4.88-5.991-.016-.024-5.164-.519-4.88-6.009zM211.126 18s-1.095 5.896-5.126 5.961c0 0 4.452.048 5.126 6.039 0 0 0-5.961 4.874-5.961 0-.048-5.164-.549-4.874-6.039zM205 79a1 1 0 1 0 0-2 1 1 0 0 0 0 2z"/>
            <g transform="translate(145 174)">
                <path fill="url(#S)" d="M13.154 22.979L1.198 3.447C.185 1.78 1.077.419 3.196.397l12.187-.11c2.119 0 3.838 1.322 4.857 2.987l11.955 19.532c1.013 1.66.122 3.028-1.997 3.045l-11.365.103c-2.119-.005-4.66-1.338-5.68-2.975z"/>
                <path fill="url(#T)" d="M12.945 23.467L.99 3.935C-.023 2.27.868.908 2.987.89L15.174.781c2.12 0 3.839 1.322 4.858 2.982l11.955 19.532c1.013 1.666.121 3.027-1.998 3.044l-11.364.104c-2.12.023-4.66-1.316-5.68-2.976z"/>
                <path fill="#1B76BC" d="M29.729 25.225l-11.174.098a6.668 6.668 0 0 1-5.14-2.982L2.778 4.951C1.766 3.287 2.42 1.925 4.244 1.908L15.48 1.81a4.836 4.836 0 0 1 3.728 2.16l11.608 18.957c.759 1.27.272 2.286-1.088 2.298z"/>
                <path fill="url(#U)" d="M21.589 25.277l-3.034.028a6.668 6.668 0 0 1-5.14-2.981L2.778 4.952C1.766 3.286 2.42 1.924 4.244 1.907h1.019c.241.007.474.094.66.247l10.23 7.773c.95.64 1.627 1.609 1.899 2.717l.497 3.602c.058.402-.52.454-1.007.08l-4.48-3.446a1.163 1.163 0 0 0-.66-.253.378.378 0 0 0-.32.143c-.11.184 0 .483.33.707l8.262 6.204c1.112.833 1.737 1.925 1.639 2.752l-.377 2.614c-.023.155-.15.23-.347.23z"/>
                <ellipse cx="25.935" cy="22.113" fill="url(#V)" rx="1.047" ry="1.851" transform="rotate(-57.38 25.935 22.113)"/>
            </g>
            <path fill="url(#W)" d="M268 82.352s7.491-.289 11.299-5.435C283.106 71.771 286.566 64 286.566 64l.464 1.24a10.49 10.49 0 0 1 1.493-1.119.565.565 0 0 1 .456.416.588.588 0 0 1-.182.6 5.967 5.967 0 0 0-.956 1.655l.252 1.264s-.235 1.154-.682 1.494c-.448.34-2.32 3.64-3.316 5.579-.995 1.938-8.335 12.508-15.938 12.871L268 82.352z"/>
            <path fill="url(#X)" d="M274.756 70s2.94 1.473 2.09 3.993c-.852 2.52-4.143 5.007-4.143 5.007L271 73.18l3.756-3.18z"/>
            <path fill="url(#Y)" d="M231.75 142.967a4.35 4.35 0 0 1-1.774-.148c-.773-.171-2.047-2.456-2.943-4.255a35.157 35.157 0 0 1-1.033-2.205l3.444-2.359c.197.64.555 1.227 1.045 1.714a8.068 8.068 0 0 0 2.511 1.639c-.63.509-1.289.987-1.973 1.433-1.076.68.724 4.181.724 4.181z"/>
            <path fill="url(#Z)" d="M216.502 119l-5.287 1.709s-1.42 2.622-1.19 3.755c.232 1.133 1.983 3.13 3.113 2.366l1.163-.776s.515-2.729 2.815-2.547c2.3.181-.614-4.507-.614-4.507z"/>
            <path fill="#161E51" d="M258 99.633s-3.797 19.567-9.266 24.446c-2.178 1.944-14.19 12.885-14.19 12.885a5.354 5.354 0 0 1-1.24 0c-1.838-.023-3.314-1.553-3.304-3.426l13.064-13.073.919-7.485.092-.75 6.095-15.707L254.013 95 258 99.633z"/>
            <path fill="#222A72" d="M255 97.328l-.059 2.783-.37.693c-.848 1.56-2.942 5.31-4.195 6.504-1.594 1.52-4.212 2.142-5.048 2.8-.835.658-5.777 8.856-6.548 10.067a26.674 26.674 0 0 1-4.118 4.547c-.847.582-17.784.07-17.784.07a31.56 31.56 0 0 1-3.407-1.747c-1.447-.897.9-3.784.9-3.784s17.432-2.242 18.362-3.866c.93-1.625 2.07-5.625 4.041-9.211a29.936 29.936 0 0 1 5.048-6.492l4.43-3.528 1.024-.815s2.465-1.432 2.612-1.345l1.441.943L255 97.328z"/>
            <path fill="#3E4D56" d="M231.867 145.675c-.647 1.184-4.383-1.166-5.024-2.279-.64-1.112-.647-2.644-1.029-3.511-.382-.867-1.016-1.216-.75-1.745.083-.148.336-.573.698-1.14.77 1.663 2.732 5.616 4.163 6.167.9.338 1.483.338 1.858.142.214 1.09.317 1.99.084 2.366zM214 127.298c-.653 1.706-1.384 3.361-1.991 3.643-1.143.512-4.035-2.425-4.009-3.518a8.272 8.272 0 0 1 1.345-3.605 9.67 9.67 0 0 0 1.632-1.818v.05a16.98 16.98 0 0 1-.509 1.293c-.881 1.95-1.175 2.756.986 4.442.894.713 1.795.244 2.546-.487z"/>
            <path fill="url(#aa)" d="M264.955 91.228c-.384.593-2.416 2.253-2.9 3.082-.485.83-3.32 6.242-3.32 6.242s-2.51.593-3.632.415c-4.583-.842-4.087-3.053-4.087-3.053s1.423-3.402 2.203-5.447c.78-2.045-2.008-6.887-.272-8.89 1.961-2.271 3.508-2.87 6.072-3.208.78-.106 1.653-.183 2.658-.278a19.436 19.436 0 0 1 1.642-.089c.537-.006.897 0 1.334.036a7.324 7.324 0 0 1 3.993 1.298 3.561 3.561 0 0 1 1.353 2.898c.059 3.68-4.66 6.378-5.044 6.994z"/>
            <path fill="#318DCA" d="M268.998 83.945c.04 3.694-1.813 7.543-3.431 9.656-1.332 1.719-3.197.674-3.66 1.51-.463.835-3.82 5.251-3.82 5.251a4.13 4.13 0 0 1-2.779.597 8.396 8.396 0 0 1-3.385-1.146c-.571-.334-1.143-.662-1.59-.972a13.172 13.172 0 0 1-3.121-2.656 3.11 3.11 0 0 1-.212-.298s2.762-3.211 3.517-5.276c.303-1.043.495-2.118.571-3.205.195-1.486.464-3.02 1.407-4.177 1.893-2.286 3.402-2.889 5.878-3.229 1.407 1.97.75 4.81 2.07 5.67 1.321.859 6.113.704 6.862-.472.75-1.176.366-4.004.332-4.255a3.673 3.673 0 0 1 1.36 3.002z"/>
            <path fill="url(#ab)" d="M268.99 81.44v.04c0 .04-.094.132-.175.257-.462.7-1.653 2.486-2.121 3.06-.596.719-2.778-.66-3.728-1.22-.3-.18-.553-.43-.736-.725a1.72 1.72 0 0 1 .047-1.794c.1-.171.274-.455.502-.805.963-1.516 2.75-4.253 2.75-4.253.604.57 1.149 1.197 1.627 1.873.24.33.495.699.762 1.108 1.265 2.03 1.071 2.46 1.071 2.46z"/>
            <path fill="url(#ac)" d="M273.374 77.891a6.056 6.056 0 0 1-.536 1.467c-.373.567-2.33 3.63-3.175 3.642a4.224 4.224 0 0 1-1.748-.94 14.815 14.815 0 0 1-1.875-1.7 3.604 3.604 0 0 1-.705-.973 9.665 9.665 0 0 1-.14-.442 8.219 8.219 0 0 1-.274-1.603 1.52 1.52 0 0 1-.338-.238 1.624 1.624 0 0 1-.582-1.059c-.027-2.367.986-4.633 2.784-6.23 2.517-2.152 6.991.414 7.807 2.43.815 2.016.157 3.33.157 3.33-.245.986-1.218 1.92-1.375 2.316z"/>
            <path fill="url(#ad)" d="M274.85 70.437c-1.069.423-.855 1.401-1.621 2.26-1.05 1.194-3.128.359-4.5 1.158l-.172.12c-.665.47-1.05 1.27-1.644 1.849a3.415 3.415 0 0 1-2.743.948c-1.015-.107-1.947-.674-2.968-.74-1.531-.101-2.968.931-4.47.967-1.935.048-3.526-1.468-4.748-2.983a2.82 2.82 0 0 0-.594-.597 2.622 2.622 0 0 0-.594-.232c-1.727-.52-3.668-.895-4.802-2.309a5.6 5.6 0 0 1-.914-4.128c.005-.214.073-.422.196-.597a.944.944 0 0 1 .403-.268c.594-.245 1.289-.293 1.912-.484.206-.057.405-.137.593-.238h.042c.748-.406 1.247-1.193 1.965-1.629 1.07-.6 2.347-.7 3.496-.274 1.13.43 2.217.965 3.247 1.598a7.394 7.394 0 0 0 3.425 1.104 8.273 8.273 0 0 0 2.268-.4c.677-.179 1.354-.37 2.036-.536 1.07-.28 2.163-.458 3.265-.531a7.612 7.612 0 0 1 5.123 1.39c1.4 1.133 2.327 2.821 1.799 4.552z"/>
            <path fill="url(#ae)" d="M269 74.68c-.658.362-1.04.975-1.628 1.418-.722.544-1.717.81-2.716.727-1.005-.082-1.928-.516-2.94-.567-1.516-.077-2.938.714-4.426.741-1.916.037-3.527-1.125-4.702-2.286a2.574 2.574 0 0 0-.588-.458c.182.06 2.874.915 5.102-.123s5.126-1.51 6.167-.778c1.04.732 4.156 2.058 5.731 1.327z"/>
            <path fill="url(#af)" d="M266.356 78.927c-.4-.398-.68-.92-.8-1.494l-1.286 2.194-1.352 2.307h-.348l-2.759.066-.811-2.05c.728-.108 1.545-.186 2.483-.281a16.835 16.835 0 0 1 1.534-.09c.795-1.375 2.268-3.856 2.268-3.856a1.45 1.45 0 0 1-.32-.25L268 75a21.652 21.652 0 0 0-1.368 2.427c-.298.675-.475 1.273-.276 1.5z" opacity=".31"/>
            <path fill="url(#ag)" d="M254.464 81s-13.549 1.54-30.898 10.565c0 0-2.91 1.813-3.416 2.766-.507.952.395.74.884.273.49-.467 1.804-1.562 2.677-1.368.873.194.39 1.072.687 1.368.297.297.716-.878 1.065-1.14a9.958 9.958 0 0 0 1.659-1.42c.343-.473 9.993-2.338 11.21-2.908 1.216-.57 11.907-1.984 13.001-2.343 1.094-.36 5.099-4.544 3.131-5.793z"/>
            <path fill="#FFF" d="M254 86l-.667 1.917s-.029.142-.62 4.92c-.115.917-.322 1.82-.62 2.695a18.154 18.154 0 0 1-1.853 3.858 17.685 17.685 0 0 1-1.818 2.448s-6.648 7.592-8.186 11.58c-1.538 3.987-7.162 7.208-7.203 7.526-.041.319-18.565 3.056-18.565 3.056-1.438-.908.895-3.834.895-3.834s17.325-2.271 18.249-3.917c.923-1.646 2.058-5.698 4.016-9.332a30.26 30.26 0 0 1 5.017-6.577l4.403-3.575a3.078 3.078 0 0 1-.216-.295s2.824-3.173 3.595-5.214c.31-1.031.507-2.093.585-3.168L254 86zM247.45 122.086c-.849.925-10.313 9.17-16.064 14.143l-.34.292-3.033 2.642-.964.837-.049-3.098 3.38-2.419 13.795-13.07.97-7.485L247.47 111s1.207 9.75-.018 11.086z" opacity=".34"/>
            <path fill="#151F5B" d="M344.98 217.11c.169 3.281-.827 11.819-.665 16.193.162 4.375.045 4.057.285 10.42.241 6.362-.509 21.755-1.37 22.649-.862.894-4.828 1.223-4.879-1.723-.056-3.057-.744-21.667-1.203-23.46a32.725 32.725 0 0 1-1.454-9.356c-.06-3.555-.291-7.106-.694-10.636 0 0 1.64-4.757 5.035-5.134 3.396-.376 4.946 1.047 4.946 1.047z"/>
            <path fill="#222A72" d="M337.131 249.133c-.036 5.257-.755 20.434-2.084 21.303-1.329.87-3.582.76-4.488-.512a2.416 2.416 0 0 1-.217-.41c-.658-1.611-.604-5.37-.912-11.428-.362-6.719-3.05-13.42-3.443-16.12-.362-2.551-1.552-14.095-1.92-21.16 0-.5-.049-.984-.067-1.433 0 0 3.564-1.566 6.644-1.353 3.08.213 9.356 1.572 9.356 1.572a110.199 110.199 0 0 1-3.425 15.954c-1.141 3.46.61 8.314.556 13.587z"/>
            <path fill="url(#ah)" d="M329.344 183.609c.27-.21.54-.36 0 0z"/>
            <path fill="url(#ai)" d="M343.02 203.51c.176 6.325 1.06 14.616 1.06 14.616s-1.973 4.127-9.059 4.75c-1.8.165-3.61.165-5.41 0a20.6 20.6 0 0 1-6.146-1.425s.45-6.075.342-13.742c-.051-3.403-.21-7.127-.57-10.761a103.59 103.59 0 0 0-.211-1.919c-2.012-3.61-7.525-9.377-6.99-10.048.417-.523 3.62-4.288 5.006-5.94l.639-.747 7.713 4.543a2.071 2.071 0 0 0-.222.154c.084-.042.166-.09.245-.142 1.328-.808 4.983-3.32 8.443-3.771h.08l4.327-6.86a9.311 9.311 0 0 1 3.141-.148 6.308 6.308 0 0 1 2.28.706c.16.09.314.19.468.297.496.604.792 1.358.844 2.15l-4.247 11.367c.205 5.44-1.865 12.43-1.733 16.92z"/>
            <path fill="#FFF" d="M332.724 183.632c-1.12.243-2.264.367-3.41.368-1.445-.084-9.314-5.24-9.314-5.24l.674-.76 8.14 4.613c.186-.115.349-.205 0 0 1.402-.82 5.258-3.37 8.91-3.83.024.013 2.003 3.402-5 4.85zM323.816 221l1.18-24.246c.04-.834-.288-1.639-.88-2.166a2.24 2.24 0 0 0-2.116-.503l.835 12.064-.418 14.323 1.399.528z" opacity=".34"/>
            <path fill="url(#aj)" d="M326.9 178.455c.373.73 3.013.688 3.344.676h.036v2.566c.64.214 1.314.316 1.989.302.307 0 .65 0 1.03-.049a6.111 6.111 0 0 0 1.205-.235c1.525-.447 2.808-1.353 2.85-1.679.042-.326 0-2.294 0-2.294l.67-1.117s2.41-4.323 2.891-6.038c.482-1.714-1.253-3.936-1.253-3.936a3.925 3.925 0 0 0-.542-1.945c-.603-1.123-5.538-2.378-9.28-1.286-3.742 1.093-2.41 2.796-2.41 2.796a13.981 13.981 0 0 0-.934 2.234c.009.854.071 1.707.187 2.554a7.565 7.565 0 0 1-.603 1.986c-.325.803.416 4.686.82 5.465z"/>
            <path fill="url(#ak)" d="M334 177l.337 4s2.632-.756 2.66-1.281c.028-.525-.152-2.719-.152-2.719H334z"/>
            <path fill="#222A72" d="M330.375 162.432c-1.439.443-2.856 1.036-4.375 1.012.194.646.598 1.2 1.142 1.564l-.514.437a4.5 4.5 0 0 0 1.834 1c-.297.48.154 1.126.668 1.33a10.8 10.8 0 0 1 1.583.48c.73.43.965 1.4 1.068 2.275.125 1.14.137 2.29.034 3.433.308.143.645-.156.8-.473.1-.34.267-.655.49-.923a.932.932 0 0 1 .808-.092c.27.094.486.307.592.583a2.307 2.307 0 0 1-.131 1.737 5.769 5.769 0 0 1-1.091 1.702 3.66 3.66 0 0 1 2.713 1.503c.335-.235.629-.53.868-.869l.292.713a7.2 7.2 0 0 0 1.913-2.869 19.774 19.774 0 0 0 1.805-5.193 6.732 6.732 0 0 0-1.142-5.236 8.034 8.034 0 0 1-.771-.946c-.206-.347-.32-.743-.514-1.096-.646-1.162-2.028-1.582-3.273-1.905l-2.41-.599a12.34 12.34 0 0 1 1.587 2.06 9.499 9.499 0 0 0-3.976.372z"/>
            <path fill="url(#al)" d="M342.831 202.866c.183 6.21 1.094 14.349 1.094 14.349s-2.035 4.052-9.344 4.664a32.194 32.194 0 0 1-5.581 0c.259-1.866 3.358-23.963 4.07-28.995.74-5.247 3.892-8.536 5.604-9.632 1.71-1.096 6.621-11.24 6.621-11.24a3.402 3.402 0 0 1 2.352.693 4.206 4.206 0 0 1 1.353 2.402l-4.381 11.16c.212 5.329-1.923 12.191-1.788 16.599z"/>
            <path fill="url(#am)" d="M321 179.222L319.517 181l-2.241-2.292c-3.265-4.596-3.724-5.634-5.506-11.556C311.046 164.738 309 154 309 154l8.695 22.038 3.305 3.184z"/>
            <path fill="#FFF" d="M330.619 271a2.459 2.459 0 0 1-.222-.416c-.671-1.641-.616-5.468-.93-11.634-.37-6.84-3.109-13.662-3.51-16.41-.369-2.597-1.581-14.349-1.957-21.54l2.389.328s-.21 19.043 1.176 22.125c1.385 3.083 4.519 25.015 3.054 27.547z" opacity=".34"/>
            <path fill="url(#an)" d="M333 174.106s.724-.354.724-.708c0-.355 1.02-.555 1.245-.243.224.312-.811 1.845-1.274 1.845-.463 0-.695-.894-.695-.894z"/>
            <path fill="url(#ao)" d="M97.007 81s-.23-9.376 1.888-10.833c2.116-1.457 14.61-4.18 21.495-5.114 6.884-.932 1.807 10.655 1.807 10.655L97.007 81z"/>
            <path fill="url(#ap)" d="M100.78 71.209s1.235-.95 2.035 1.205c.801 2.155-1.262 8.007-1.262 8.007L99 81s-.097-7.81 1.778-9.791z"/>
            <path fill="url(#m)" d="M78.176 83L45 183.454 65.83 207 99 106.546z"/>
            <path fill="url(#aq)" d="M81 82.829L99.273 106 107 77z" opacity=".28"/>
            <path fill="url(#ar)" d="M175 279l-82-47.554V154l82 47.554z"/>
            <path fill="url(#m)" d="M140 127l36 70-1.081-66.011z" opacity=".24"/>
            <path fill="url(#as)" d="M142.86 179.957h-.051c-1.964.245-2.606 2.773-2.606 2.773V258l-17.613-10.969s-1.328-73.262 0-74.96a45.9 45.9 0 0 1 1.3-1.577A4.235 4.235 0 0 1 127.1 169s15.428 8.89 15.76 9.533c.187.455.187.97 0 1.424z"/>
            <path fill="url(#at)" d="M143 178.02l-.06 1.44c-2.292.247-3.04 2.791-3.04 2.791V258l-2.628-2.55s-.611-69.415 0-73.687c.61-4.27 5.728-3.742 5.728-3.742z"/>
            <path fill="url(#au)" d="M123 173.26l8.497 4.74s7.092-.23 8.503-.23L125.916 170s-2.582.749-2.916 3.26z" opacity=".28"/>
            <path fill="url(#av)" d="M123 173v74l9-69.402z" opacity=".28"/>
            <path fill="url(#aw)" d="M87 145.4a.3.3 0 0 0-.035.092l-6.455 18.622s-.448.93-2.181.884c-1.733-.046-21.222-18.9-21.222-18.9s-.241-.472 0-3.009c.242-2.537 5.512-16.556 5.512-16.556a.08.08 0 0 1 0-.04c0-.134.16-.536 1.769-.49l20.348 20.094A2.61 2.61 0 0 0 87 145.4z"/>
            <path fill="url(#ax)" d="M87 144.421a.293.293 0 0 0-.035.092c-.482 1.198-1.818 3.12-3.386 2.282-1.568-.84-20.414-19.666-20.576-20.853a.09.09 0 0 1 0-.04c-.1-1.175 2.752-3.776 2.903-3.902-.052.143-1.242 3.303-.33 4.205.911.901 1.451 1.443 1.742 1.711l-.302-.29-.854-.845.854.844.36.348.157.154 17.26 16.956a2.58 2.58 0 0 0 2.207-.662z"/>
            <path fill="url(#ay)" d="M66 126l1 1-1-1z"/>
            <path fill="url(#az)" d="M67.71 127.705l.1.1-.62-.61z"/>
            <path fill="url(#aA)" d="M67.365 127.365l.27.27-.27-.27z"/>
            <path fill="url(#aB)" d="M66 126l1 1-1-1z"/>
            <path fill="url(#aC)" d="M67.71 127.705l.1.1-.62-.61z"/>
            <path fill="url(#aD)" d="M67.365 127.365l.27.27-.27-.27z"/>
            <path fill="url(#aE)" d="M165.358 94.585l-18.15 4.202-.94.213s.757-.829 0-2.409c-.759-1.58-17.702-22.616-17.702-22.616L126 74.52l2.566-1.575h.132c1.562-.343 16.771-3.675 17.753-3.906.982-.231 2.417.645 2.417.645s16.978 21.805 17.115 22.687c.138.882-.625 2.214-.625 2.214z"/>
            <path fill="url(#aF)" d="M146.783 97.796l-.923.204s.743-.795 0-2.311c-.742-1.517-17.345-21.7-17.345-21.7L126 74.51 128.515 73h.13c.342.065.66.222.922.454.664.63 17.677 21.15 18.229 21.82.551.67-.09 2.3-1.013 2.522z"/>
            <path fill="url(#aG)" d="M20 65.549s118.078 92.685 125.467 111.66L175 199l-20.28-43.035L66.308 22 20 65.549z" opacity=".24"/>
            <path fill="url(#aH)" d="M73 99.673s-17.239-6.177-21.261-2.51c-4.023 3.667-6.735 23.04-6.735 23.04S44.62 123 51.164 123s14.94-1.789 14.94-1.789L73 99.673z"/>
            <path fill="url(#aI)" d="M53.254 99.94s0-1.06 4.351-.929c4.352.131 15.395 2.406 15.395 2.406L72.414 103s-16.82 0-18.445-.822-.715-2.239-.715-2.239z"/>
            <path fill="url(#aJ)" d="M72 105l-4.134.487L55 124l11.356-1.636z" opacity=".38"/>
            <path fill="url(#aK)" d="M160.714 159.33l-13.338 6.494a2.18 2.18 0 0 1-1.803-.04 2.446 2.446 0 0 1-1.239-1.414l-3.137-7.784c-.562-1.357.146-2.375 1.282-2.932l13.337-6.488a2.18 2.18 0 0 1 1.793.056 2.448 2.448 0 0 1 1.227 1.41l2.923 7.27c.565 1.26.103 2.775-1.045 3.428z"/>
            <path fill="url(#aL)" d="M161.69 159.334l-13.32 6.49a2.18 2.18 0 0 1-1.805-.04 2.45 2.45 0 0 1-1.24-1.413l-3.128-7.78c-.561-1.356.14-2.373 1.275-2.93l13.327-6.484a2.176 2.176 0 0 1 1.8.037c.571.272 1.017.78 1.238 1.41l2.92 7.265c.573 1.27.099 2.8-1.066 3.445z"/>
            <path fill="#1B76BC" d="M159.83 148.994l3.009 7.031c.46 1.199-.098 2.552-1.264 3.059l-12.398 5.683a2.226 2.226 0 0 1-1.744.102 2.269 2.269 0 0 1-1.293-1.193l-3.02-7.073a1.733 1.733 0 0 1 .91-2.218l13.515-6.202c.407-.209.881-.24 1.312-.087.432.153.783.477.973.898z"/>
            <path fill="url(#aM)" d="M162.031 154.598l.81 1.824c.456 1.146-.098 2.44-1.252 2.924l-12.28 5.431a2.278 2.278 0 0 1-1.727.098 2.218 2.218 0 0 1-1.28-1.14l-.269-.616a.38.38 0 0 1 .041-.382l4.074-5.7a2.376 2.376 0 0 1 1.856-.991l2.986-.103a.392.392 0 0 1 .363.202c.071.13.059.29-.032.408l-1.81 2.502a.409.409 0 0 0-.04.388c.038.089.111.159.204.193.19.075.409.008.523-.16l3.224-4.621a2.02 2.02 0 0 1 1.956-.832l2.357.37a.39.39 0 0 1 .296.205z"/>
            <ellipse cx="157.861" cy="151.249" fill="url(#aN)" rx="1.025" ry="1" transform="rotate(-31.49 157.861 151.25)"/>
            <path fill="url(#f)" d="M64.147 30.306L31.593 65.788c-2.77 3.021-7.64 2.939-10.888-.194L2.083 47.61c-3.247-3.126-2.374-6.894.401-9.915L35.033 2.212c2.77-3.02 7.646-2.938 10.888.189l17.394 16.774c3.218 3.126 3.602 8.11.832 11.131z"/>
            <path fill="url(#g)" d="M65.145 30.306L32.593 65.788c-2.77 3.021-7.648 2.939-10.89-.194L3.08 47.615c-3.242-3.127-2.369-6.9.401-9.921L36.032 2.212C38.81-.81 43.68-.727 46.928 2.406l17.39 16.768c3.219 3.127 3.597 8.111.827 11.132z"/>
            <path fill="#1B76BC" d="M44.736 3.376l17.153 16.43c2.797 2.676 2.82 7.292.035 10.303L32.878 61.562c-2.773 3.005-7.298 3.269-10.1.586L5.517 45.613a5.342 5.342 0 0 1 0-7.462L37.234 3.809a5.244 5.244 0 0 1 7.502-.433z"/>
            <path fill="url(#h)" d="M57.247 15.332l4.651 4.464c2.785 2.678 2.808 7.294.035 10.306l-28.925 31.46c-2.762 3.005-7.268 3.269-10.059.586l-1.564-1.506a1.295 1.295 0 0 1-.355-1.2l4.692-22.158a7.553 7.553 0 0 1 4.158-5.273l8.552-3.995a1.22 1.22 0 0 1 1.325.138c.377.304.54.803.42 1.274l-2.117 9.737c-.1.436.033.893.349 1.207.229.215.53.334.843.333a1.37 1.37 0 0 0 1.32-1.118l3.593-17.84a6.365 6.365 0 0 1 4.651-4.91l7.32-1.804c.397-.095.814.017 1.11.3z"/>
            <ellipse cx="42.533" cy="12.225" fill="url(#i)" rx="3.253" ry="3.069" transform="rotate(-54.37 42.533 12.225)"/>
            <path fill="url(#aO)" d="M164.633 134.145l-3.966 1.467a8.814 8.814 0 0 1-7.87-1.37l-20.52-17.124c-1.967-1.638-1.621-3.685.758-4.549l1.338-.494c.31-.1.642-.1.951 0l16.346 5.07c1.7.53 3.02 1.485 3.518 2.565l2.023 4.35c.232.488-.516.824-1.286.568l-7.173-2.274a1.547 1.547 0 0 0-.963 0 .533.533 0 0 0-.357.33c-.074.284.22.568.697.738l13.178 3.98c1.768.54 3.031 1.615 3.19 2.729l.498 3.508c.034.239-.124.415-.362.506z"/>
            <ellipse cx="169.592" cy="128.424" fill="url(#aP)" rx="1.477" ry="2.548" transform="rotate(-79.94 169.592 128.424)"/>
            <path fill="#FCC000" d="M125.123 33s-1.096 5.899-5.123 5.964c0 0 4.45.042 5.123 6.036 0 0 0-5.994 4.877-5.994 0-.018-5.167-.513-4.877-6.006zM137.123 49s-1.096 5.896-5.123 5.961c0 0 4.45.048 5.123 6.039 0 0 0-5.991 4.877-5.991 0-.018-5.14-.519-4.877-6.009zM34.123 85S33.027 90.896 29 90.961c0 0 4.45.048 5.123 6.039 0 0 0-5.961 4.877-5.961 0-.048-5.167-.549-4.877-6.039z"/>
            <path fill="url(#aQ)" d="M71.44 66.76c-1.397 1.777-4.77 1.274-5.466.747a5.692 5.692 0 0 1-.965-1.32c-.683-1.114-1.475-2.54-2.009-2.884 0 0 .373-.225.96-.527 1.693-.906 5.15-2.528 6.116-1.38.023.025.044.05.064.078 1.275 1.533 2.659 3.54 1.3 5.287z"/>
            <path fill="url(#aR)" d="M70.521 62c-1.843.396-7.521.68-7.521.68 1.041.465 2.018 2.073 2.018 2.073.014.01.032.017.052.021.29.118.617.188.957.205a6.57 6.57 0 0 0 1.61-.068c.123 0 .272-.06.31-.137.04-.076.466-.03.44-.089-.472-.025-1.377-.685-1.63-1.136 1.488.204 3.234.08 4.243-.651L70.521 62z"/>
            <path fill="url(#aS)" d="M68.778 47.382s-2.572-10.235-2.746-10.862c-.174-.627-2.635-1.988-3.318-2.75-.684-.76-.852-2.29-.609-2.625.244-.336 1.159 1.047 1.396 1.041.238-.006 1.355-1.405 2.056-2.139.342-.295.623-.65.829-1.047 1.343 0 1.558 4.77 1.702 5.683.145.913 5.045 12.8 5.045 12.8s2.421 3.561-.828 3.517c-3.25-.045-3.527-3.618-3.527-3.618z"/>
            <path fill="#FFF" d="M72 58.497L69.934 48l-.934.243L71.09 59z" opacity=".34"/>
            <path fill="url(#aT)" d="M90 89l-.315-.39s-5.681-9.472-8.655-13.57L81 75l.327.431A134.651 134.651 0 0 1 90 89z"/>
            <path fill="url(#aU)" d="M88.904 81.53c-.22.664-.501 1.307-.84 1.92a21.28 21.28 0 0 1-.812 1.403 23.78 23.78 0 0 1-4.286 5.248c-1.89 1.653-3.922 2.522-5.59 1.38-1.482-1.01-.898-.971-1.664-.829 0 0-6.698-10.565-10.075-13.871l-.262-.256a3.972 3.972 0 0 1-.902-.312L54 71.3l1.135-5.152.125-.568 8.969 1.073c.272-.568.477-.943.619-1.21.21-.38.295-.516.295-.516l3.843-.307a1.703 1.703 0 0 0 1.56-1.55 1.62 1.62 0 0 0-.073-.671l-.188-.597-.227-.704v-.5a5.593 5.593 0 0 1 .165-1.744.46.46 0 0 1 .153-.198L68.004 48.21l1.095-.25 4.24-.96 1.408 5.356a.16.16 0 0 0 0 .034l2.838 10.793c1.482 2.028 3.134 4.47 4.638 6.538 2.27 3.158 5.364 8.224 6.477 10.088.31.518.383 1.144.204 1.72z"/>
            <path fill="#FFF" d="M69.998 47s1.697 9.732 1.997 12.896A6.39 6.39 0 0 1 71.338 63l-.238-1.341-.228-1.276a6.848 6.848 0 0 1 .15-1.846.485.485 0 0 1 .14-.21L69 47.264l.998-.265z" opacity=".34"/>
            <path fill="url(#aV)" d="M81.475 92.995c-.04.076-2.338-.74-2.385-.67a.955.955 0 0 1-.965-.134 3.29 3.29 0 0 1-1.239-1.134C75.132 88.227 69.871 79.942 67 77.13l.082-.129c3.215 1.174 6.723.628 8.302 2.437 4.168 4.744 8.056 9.776 6.091 13.558z"/>
            <path fill="url(#aW)" d="M70.829 62c1.02 2.746-2.77 3.026-4.715 2.998-.66 0-1.114-.06-1.114-.06l.236-.994c.36.055.69.093 1.002.115 4.603.39 4.597-1.889 4.59-2.059z"/>
            <path fill="url(#aX)" d="M66.365 52.143c.286.09.543.26.74.492.548.69 1.059 1.413 1.528 2.163.205.305.637.457 1.103 1.102.466.644 2.223 4.372.569 5.86a5.142 5.142 0 0 1-4.417 1.126 27.206 27.206 0 0 1-3.087-.897 17.264 17.264 0 0 1-3.252-2.069c-.943-.914-2.006-3.44-1.341-4.249l.665-.815a1.486 1.486 0 0 1 .159-1.266c.614-1.143 1.524-1.272 2.695-1.33.989-.053 1.972-.188 2.956-.235a4.966 4.966 0 0 1 1.682.118z"/>
            <path fill="#222A72" d="M65.724 51.773c.314.47.363 1.057.132 1.569-.112.237-.3.435-.538.565-2.984 1.247-2.494 2.659-2.655 2.884-.299.412-1.009.384-1.307.79a.952.952 0 0 0 .143 1.13c.25.322.597.564.824.92.083.13.417.333.43.502 0 .051-.323.17-.359.192l-.49-.242a2.32 2.32 0 0 0-.542-.271c-.34-.108-.597-.192-.794-.074a.566.566 0 0 0-.203.271c-.197.508.275 1.05.794 1.293.548.17 1.08.385 1.587.644.299.207.519.5.627.835-.233.3-.722.243-1.098.119-1.85-.616-2.184-1.694-4.106-2.072a.74.74 0 0 1-.215.101c-1.041.301-2.155-.184-2.59-1.129-1.29-2.472 1.194-4.166 2.059-6.548.304-.836.919-4.07 5.502-4.251 1.403-.04 2.125 1.603 2.8 2.772z"/>
            <path fill="#161E51" d="M63 61.81c-.252.26-.782.21-1.19.103-2.004-.533-2.366-1.467-4.448-1.795a.902.902 0 0 1-.233.088.334.334 0 0 1-.129-.18c0-.079.09-.142.175-.196.743-.489 1.862-1.15 2.793-.655a.517.517 0 0 0-.22.234c-.214.44.297.91.86 1.12.594.147 1.17.333 1.72.558.32.18.556.434.672.723z"/>
            <path fill="url(#aY)" d="M55 66.342L53.993 71s-11.782-8.132-13.388-7.576c-1.607.556-4.587.269-5.6-.407-.122-.084 2.049-2.272 2.91-3.14.49.049.821.067.821.067s.722-.168-.273-1.232c-.996-1.065-.647-1.71-.647-1.71s.344-.072 1.56.759a8.375 8.375 0 0 1 2.154 2.541L55 66.342z"/>
            <path fill="url(#aZ)" d="M116 104.272l-.737.58-2.59 2.148s-11.157-11.803-13.662-13.958c-2.504-2.154-11.747.226-11.747.226l-3.4-1.853L82 90.395l1.932-1.29.08-.053 2.045-1.367a8.996 8.996 0 0 0 1.644-1.401 8.984 8.984 0 0 0 1.252-1.65c.16-.26.305-.53.436-.806l.397-.828s13.781.463 17.125 3.411c3.122 2.745 8.33 15.921 9.015 17.682l.074.18z"/>
            <path fill="url(#ba)" d="M109 98.418l-.55.736-2.852 3.846-8.872-8.926s-9.252 5.638-12.66 5.015c-7.545-1.389-7.06-6.529-7.06-6.529l5.798-3.762c.456-.28 14.255-3.727 17.417-.267L109 98.418z"/>
            <path fill="#FFF" d="M109 99.276l-.547.724s-3.791-5.068-6.943-7.7c-3.152-2.634-2.39-2.686-6.88-2.686-3.75 0-11.403 0-11.63.146.454-.275 8.141-1.612 9.618-1.693 7.031-.403 7.153 1.08 9.212 2.831l7.17 8.378z" opacity=".34"/>
            <path fill="#071B3D" d="M116.997 96.347c0 .67-1.001 2.17-1.327 2.864a5.776 5.776 0 0 1-1.217 1.828c-1.2 1.09-4.844 3.961-4.844 3.961L106 103.02l3.429-4.735s2.148.25 3.19-1.122c.582-.768 2.83-1.218 4.075-1.158a.279.279 0 0 1 .23.095.308.308 0 0 1 .073.247zM113 106.128l2.08 3.872a25.06 25.06 0 0 1 3.099-1.065c.494-.12 2.842-.599 3.308-.928.597-.455 3.94-2.34 3.468-2.938-1.552-1.945-4.736-.7-5.406-.395-1.189.532-2.57-.473-2.57-.473L113 106.128z"/>
            <path fill="url(#bb)" d="M118 96.321s-1.55 3.682-1.97 3.969c-.42.286-6.446 4.71-6.446 4.71l-.584-.701s4.11-2.753 5.462-3.799a5.57 5.57 0 0 0 1.372-1.753c.367-.666 1.49-2.104 1.496-2.747l.67.321z"/>
            <path fill="url(#bc)" d="M125 105.601s-2.621 3.14-3.067 3.251c-.446.113-6.762 2.148-6.762 2.148l-.171-.965s4.213-1.11 5.655-1.619a5.122 5.122 0 0 0 1.73-1.216c.55-.535 1.96-1.54 2.202-2.2l.413.601z"/>
            <path fill="#FFF" d="M116 104.228l-.674.772s-5.714-9.776-7.266-13.26c-1.551-3.483-5.23-4.905-5.23-4.905s-9.41-.982-12.602-1.237a5.748 5.748 0 0 0-2.731.58l-.454.221a17.296 17.296 0 0 0-3.783 2.775l-.07.07c-.326-.58-9.3-16.975-10.05-18.775-.75-1.8 1.715-3.153 2.372-5.277.657-2.125-.727-11.56-.814-12.192l2.906 11.03c1.517 2.073 3.209 4.57 4.749 6.683 2.325 3.227 5.492 8.406 6.632 10.31.317.523.4 1.155.226 1.742a11.54 11.54 0 0 1-.86 1.962c.164-.26.313-.53.448-.807l.407-.83s14.135.464 17.564 3.42c3.185 2.745 8.527 15.953 9.23 17.718z" opacity=".34"/>
        </g>
        <g transform="rotate(-71 276.408 -212.139)">
            <path fill="url(#I)" d="M32.897 41.464L2.684 26.004C.112 24.688-.766 21.35.729 18.547L9.305 2.418C10.795-.385 13.487-.506 16.1.81l30.219 15.466c2.571 1.316 3.444 4.652 1.954 7.456l-7.996 15.043c-1.51 2.804-4.803 4.01-7.38 2.69z"/>
            <path fill="url(#J)" d="M33.903 43.467L3.687 28.006c-2.577-1.316-3.45-4.658-1.96-7.462l8.577-16.125c1.49-2.804 4.207-2.925 6.795-1.609l30.216 15.462c2.571 1.321 3.45 4.658 1.96 7.462L41.22 40.773c-1.48 2.804-4.772 4.01-7.317 2.694z"/>
            <path fill="#1B76BC" d="M47.605 23.561l-7.845 14.82a5.187 5.187 0 0 1-6.983 1.989L5.88 26.587a5.008 5.008 0 0 1-2.354-6.774L11.441 4.9a3.765 3.765 0 0 1 5.063-1.445l29.365 15.05a3.747 3.747 0 0 1 1.736 5.056z"/>
            <path fill="url(#K)" d="M40.921 33.375l-2.086 4.013c-1.365 2.447-4.391 3.328-6.81 1.983L5.792 25.63a4.957 4.957 0 0 1-2.527-2.887 5.1 5.1 0 0 1 .252-3.867l.704-1.357a.86.86 0 0 1 .724-.464l15.539-1.044a5.143 5.143 0 0 1 4.265 1.832L29 22.916c.22.253.276.614.145.925a.852.852 0 0 1-.758.526l-6.84.407a.886.886 0 0 0-.73.47.852.852 0 0 0-.062.636.946.946 0 0 0 .965.72l12.472-.94c1.68-.128 3.283.74 4.122 2.235l2.55 4.645c.158.25.18.565.057.835z"/>
            <ellipse cx="41.217" cy="23.063" fill="url(#L)" rx="2.178" ry="2.288" transform="rotate(-70.06 41.217 23.063)"/>
        </g>
        <path fill="#FCC000" d="M352.126 90s-1.095 5.896-5.126 5.961c0 0 4.452.048 5.126 6.039 0 0 0-5.961 4.874-5.961 0-.048-5.164-.549-4.874-6.039zM388.126 308s-1.095 5.896-5.126 5.961c0 0 4.452.048 5.126 6.039 0 0 0-5.961 4.874-5.961 0-.048-5.164-.549-4.874-6.039zM443.126 376s-1.095 5.896-5.126 5.961c0 0 4.452.048 5.126 6.039 0 0 0-5.961 4.874-5.961 0-.048-5.164-.549-4.874-6.039z"/>
    </g>
</svg>
